<?xml version="1.0" standalone="no"?>
<!DOCTYPE svg PUBLIC "-//W3C//DTD SVG 20010904//EN"
 "http://www.w3.org/TR/2001/REC-SVG-20010904/DTD/svg10.dtd">
<svg version="1.0" xmlns="http://www.w3.org/2000/svg"
 width="312.000000pt" height="139.000000pt" viewBox="0 0 312.000000 139.000000"
 preserveAspectRatio="xMidYMid meet">

<g transform="translate(0.000000,139.000000) scale(0.100000,-0.100000)"
fill="#000000" stroke="none">
<path d="M1125 1365 c-115 -60 -137 -203 -45 -295 21 -21 52 -41 68 -45 l31
-6 -64 -88 -64 -88 -348 74 c-191 41 -354 76 -361 78 -10 4 -8 11 5 32 27 41
25 139 -5 180 -37 53 -88 78 -157 78 -104 0 -170 -66 -170 -170 0 -69 25 -120
78 -157 41 -29 139 -32 180 -5 14 9 29 17 32 17 3 0 77 -143 164 -318 l160
-319 -43 10 c-65 15 -111 2 -156 -43 -47 -47 -65 -101 -56 -165 6 -37 17 -56
52 -91 l43 -44 76 0 76 0 43 43 c60 60 72 131 36 202 -11 21 -19 39 -17 40 1
1 136 49 300 105 l299 103 78 -38 78 -38 -39 -20 c-107 -53 -131 -185 -49
-267 47 -47 101 -65 165 -56 37 6 56 17 90 50 47 48 62 95 49 161 -8 44 -78
121 -115 127 -16 2 50 37 204 109 l227 105 258 -54 c141 -30 258 -56 260 -57
2 -2 -14 -21 -37 -44 -48 -48 -66 -101 -57 -166 10 -65 74 -131 138 -140 64
-10 122 9 168 55 45 45 60 107 41 171 -15 48 -72 108 -112 116 -16 3 -32 9
-34 14 -4 6 225 480 239 496 1 2 20 -6 41 -17 71 -36 142 -24 202 36 l43 43 0
76 0 76 -44 43 c-35 35 -54 46 -91 52 -128 19 -236 -88 -210 -208 4 -18 14
-42 21 -53 13 -20 3 -24 -271 -119 l-285 -98 -47 40 c-27 22 -63 56 -82 76
-31 32 -33 36 -15 41 111 35 163 149 114 249 -12 26 -38 59 -58 74 -29 22 -45
27 -97 27 -52 0 -67 -4 -97 -27 -109 -83 -98 -245 20 -308 l33 -18 -147 -76
c-81 -42 -150 -76 -153 -76 -3 0 -110 40 -237 88 l-231 87 31 16 c17 9 45 35
61 58 25 36 30 52 30 104 0 68 -20 108 -75 147 -40 29 -125 36 -165 15z m105
-12 c45 -8 105 -71 114 -116 23 -125 -101 -233 -209 -181 -86 40 -118 163 -63
236 27 35 79 67 109 68 9 0 31 -3 49 -7z m910 -43 c16 -11 38 -41 50 -65 32
-66 22 -123 -30 -175 -70 -70 -167 -62 -228 17 -54 72 -24 194 59 237 42 21
109 15 149 -14z m895 -26 c85 -56 96 -163 24 -235 -51 -51 -109 -61 -174 -29
-62 30 -89 71 -89 135 0 63 26 104 86 134 49 25 111 23 153 -5z m-2802 -25
c49 -13 103 -68 111 -113 28 -150 -154 -255 -260 -150 -66 67 -68 160 -3 225
47 47 85 57 152 38z m2456 -481 c-67 -134 -122 -244 -123 -245 0 -1 -60 55
-131 123 -72 69 -125 127 -120 130 16 8 490 232 493 233 1 1 -52 -108 -119
-241z m-1164 117 c83 -31 152 -58 154 -60 1 -2 -35 -23 -80 -46 l-84 -42 -92
18 c-51 9 -96 22 -101 28 -5 7 -30 58 -55 114 l-45 102 77 -29 c42 -15 144
-54 226 -85z m-286 22 c64 -138 69 -128 -51 -102 -64 14 -102 27 -100 34 3 14
101 151 108 151 3 0 22 -38 43 -83z m896 -4 l77 -73 -29 -11 c-15 -6 -71 -26
-124 -44 l-95 -32 -52 19 -52 20 91 99 c51 55 95 98 99 97 4 -2 42 -36 85 -75z
m-1500 -95 c162 -82 283 -148 281 -154 -6 -15 -247 -344 -252 -344 -2 0 -76
144 -164 320 -88 176 -158 320 -155 320 3 0 133 -64 290 -142z m1307 95 c-22
-27 -56 -63 -74 -81 l-35 -33 -43 19 -44 19 44 25 c44 25 182 97 188 98 2 0
-14 -21 -36 -47z m-1207 -24 c160 -34 292 -63 294 -65 2 -2 -18 -32 -43 -68
l-47 -66 -252 126 c-139 70 -254 128 -256 130 -9 8 22 2 304 -57z m1844 47
c-2 -2 -69 -34 -148 -70 -129 -60 -146 -65 -159 -52 -13 13 -13 16 -1 20 231
84 320 113 308 102z m-1377 -147 l107 -22 17 -41 c9 -23 18 -46 21 -52 2 -7
-34 -32 -82 -58 l-86 -46 -110 56 c-80 40 -108 58 -101 67 5 7 28 38 51 70 30
40 47 56 59 53 9 -2 65 -15 124 -27z m565 15 c24 -9 43 -19 43 -23 0 -3 -17
-23 -36 -44 l-36 -39 -89 18 c-49 10 -89 21 -89 24 0 7 140 79 155 79 5 1 29
-6 52 -15z m483 1 c16 -19 22 -14 -78 -60 -77 -36 -84 -37 -122 -26 -22 6 -40
15 -40 19 0 7 192 79 216 81 6 1 17 -6 24 -14z m-359 -49 l33 -14 -34 -14
c-62 -26 -111 -40 -117 -34 -8 8 57 76 73 76 6 0 27 -6 45 -14z m514 -102
l120 -115 -50 19 c-27 11 -119 45 -204 78 l-155 58 80 38 c43 21 81 37 84 37
3 0 59 -52 125 -115z m-990 90 c67 -11 69 -18 11 -46 l-54 -27 -16 40 c-20 49
-20 51 2 45 9 -3 35 -8 57 -12z m609 -39 l30 -13 -43 -21 c-39 -20 -47 -21
-99 -10 -31 6 -61 14 -66 17 -15 9 107 51 128 45 11 -3 33 -11 50 -18z m-371
-12 c38 -8 65 -18 60 -23 -15 -14 -276 -101 -289 -96 -15 6 -40 79 -28 83 5 2
32 17 59 33 55 32 72 32 198 3z m587 -70 c83 -31 149 -58 147 -59 -3 -3 -267
50 -357 72 -25 6 -25 6 10 24 19 11 38 19 42 20 5 0 75 -25 158 -57z m-421
-42 c-63 -30 -152 -71 -197 -93 l-84 -38 40 48 c67 78 145 149 177 159 20 7
52 5 104 -6 l74 -16 -114 -54z m-767 28 l101 -51 -219 -113 c-120 -63 -220
-112 -222 -110 -4 3 229 325 235 325 2 0 49 -23 105 -51z m331 -9 l16 -41 -27
-10 c-15 -5 -40 -15 -55 -21 -22 -9 -35 -7 -67 7 -22 10 -37 22 -34 27 5 8
133 76 145 78 3 0 13 -18 22 -40z m195 -71 l-93 -101 -27 58 -28 58 118 42
c64 23 118 42 120 43 2 1 -38 -44 -90 -100z m-355 -5 l31 -17 -198 -69 c-110
-37 -200 -67 -202 -65 -5 5 309 167 324 167 7 0 27 -7 45 -16z m213 -43 l23
-51 -71 36 c-38 19 -68 37 -66 40 7 7 83 32 87 28 2 -1 14 -26 27 -53z m1220
-12 c47 -29 78 -98 69 -155 -12 -83 -104 -144 -192 -128 -54 10 -110 71 -118
128 -12 74 41 160 110 179 33 9 97 -3 131 -24z m-1091 -95 c85 -56 96 -163 24
-235 -51 -51 -109 -61 -174 -29 -62 30 -89 71 -89 135 0 63 26 104 86 134 49
25 111 23 153 -5z m-935 -74 c16 -11 38 -41 50 -65 32 -66 22 -123 -30 -175
-70 -70 -167 -62 -228 17 -54 72 -24 194 59 237 42 21 109 15 149 -14z"/>
<path d="M1163 1273 c-7 -2 -13 -11 -13 -20 0 -12 2 -12 16 2 20 20 38 15 42
-11 2 -12 -11 -33 -33 -54 -19 -18 -35 -38 -35 -42 0 -4 21 -7 48 -6 43 1 44
2 10 5 -46 5 -48 15 -9 43 17 11 33 30 36 41 11 35 -23 58 -62 42z"/>
<path d="M2008 1225 c-4 -34 -3 -35 22 -30 35 8 56 -15 40 -44 -11 -22 -35
-28 -45 -11 -3 6 -11 10 -18 10 -6 0 -4 -7 6 -17 13 -13 23 -15 44 -7 51 17
37 91 -14 81 -20 -4 -24 -1 -21 17 2 14 13 23 33 27 30 7 29 7 -6 8 -35 1 -37
-1 -41 -34z"/>
<path d="M2933 1223 c20 -2 37 -6 37 -8 0 -1 -9 -22 -20 -46 -11 -24 -20 -53
-20 -64 0 -11 12 7 26 40 14 33 28 66 31 73 4 9 -8 12 -43 10 -44 -1 -45 -2
-11 -5z"/>
<path d="M154 1174 c-16 -13 -16 -15 -1 -10 15 5 17 -2 17 -49 0 -43 -4 -54
-17 -58 -10 -3 2 -5 27 -5 25 0 37 2 28 5 -15 4 -18 16 -18 69 0 68 -4 74 -36
48z"/>
<path d="M2532 407 c-22 -26 -26 -75 -8 -102 27 -41 76 -27 76 21 0 28 -24 48
-50 41 -24 -6 -27 15 -5 33 12 10 18 10 32 -1 14 -12 16 -12 11 1 -6 20 -42
24 -56 7z m52 -69 c16 -26 -16 -57 -38 -38 -17 13 -21 42 -9 54 11 11 35 3 47
-16z"/>
<path d="M1453 313 c-7 -2 -13 -9 -13 -15 0 -6 6 -6 15 2 8 7 22 10 30 6 22
-8 18 -35 -6 -44 -20 -8 -20 -9 6 -20 28 -13 29 -29 2 -46 -12 -8 -21 -5 -36
8 -12 11 -21 14 -21 9 0 -18 28 -35 51 -31 30 4 47 33 33 55 -8 13 -8 23 -1
35 20 31 -20 58 -60 41z"/>
<path d="M520 203 c-17 -26 -30 -51 -30 -55 0 -4 14 -8 30 -8 20 0 30 -5 30
-15 0 -20 18 -19 22 1 6 31 -4 124 -13 124 -5 0 -23 -21 -39 -47z m30 -18 c0
-31 -3 -35 -25 -35 l-24 0 20 35 c12 19 23 35 25 35 2 0 4 -16 4 -35z"/>
</g>
</svg>
