<?xml version="1.0" standalone="no"?>
<!DOCTYPE svg PUBLIC "-//W3C//DTD SVG 20010904//EN"
 "http://www.w3.org/TR/2001/REC-SVG-20010904/DTD/svg10.dtd">
<svg version="1.0" xmlns="http://www.w3.org/2000/svg"
 width="312.000000pt" height="139.000000pt" viewBox="0 0 312.000000 139.000000"
 preserveAspectRatio="xMidYMid meet">

<g transform="translate(0.000000,139.000000) scale(0.100000,-0.100000)"
fill="#000000" stroke="none">
<path d="M1120 1361 c-19 -10 -48 -35 -65 -55 -26 -33 -30 -46 -30 -100 0 -42
6 -70 18 -89 9 -14 17 -30 17 -35 0 -16 -292 -347 -303 -344 -25 7 -427 254
-427 262 0 5 4 12 10 15 17 11 32 88 25 133 -13 87 -113 152 -213 137 -34 -5
-54 -16 -87 -50 -50 -50 -64 -104 -45 -174 14 -54 75 -116 123 -125 42 -8 35
18 82 -301 19 -132 37 -250 40 -261 4 -17 -1 -23 -23 -29 -87 -21 -149 -108
-139 -196 12 -99 74 -149 186 -149 71 0 72 0 115 43 60 61 72 128 35 204 -18
37 -19 46 -8 61 11 13 187 220 330 386 4 4 136 -69 294 -164 l286 -172 -18
-26 c-12 -18 -18 -46 -18 -88 0 -51 4 -66 27 -96 79 -103 225 -101 300 5 30
41 32 138 4 179 -11 17 -14 32 -9 41 4 8 111 145 237 304 l230 291 39 -20 c44
-24 121 -20 159 6 21 15 24 12 139 -207 114 -214 117 -222 96 -231 -51 -19
-74 -36 -102 -76 -26 -36 -30 -51 -30 -104 0 -69 21 -107 78 -148 25 -18 45
-23 92 -23 103 0 172 60 182 158 4 42 0 60 -20 97 l-24 45 128 257 129 257 36
7 c25 5 52 21 81 50 l43 43 0 76 0 76 -44 43 c-35 35 -54 46 -91 52 -64 9
-118 -9 -165 -56 -85 -85 -57 -216 57 -271 27 -12 49 -23 51 -25 3 -2 -235
-484 -243 -492 -2 -2 -14 3 -27 11 -12 8 -36 18 -53 21 -27 6 -41 27 -152 238
l-121 232 21 31 c31 43 31 138 -1 182 -35 50 -76 74 -135 79 -62 6 -106 -14
-152 -70 -26 -33 -30 -46 -30 -99 0 -48 5 -69 22 -93 l22 -30 -217 -275 c-119
-151 -227 -287 -239 -302 -20 -26 -24 -27 -45 -15 -13 7 -39 17 -58 23 -34 10
-38 17 -167 304 -73 161 -130 297 -127 302 3 5 14 9 25 9 30 0 96 73 109 121
19 70 5 124 -44 173 -58 59 -131 72 -196 37z m110 -8 c45 -8 105 -71 114 -116
23 -125 -101 -233 -209 -181 -86 40 -118 163 -63 236 27 35 79 67 109 68 9 0
31 -3 49 -7z m1805 -69 c85 -56 96 -163 24 -235 -51 -51 -109 -61 -174 -29
-62 30 -89 71 -89 135 0 63 26 104 86 134 49 25 111 23 153 -5z m-2802 -25
c49 -13 103 -68 111 -113 28 -150 -154 -255 -260 -150 -66 67 -68 160 -3 225
47 47 85 57 152 38z m2052 -25 c85 -56 96 -163 24 -235 -69 -69 -166 -61 -227
19 -55 72 -26 182 60 226 39 20 105 15 143 -10z m-1179 -188 c11 -8 36 -18 55
-23 33 -9 36 -14 167 -303 73 -161 131 -294 130 -295 -11 -7 -96 -45 -102 -45
-17 0 -566 336 -563 344 4 12 280 335 287 336 3 0 15 -6 26 -14z m-570 -204
l214 -129 -171 -199 c-94 -109 -173 -201 -175 -203 -2 -2 -14 3 -26 11 -13 9
-38 19 -55 22 -38 9 -31 -16 -78 301 -19 132 -37 250 -40 262 -4 19 1 24 34
33 22 6 43 15 46 20 3 6 13 10 21 10 9 0 112 -58 230 -128z m2120 -373 c47
-29 78 -98 69 -155 -12 -83 -104 -144 -192 -128 -54 10 -110 71 -118 128 -12
74 41 160 110 179 33 9 97 -3 131 -24z m-1091 -95 c85 -56 96 -163 24 -235
-51 -51 -109 -61 -174 -29 -62 30 -89 71 -89 135 0 63 26 104 86 134 49 25
111 23 153 -5z m-1195 -74 c16 -11 38 -41 50 -65 32 -66 22 -123 -30 -175 -52
-52 -109 -62 -175 -30 -86 42 -116 128 -73 209 46 86 153 114 228 61z"/>
<path d="M1163 1273 c-7 -2 -13 -11 -13 -20 0 -12 2 -12 16 2 20 20 38 15 42
-11 2 -12 -11 -33 -33 -54 -19 -18 -35 -38 -35 -42 0 -4 21 -7 48 -6 43 1 44
2 10 5 -46 5 -48 15 -9 43 17 11 33 30 36 41 11 35 -23 58 -62 42z"/>
<path d="M2933 1223 c20 -2 37 -6 37 -8 0 -1 -9 -22 -20 -46 -11 -24 -20 -53
-20 -64 0 -11 12 7 26 40 14 33 28 66 31 73 4 9 -8 12 -43 10 -44 -1 -45 -2
-11 -5z"/>
<path d="M154 1174 c-16 -13 -16 -15 -1 -10 15 5 17 -2 17 -49 0 -43 -4 -54
-17 -58 -10 -3 2 -5 27 -5 25 0 37 2 28 5 -15 4 -18 16 -18 69 0 68 -4 74 -36
48z"/>
<path d="M2158 1145 c-4 -34 -3 -35 22 -30 35 8 56 -15 40 -44 -11 -22 -35
-28 -45 -11 -3 6 -11 10 -18 10 -6 0 -4 -7 6 -17 13 -13 23 -15 44 -7 51 17
37 91 -14 81 -20 -4 -24 -1 -21 17 2 14 13 23 33 27 30 7 29 7 -6 8 -35 1 -37
-1 -41 -34z"/>
<path d="M2532 407 c-22 -26 -26 -75 -8 -102 27 -41 76 -27 76 21 0 28 -24 48
-50 41 -24 -6 -27 15 -5 33 12 10 18 10 32 -1 14 -12 16 -12 11 1 -6 20 -42
24 -56 7z m52 -69 c16 -26 -16 -57 -38 -38 -17 13 -21 42 -9 54 11 11 35 3 47
-16z"/>
<path d="M1453 313 c-7 -2 -13 -9 -13 -15 0 -6 6 -6 15 2 8 7 22 10 30 6 22
-8 18 -35 -6 -44 -20 -8 -20 -9 6 -20 28 -13 29 -29 2 -46 -12 -8 -21 -5 -36
8 -12 11 -21 14 -21 9 0 -18 28 -35 51 -31 30 4 47 33 33 55 -8 13 -8 23 -1
35 20 31 -20 58 -60 41z"/>
<path d="M250 203 c-17 -26 -30 -51 -30 -55 0 -4 14 -8 30 -8 20 0 30 -5 30
-15 0 -20 18 -19 22 1 6 31 -4 124 -13 124 -5 0 -23 -21 -39 -47z m30 -18 c0
-31 -3 -35 -25 -35 l-24 0 20 35 c12 19 23 35 25 35 2 0 4 -16 4 -35z"/>
</g>
</svg>
