<?xml version="1.0" standalone="no"?>
<!DOCTYPE svg PUBLIC "-//W3C//DTD SVG 20010904//EN"
 "http://www.w3.org/TR/2001/REC-SVG-20010904/DTD/svg10.dtd">
<svg version="1.0" xmlns="http://www.w3.org/2000/svg"
 width="386.000000pt" height="180.000000pt" viewBox="0 0 386.000000 180.000000"
 preserveAspectRatio="xMidYMid meet">

<g transform="translate(0.000000,180.000000) scale(0.100000,-0.100000)"
fill="#000000" stroke="none">
<path d="M2481 1783 c-37 -8 -107 -84 -115 -126 -5 -28 -12 -37 -34 -41 -15
-3 -367 -53 -782 -111 -415 -58 -765 -107 -777 -110 -17 -4 -23 1 -28 26 -4
18 -26 51 -50 75 -34 33 -53 44 -90 50 -64 9 -118 -9 -165 -56 -43 -43 -55
-82 -45 -147 8 -53 62 -114 118 -132 l36 -12 -182 -259 c-176 -250 -183 -259
-221 -266 -48 -8 -121 -76 -131 -124 -14 -63 3 -118 50 -165 50 -50 104 -64
174 -45 46 12 121 78 121 108 1 48 10 46 381 -121 358 -160 364 -163 374 -197
16 -54 32 -77 73 -105 31 -21 48 -25 110 -25 72 0 73 0 116 44 31 30 46 55 50
82 6 32 48 89 232 309 196 237 229 271 262 280 57 15 119 82 127 138 8 50 0
101 -21 132 -14 21 -21 11 337 463 16 21 20 22 41 10 13 -7 39 -17 57 -23 l35
-10 138 -385 c76 -212 138 -388 138 -393 0 -4 -14 -10 -32 -14 -41 -8 -104
-72 -119 -121 -20 -68 -5 -127 46 -177 50 -50 104 -64 174 -45 54 14 113 73
126 125 l10 39 275 126 275 126 45 -24 c37 -19 55 -23 97 -19 102 10 153 73
153 186 0 71 0 72 -43 115 -60 60 -131 72 -202 36 -22 -11 -43 -20 -49 -20
-11 0 -886 510 -886 516 0 3 8 17 18 31 26 41 23 139 -6 180 -43 60 -133 93
-211 76z m102 -24 c49 -13 103 -68 111 -113 28 -150 -154 -255 -260 -150 -66
67 -68 160 -3 225 47 47 85 57 152 38z m-217 -186 c4 -16 13 -40 22 -54 9 -17
11 -31 6 -41 -5 -8 -88 -114 -184 -236 l-174 -220 -31 21 c-42 31 -138 31
-180 1 l-30 -22 -535 120 c-294 67 -537 123 -540 125 -2 2 1 12 7 21 6 10 14
32 18 50 3 18 7 32 8 32 1 1 360 52 797 114 437 63 798 114 802 115 4 0 11
-11 14 -26z m-1701 -77 c77 -59 84 -157 15 -226 -52 -52 -109 -62 -175 -30
-62 30 -89 71 -90 134 0 63 27 105 87 135 53 27 117 22 163 -13z m2447 -282
l439 -256 -18 -27 c-24 -36 -24 -137 0 -175 10 -15 17 -29 15 -31 -7 -7 -531
-245 -533 -243 -1 2 -12 24 -24 50 -25 52 -58 81 -117 100 l-38 13 -138 385
c-76 212 -136 391 -133 398 2 6 13 12 23 12 10 0 27 7 38 15 10 8 25 15 33 15
8 0 211 -115 453 -256z m-1872 -89 c289 -65 527 -119 530 -122 2 -2 -1 -12 -7
-21 -18 -29 -25 -81 -18 -129 5 -35 16 -55 51 -89 24 -24 52 -44 63 -44 11 0
22 -4 25 -9 3 -5 -88 -122 -203 -260 l-209 -251 -22 45 c-12 25 -38 58 -58 73
-29 22 -45 27 -97 27 -81 0 -134 -33 -167 -105 -13 -27 -25 -50 -28 -49 -3 0
-167 73 -365 162 -353 160 -360 163 -369 197 -13 44 -76 107 -118 118 -18 4
-33 10 -33 13 0 3 81 120 180 261 167 239 182 257 215 263 19 3 46 15 60 25
14 11 30 18 35 16 6 -2 246 -56 535 -121z m756 -102 c85 -55 96 -171 24 -243
-64 -64 -146 -64 -210 0 -65 65 -65 155 1 221 20 20 48 40 61 42 36 8 97 -2
124 -20z m1734 -30 c45 -8 105 -71 114 -116 16 -88 -45 -180 -128 -192 -97
-15 -180 60 -180 160 0 63 26 104 86 134 47 23 59 24 108 14z m-3449 -368 c78
-51 89 -154 23 -220 -67 -67 -160 -69 -225 -4 -48 48 -60 108 -34 163 18 38
65 80 100 89 36 10 99 -3 136 -28z m2635 -36 c47 -29 78 -98 69 -155 -12 -83
-104 -144 -192 -128 -54 10 -110 71 -118 128 -12 74 41 160 110 179 33 9 97
-3 131 -24z m-1536 -289 c16 -11 38 -41 50 -65 32 -66 22 -123 -30 -175 -52
-52 -109 -62 -175 -30 -86 42 -116 128 -73 209 46 86 153 114 228 61z"/>
<path d="M2488 1655 c-4 -34 -3 -35 22 -30 35 8 56 -15 40 -44 -11 -22 -35
-28 -45 -11 -3 6 -11 10 -18 10 -6 0 -4 -7 6 -17 13 -13 23 -15 44 -7 51 17
37 91 -14 81 -20 -4 -24 -1 -21 17 2 14 13 23 33 27 30 7 29 7 -6 8 -35 1 -37
-1 -41 -34z"/>
<path d="M544 1444 c-16 -13 -16 -15 -1 -10 15 5 17 -2 17 -49 0 -43 -4 -54
-17 -58 -10 -3 2 -5 27 -5 25 0 37 2 28 5 -15 4 -18 16 -18 69 0 68 -4 74 -36
48z"/>
<path d="M1883 963 c-7 -2 -13 -9 -13 -15 0 -6 6 -6 15 2 8 7 22 10 30 6 22
-8 18 -35 -6 -44 -20 -8 -20 -9 6 -20 28 -13 29 -29 2 -46 -12 -8 -21 -5 -36
8 -12 11 -21 14 -21 9 0 -18 28 -35 51 -31 30 4 47 33 33 55 -8 13 -8 23 -1
35 20 31 -20 58 -60 41z"/>
<path d="M3662 907 c-22 -26 -26 -75 -8 -102 27 -41 76 -27 76 21 0 28 -24 48
-50 41 -24 -6 -27 15 -5 33 12 10 18 10 32 -1 14 -12 16 -12 11 1 -6 20 -42
24 -56 7z m52 -69 c16 -26 -16 -57 -38 -38 -17 13 -21 42 -9 54 11 11 35 3 47
-16z"/>
<path d="M160 543 c-17 -26 -30 -51 -30 -55 0 -4 14 -8 30 -8 20 0 30 -5 30
-15 0 -20 18 -19 22 1 6 31 -4 124 -13 124 -5 0 -23 -21 -39 -47z m30 -18 c0
-31 -3 -35 -25 -35 l-24 0 20 35 c12 19 23 35 25 35 2 0 4 -16 4 -35z"/>
<path d="M2803 533 c20 -2 37 -6 37 -8 0 -1 -9 -22 -20 -46 -11 -24 -20 -53
-20 -64 0 -11 12 7 26 40 14 33 28 66 31 73 4 9 -8 12 -43 10 -44 -1 -45 -2
-11 -5z"/>
<path d="M1263 243 c-7 -2 -13 -11 -13 -20 0 -12 2 -12 16 2 20 20 38 15 42
-11 2 -12 -11 -33 -33 -54 -19 -18 -35 -38 -35 -42 0 -4 21 -7 48 -6 43 1 44
2 10 5 -46 5 -48 15 -9 43 17 11 33 30 36 41 11 35 -23 58 -62 42z"/>
</g>
</svg>
