<?xml version="1.0" standalone="no"?>
<!DOCTYPE svg PUBLIC "-//W3C//DTD SVG 20010904//EN"
 "http://www.w3.org/TR/2001/REC-SVG-20010904/DTD/svg10.dtd">
<svg version="1.0" xmlns="http://www.w3.org/2000/svg"
 width="252.000000pt" height="239.000000pt" viewBox="0 0 252.000000 239.000000"
 preserveAspectRatio="xMidYMid meet">

<g transform="translate(0.000000,239.000000) scale(0.100000,-0.100000)"
fill="#000000" stroke="none">
<path d="M1742 2359 c-24 -12 -55 -37 -70 -57 -37 -48 -39 -144 -5 -191 l23
-30 -561 -466 c-459 -381 -564 -463 -576 -453 -8 6 -39 12 -69 12 -54 1 -55 2
-64 36 -5 19 -45 190 -90 380 -45 190 -84 353 -86 362 -3 10 3 19 15 23 12 3
38 24 60 45 122 121 9 322 -167 295 -34 -5 -54 -16 -87 -49 -48 -48 -62 -96
-50 -167 9 -51 75 -123 123 -132 l32 -7 -7 -147 c-5 -82 -8 -278 -8 -438 1
-233 4 -307 18 -376 33 -164 82 -307 197 -569 69 -157 73 -169 74 -245 1 -66
5 -86 24 -112 38 -54 80 -73 161 -73 71 0 72 0 115 44 47 46 60 88 54 168 l-3
38 689 479 689 479 43 -43 c50 -52 102 -71 169 -61 37 6 56 17 91 52 l44 43 0
76 0 76 -43 43 c-63 63 -129 73 -212 30 -51 -25 -77 -59 -91 -116 -4 -19 -14
-29 -32 -32 -85 -18 -715 -117 -718 -113 -4 4 108 332 125 367 4 8 48 126 97
262 82 227 91 247 109 240 11 -4 45 -7 76 -6 65 0 105 23 141 82 32 52 32 144
0 189 -55 78 -150 103 -230 62z m163 -25 c71 -46 92 -144 47 -216 -32 -51 -68
-72 -128 -72 -92 -1 -158 66 -158 159 0 63 26 104 86 134 49 25 111 23 153 -5z
m-1672 -45 c113 -31 152 -173 71 -255 -67 -66 -160 -68 -224 -4 -65 65 -65
155 1 221 47 47 85 57 152 38z m1145 -736 l-273 -449 -223 -37 c-123 -21 -228
-35 -233 -31 -5 3 -9 12 -9 21 0 8 -10 28 -21 45 -14 20 -18 33 -11 40 22 22
1037 865 1040 863 1 -1 -120 -204 -270 -452z m283 370 c-16 -43 -54 -150 -86
-238 -31 -88 -68 -187 -80 -220 -13 -33 -42 -114 -66 -180 -23 -66 -45 -124
-49 -128 -7 -8 -222 -48 -228 -42 -4 3 529 885 534 885 2 0 -9 -35 -25 -77z
m-1352 -376 l90 -378 -44 -43 c-74 -74 -74 -177 -1 -251 74 -73 168 -73 242 0
23 24 44 51 46 62 3 19 7 18 168 -7 91 -14 164 -30 163 -35 -1 -6 -74 -131
-164 -278 -152 -250 -164 -267 -191 -267 -39 0 -92 -24 -123 -54 l-25 -25 -14
32 c-7 18 -45 108 -85 200 -90 213 -135 342 -164 471 -20 94 -22 125 -22 436
0 353 11 570 26 535 5 -11 49 -190 98 -398z m2126 -143 c85 -56 96 -163 24
-235 -51 -51 -109 -61 -174 -29 -62 30 -89 71 -89 135 0 63 26 104 86 134 49
25 111 23 153 -5z m-275 -167 c-21 -20 -1387 -967 -1394 -967 -3 0 -6 6 -6 14
0 8 -18 25 -40 38 l-40 23 167 278 168 277 35 -6 c61 -10 70 -15 77 -42 12
-49 43 -88 87 -110 75 -38 142 -27 202 33 71 71 73 174 3 247 -36 39 -38 42
-25 72 l12 31 370 61 c431 72 403 68 384 51z m-1604 -104 c50 -32 93 -130 65
-147 -6 -4 -8 -18 -5 -31 4 -18 -3 -32 -34 -63 -66 -66 -147 -67 -212 -2 -65
65 -65 155 1 221 20 20 48 40 61 42 36 8 97 -2 124 -20z m805 -35 c-7 -18 -16
-21 -67 -22 -90 -2 -149 -50 -170 -139 -4 -19 -11 -26 -21 -23 -8 3 -26 6 -39
6 -13 0 -24 4 -24 9 0 6 19 41 42 79 l42 70 115 20 c64 11 119 20 123 21 4 0
4 -9 -1 -21z m-308 -78 c-55 -99 -35 -93 -218 -64 -169 27 -198 33 -178 41 12
4 386 70 411 72 9 1 3 -16 -15 -49z m322 14 c48 -31 70 -74 70 -134 0 -93 -59
-153 -151 -154 -58 -1 -109 30 -133 80 -7 16 -18 37 -23 47 -20 39 36 141 94
171 39 20 105 15 143 -10z m-665 -734 c16 -11 38 -41 50 -65 32 -66 22 -123
-30 -175 -52 -52 -109 -62 -175 -30 -54 26 -82 63 -91 119 -5 32 -3 46 11 61
9 10 14 23 11 28 -8 13 38 60 76 78 42 18 110 11 148 -16z"/>
<path d="M1793 2273 c-7 -2 -13 -9 -13 -15 0 -6 6 -6 15 2 8 7 22 10 30 6 22
-8 18 -35 -6 -44 -20 -8 -20 -9 6 -20 28 -13 29 -29 2 -46 -12 -8 -21 -5 -36
8 -12 11 -21 14 -21 9 0 -18 28 -35 51 -31 30 4 47 33 33 55 -8 13 -8 23 -1
35 20 31 -20 58 -60 41z"/>
<path d="M153 2213 c-7 -2 -13 -11 -13 -20 0 -12 2 -12 16 2 20 20 38 15 42
-11 2 -12 -11 -33 -33 -54 -19 -18 -35 -38 -35 -42 0 -4 21 -7 48 -6 43 1 44
2 10 5 -46 5 -48 15 -9 43 17 11 33 30 36 41 11 35 -23 58 -62 42z"/>
<path d="M2324 1334 c-16 -13 -16 -15 -1 -10 15 5 17 -2 17 -49 0 -43 -4 -54
-17 -58 -10 -3 2 -5 27 -5 25 0 37 2 28 5 -15 4 -18 16 -18 69 0 68 -4 74 -36
48z"/>
<path d="M450 1033 c-17 -26 -30 -51 -30 -55 0 -4 14 -8 30 -8 20 0 30 -5 30
-15 0 -20 18 -19 22 1 6 31 -4 124 -13 124 -5 0 -23 -21 -39 -47z m30 -18 c0
-31 -3 -35 -25 -35 l-24 0 20 35 c12 19 23 35 25 35 2 0 4 -16 4 -35z"/>
<path d="M1262 967 c-22 -26 -26 -75 -8 -102 27 -41 76 -27 76 21 0 28 -24 48
-50 41 -24 -6 -27 15 -5 33 12 10 18 10 32 -1 14 -12 16 -12 11 1 -6 20 -42
24 -56 7z m52 -69 c16 -26 -16 -57 -38 -38 -17 13 -21 42 -9 54 11 11 35 3 47
-16z"/>
<path d="M568 215 c-4 -34 -3 -35 22 -30 35 8 56 -15 40 -44 -11 -22 -35 -28
-45 -11 -3 6 -11 10 -18 10 -6 0 -4 -7 6 -17 13 -13 23 -15 44 -7 51 17 37 91
-14 81 -20 -4 -24 -1 -21 17 2 14 13 23 33 27 30 7 29 7 -6 8 -35 1 -37 -1
-41 -34z"/>
</g>
</svg>
