<?xml version="1.0" standalone="no"?>
<!DOCTYPE svg PUBLIC "-//W3C//DTD SVG 20010904//EN"
 "http://www.w3.org/TR/2001/REC-SVG-20010904/DTD/svg10.dtd">
<svg version="1.0" xmlns="http://www.w3.org/2000/svg"
 width="237.000000pt" height="181.000000pt" viewBox="0 0 237.000000 181.000000"
 preserveAspectRatio="xMidYMid meet">

<g transform="translate(0.000000,181.000000) scale(0.100000,-0.100000)"
fill="#000000" stroke="none">
<path d="M1101 1793 c-38 -8 -108 -85 -116 -129 -6 -38 -13 -43 -342 -266
l-336 -227 -26 18 c-65 46 -154 38 -211 -19 -47 -47 -65 -101 -56 -165 9 -60
73 -128 129 -139 27 -5 38 -13 42 -29 3 -12 23 -111 44 -219 l38 -198 -35 -6
c-45 -9 -117 -79 -127 -124 -14 -63 3 -118 49 -165 48 -48 96 -62 167 -50 55
9 123 76 133 129 l7 37 57 -6 c31 -3 244 -19 472 -35 593 -42 538 -34 546 -77
5 -24 22 -51 50 -80 l43 -43 76 0 76 0 43 43 c60 61 72 128 35 204 -11 23 -19
47 -17 51 1 5 84 122 183 260 164 229 183 251 215 257 44 9 83 37 109 79 16
26 21 50 21 105 0 71 0 72 -43 115 -61 60 -128 72 -204 35 -23 -11 -47 -19
-52 -17 -6 1 -174 113 -375 248 -359 241 -365 246 -371 284 -5 27 -20 52 -49
81 -51 50 -96 63 -175 48z m135 -40 c84 -55 94 -173 20 -247 -59 -58 -143 -58
-202 0 -39 39 -58 99 -48 151 8 41 69 109 106 116 36 8 97 -2 124 -20z m-246
-182 c0 -9 7 -26 15 -37 8 -10 14 -26 15 -34 0 -8 -56 -114 -124 -235 -145
-257 -102 -231 -363 -220 -122 5 -173 11 -173 19 0 6 -9 29 -20 51 -15 30 -17
41 -7 47 6 4 154 103 327 221 173 118 318 213 323 210 4 -2 7 -12 7 -22z
m1013 -423 c55 -38 58 -41 44 -61 -8 -12 -18 -37 -21 -55 l-8 -32 -231 6
c-128 3 -254 9 -281 13 l-48 6 -88 235 -87 235 18 35 c10 19 20 43 23 53 5 15
57 -16 313 -189 170 -114 334 -225 366 -246z m-848 298 c40 0 69 5 85 17 l26
17 83 -226 c46 -124 81 -227 78 -231 -7 -7 -615 12 -623 19 -3 3 50 103 117
222 l121 217 27 -18 c18 -12 45 -17 86 -17z m-884 -276 c43 -32 73 -102 64
-156 -12 -85 -99 -145 -185 -128 -51 11 -107 73 -115 128 -12 74 41 160 110
179 33 9 96 -3 126 -23z m1969 -27 c45 -8 105 -71 114 -116 16 -88 -45 -180
-128 -192 -97 -15 -180 60 -180 160 0 63 26 104 86 134 47 23 59 24 108 14z
m-1491 -129 c2 -2 -112 -217 -124 -232 -3 -3 -285 136 -295 145 -2 2 1 12 7
21 6 10 14 32 18 50 l7 33 191 -7 c106 -3 194 -8 196 -10z m441 -10 l255 -6
51 -139 51 -139 -96 -29 c-53 -16 -165 -50 -248 -76 l-153 -46 -200 97 c-110
54 -200 101 -200 106 0 5 30 63 67 129 l66 121 76 -6 c42 -3 191 -8 331 -12z
m663 -20 l167 -6 6 -27 c4 -14 13 -37 21 -49 8 -13 13 -25 11 -26 -15 -13
-483 -145 -489 -139 -6 6 -99 249 -99 259 0 2 45 0 383 -12z m-1392 -149 c82
-42 148 -79 146 -83 -2 -4 -50 -89 -107 -190 -99 -177 -103 -182 -124 -169
-12 8 -36 18 -54 21 -21 5 -34 15 -37 29 -3 12 -23 111 -44 220 l-38 197 26 7
c14 3 37 14 51 24 14 10 26 19 28 19 1 0 70 -34 153 -75z m1561 -245 c-223
-310 -199 -282 -225 -268 -12 7 -37 17 -56 23 -34 10 -36 14 -99 183 -35 95
-63 175 -61 177 2 2 114 37 248 77 l245 74 51 -25 52 -26 -155 -215z m-1020
-32 c-9 -8 -566 -177 -570 -173 -2 2 42 84 98 183 l101 180 189 -91 c103 -51
185 -95 182 -99z m616 -29 c63 -170 66 -188 29 -189 -5 0 -21 -8 -35 -19 l-27
-19 -253 127 -253 126 233 72 c128 39 235 71 238 72 3 1 34 -76 68 -170z
m-305 -115 c138 -69 253 -127 254 -128 2 -1 -6 -20 -17 -41 -11 -22 -20 -45
-20 -53 0 -10 -13 -12 -57 -7 -32 3 -245 19 -473 35 -525 37 -540 39 -540 53
0 7 -8 28 -19 48 l-19 35 297 91 c163 50 306 91 319 92 12 0 136 -56 275 -125z
m-938 -48 c132 -101 35 -301 -131 -270 -54 10 -111 71 -119 127 -11 72 41 152
110 170 39 11 108 -3 140 -27z m1415 -66 c16 -11 38 -41 50 -65 32 -66 22
-123 -30 -175 -70 -70 -167 -62 -228 17 -54 72 -24 194 59 237 42 21 109 15
149 -14z"/>
<path d="M1123 1693 c-7 -2 -13 -11 -13 -20 0 -12 2 -12 16 2 20 20 38 15 42
-11 2 -12 -11 -33 -33 -54 -19 -18 -35 -38 -35 -42 0 -4 21 -7 48 -6 43 1 44
2 10 5 -46 5 -48 15 -9 43 17 11 33 30 36 41 11 35 -23 58 -62 42z"/>
<path d="M154 1104 c-16 -13 -16 -15 -1 -10 15 5 17 -2 17 -49 0 -43 -4 -54
-17 -58 -10 -3 2 -5 27 -5 25 0 37 2 28 5 -15 4 -18 16 -18 69 0 68 -4 74 -36
48z"/>
<path d="M2173 1063 c-7 -2 -13 -9 -13 -15 0 -6 6 -6 15 2 8 7 22 10 30 6 22
-8 18 -35 -6 -44 -20 -8 -20 -9 6 -20 28 -13 29 -29 2 -46 -12 -8 -21 -5 -36
8 -12 11 -21 14 -21 9 0 -18 28 -35 51 -31 30 4 47 33 33 55 -8 13 -8 23 -1
35 20 31 -20 58 -60 41z"/>
<path d="M250 283 c-17 -26 -30 -51 -30 -55 0 -4 14 -8 30 -8 20 0 30 -5 30
-15 0 -20 18 -19 22 1 6 31 -4 124 -13 124 -5 0 -23 -21 -39 -47z m30 -18 c0
-31 -3 -35 -25 -35 l-24 0 20 35 c12 19 23 35 25 35 2 0 4 -16 4 -35z"/>
<path d="M1658 215 c-4 -34 -3 -35 22 -30 35 8 56 -15 40 -44 -11 -22 -35 -28
-45 -11 -3 6 -11 10 -18 10 -6 0 -4 -7 6 -17 13 -13 23 -15 44 -7 51 17 37 91
-14 81 -20 -4 -24 -1 -21 17 2 14 13 23 33 27 30 7 29 7 -6 8 -35 1 -37 -1
-41 -34z"/>
</g>
</svg>
