<?xml version="1.0" standalone="no"?>
<!DOCTYPE svg PUBLIC "-//W3C//DTD SVG 20010904//EN"
 "http://www.w3.org/TR/2001/REC-SVG-20010904/DTD/svg10.dtd">
<svg version="1.0" xmlns="http://www.w3.org/2000/svg"
 width="439.000000pt" height="199.000000pt" viewBox="0 0 439.000000 199.000000"
 preserveAspectRatio="xMidYMid meet">

<g transform="translate(0.000000,199.000000) scale(0.100000,-0.100000)"
fill="#000000" stroke="none">
<path d="M2462 1959 c-49 -25 -87 -70 -97 -116 -5 -24 -13 -33 -33 -37 -15 -3
-367 -53 -782 -111 -415 -58 -765 -107 -777 -110 -17 -4 -23 1 -28 26 -4 18
-26 51 -50 75 -46 46 -102 63 -163 49 -46 -10 -106 -58 -127 -100 -21 -46 -15
-122 13 -163 l19 -27 -125 -282 -125 -282 -39 -6 c-50 -9 -112 -68 -129 -123
-20 -68 -5 -127 46 -177 33 -34 53 -45 87 -50 45 -7 122 8 133 25 3 6 13 10
21 10 13 0 394 -238 422 -264 9 -9 8 -20 -8 -51 -36 -71 -24 -142 36 -202 l43
-43 76 0 76 0 43 43 c28 28 45 56 50 79 6 34 9 37 54 42 26 4 486 49 1022 101
536 52 994 97 1018 100 41 6 42 6 49 -26 10 -51 81 -116 135 -124 100 -15 200
50 213 138 7 48 3 74 -22 123 l-16 31 298 539 c163 297 300 542 304 546 4 5
25 -1 46 -12 71 -36 142 -24 202 36 l43 43 0 81 0 81 -44 43 c-51 52 -110 67
-178 47 -53 -16 -113 -78 -122 -126 l-7 -37 -102 6 c-56 4 -304 15 -552 26
-247 11 -498 22 -557 26 l-107 6 -7 36 c-9 46 -78 116 -123 125 -55 11 -84 8
-129 -14z m118 -6 c45 -8 105 -71 114 -116 16 -88 -45 -180 -128 -192 -97 -15
-180 60 -180 160 0 63 26 104 86 134 47 23 59 24 108 14z m1680 -60 c45 -8
105 -71 114 -117 11 -59 -3 -105 -45 -147 -51 -51 -109 -61 -174 -29 -64 31
-90 71 -90 140 0 68 26 108 87 139 47 23 59 24 108 14z m-1894 -130 c4 -16 14
-40 23 -56 15 -27 14 -31 -136 -331 -146 -293 -153 -304 -185 -311 -18 -4 -44
-15 -58 -25 -25 -17 -34 -14 -662 199 -617 209 -637 217 -624 236 7 11 17 35
20 53 4 17 8 32 9 32 1 1 360 52 797 114 437 63 798 114 802 115 4 0 11 -11
14 -26z m1009 -3 c696 -30 662 -27 670 -59 3 -14 13 -40 22 -57 l16 -31 -298
-539 c-163 -296 -301 -543 -305 -547 -4 -5 -21 -1 -36 10 -37 24 -138 25 -175
0 l-25 -17 -286 579 c-256 519 -285 582 -272 598 7 10 19 35 24 56 l11 39 102
-6 c56 -4 305 -15 552 -26z m-2710 -74 c77 -59 84 -157 15 -226 -52 -52 -109
-62 -175 -30 -62 30 -89 71 -90 134 0 63 27 105 87 135 53 27 117 22 163 -13z
m1810 -50 c46 -21 119 -17 158 8 l23 16 286 -578 c282 -572 285 -579 268 -603
-9 -13 -20 -37 -24 -52 l-7 -28 -68 38 c-37 21 -237 133 -443 248 l-375 210
-11 42 c-14 50 -71 111 -113 120 -16 3 -32 9 -34 14 -7 10 283 592 293 587 4
-2 25 -12 47 -22z m-1020 -456 c281 -95 511 -174 512 -175 2 -1 -6 -19 -17
-40 -11 -22 -20 -46 -20 -55 0 -9 -187 -134 -467 -312 -466 -296 -466 -297
-491 -280 -14 9 -39 22 -56 27 -29 10 -30 15 -177 515 -82 278 -148 511 -149
517 0 7 12 16 28 19 15 4 38 15 51 24 24 17 29 16 150 -25 69 -23 356 -120
636 -215z m-979 240 c5 -5 27 -16 48 -23 l39 -13 148 -505 c82 -277 148 -509
149 -516 0 -6 -10 -15 -22 -18 -13 -4 -37 -13 -54 -22 l-30 -15 -145 92 c-79
51 -175 113 -212 137 l-69 44 17 25 c59 90 3 234 -103 264 -15 4 -26 12 -24
19 5 26 236 541 242 541 3 0 10 -4 16 -10z m1720 -401 c47 -29 78 -98 69 -155
-12 -83 -104 -144 -192 -128 -54 10 -110 71 -118 128 -12 74 41 160 110 179
33 9 97 -3 131 -24z m-241 -219 c7 -14 30 -38 50 -55 32 -26 45 -30 100 -30
54 0 69 4 105 30 40 28 57 51 76 102 9 21 28 12 431 -215 232 -130 419 -239
415 -243 -4 -3 -459 -50 -1012 -103 -553 -53 -1020 -100 -1037 -103 -24 -4
-33 -1 -33 9 0 7 -9 31 -20 53 -15 30 -17 41 -7 46 6 4 212 136 457 292 416
266 446 284 454 263 4 -11 14 -32 21 -46z m-1679 29 c47 -29 78 -98 69 -155
-12 -83 -104 -144 -192 -128 -54 10 -110 71 -118 128 -12 74 41 160 110 179
33 9 97 -3 131 -24z m3127 -300 c112 -31 150 -165 71 -245 -66 -66 -160 -68
-224 -4 -64 64 -64 146 1 211 47 47 85 57 152 38z m-2442 -229 c43 -32 73
-102 64 -156 -12 -85 -99 -145 -185 -128 -51 11 -107 73 -115 128 -12 74 41
160 110 179 33 9 96 -3 126 -23z"/>
<path d="M2488 1845 c-4 -34 -3 -35 22 -30 35 8 56 -15 40 -44 -11 -22 -35
-28 -45 -11 -3 6 -11 10 -18 10 -6 0 -4 -7 6 -17 13 -13 23 -15 44 -7 51 17
37 91 -14 81 -20 -4 -24 -1 -21 17 2 14 13 23 33 27 30 7 29 7 -6 8 -35 1 -37
-1 -41 -34z"/>
<path d="M4192 1807 c-22 -26 -26 -75 -8 -102 27 -41 76 -27 76 21 0 28 -24
48 -50 41 -24 -6 -27 15 -5 33 12 10 18 10 32 -1 14 -12 16 -12 11 1 -6 20
-42 24 -56 7z m52 -69 c16 -26 -16 -57 -38 -38 -17 13 -21 42 -9 54 11 11 35
3 47 -16z"/>
<path d="M544 1634 c-16 -13 -16 -15 -1 -10 15 5 17 -2 17 -49 0 -43 -4 -54
-17 -58 -10 -3 2 -5 27 -5 25 0 37 2 28 5 -15 4 -18 16 -18 69 0 68 -4 74 -36
48z"/>
<path d="M2073 963 c-7 -2 -13 -9 -13 -15 0 -6 6 -6 15 2 8 7 22 10 30 6 22
-8 18 -35 -6 -44 -20 -8 -20 -9 6 -20 28 -13 29 -29 2 -46 -12 -8 -21 -5 -36
8 -12 11 -21 14 -21 9 0 -18 28 -35 51 -31 30 4 47 33 33 55 -8 13 -8 23 -1
35 20 31 -20 58 -60 41z"/>
<path d="M160 733 c-17 -26 -30 -51 -30 -55 0 -4 14 -8 30 -8 20 0 30 -5 30
-15 0 -20 18 -19 22 1 6 31 -4 124 -13 124 -5 0 -23 -21 -39 -47z m30 -18 c0
-31 -3 -35 -25 -35 l-24 0 20 35 c12 19 23 35 25 35 2 0 4 -16 4 -35z"/>
<path d="M3333 453 c20 -2 37 -6 37 -8 0 -1 -9 -22 -20 -46 -11 -24 -20 -53
-20 -64 0 -11 12 7 26 40 14 33 28 66 31 73 4 9 -8 12 -43 10 -44 -1 -45 -2
-11 -5z"/>
<path d="M843 243 c-7 -2 -13 -11 -13 -20 0 -12 2 -12 16 2 20 20 38 15 42
-11 2 -12 -11 -33 -33 -54 -19 -18 -35 -38 -35 -42 0 -4 21 -7 48 -6 43 1 44
2 10 5 -46 5 -48 15 -9 43 17 11 33 30 36 41 11 35 -23 58 -62 42z"/>
</g>
</svg>
