<?xml version="1.0" standalone="no"?>
<!DOCTYPE svg PUBLIC "-//W3C//DTD SVG 20010904//EN"
 "http://www.w3.org/TR/2001/REC-SVG-20010904/DTD/svg10.dtd">
<svg version="1.0" xmlns="http://www.w3.org/2000/svg"
 width="252.000000pt" height="239.000000pt" viewBox="0 0 252.000000 239.000000"
 preserveAspectRatio="xMidYMid meet">

<g transform="translate(0.000000,239.000000) scale(0.100000,-0.100000)"
fill="#000000" stroke="none">
<path d="M1742 2359 c-24 -12 -55 -37 -70 -57 -23 -30 -27 -46 -27 -97 0 -42
6 -69 18 -89 l19 -28 -94 6 c-51 4 -300 15 -553 26 -253 11 -506 23 -562 26
l-103 6 -6 36 c-9 47 -71 108 -125 122 -70 19 -124 5 -174 -44 -74 -75 -74
-177 0 -251 61 -61 141 -71 217 -27 18 10 31 13 37 7 24 -28 818 -943 830
-958 11 -14 11 -21 -5 -44 -26 -39 -26 -147 0 -186 18 -27 18 -28 0 -49 -15
-18 -338 -380 -389 -436 -11 -12 -17 -12 -36 -1 -13 8 -39 18 -58 24 l-34 10
-64 224 c-35 123 -62 230 -59 237 3 8 15 14 26 14 34 0 107 81 115 129 12 71
-2 119 -50 166 -73 73 -167 73 -241 0 -47 -47 -61 -95 -49 -166 9 -54 73 -120
129 -134 l39 -10 63 -220 c35 -121 64 -225 64 -230 0 -6 -23 -20 -50 -33 -72
-33 -105 -86 -105 -166 0 -110 63 -166 184 -166 71 0 72 0 115 43 61 61 72
128 35 204 -21 43 -21 44 -3 66 15 16 325 365 389 435 10 11 20 9 54 -9 76
-39 168 -13 223 64 29 41 32 147 6 187 l-17 26 364 117 c201 65 369 116 375
112 5 -3 10 -15 10 -26 0 -28 73 -96 118 -110 68 -20 127 -5 178 47 l44 43 0
76 0 76 -43 43 c-60 60 -131 72 -202 36 -21 -11 -42 -17 -47 -12 -4 4 -92 140
-196 302 -178 277 -189 296 -168 304 51 20 73 37 101 76 26 36 30 51 30 103 0
49 -5 69 -23 94 -55 78 -150 103 -230 62z m118 -6 c45 -8 105 -71 114 -116 16
-88 -45 -180 -128 -192 -97 -15 -180 60 -180 160 0 63 26 104 86 134 47 23 59
24 108 14z m-1627 -64 c113 -31 152 -173 71 -255 -67 -66 -160 -68 -224 -4
-65 65 -65 155 1 221 47 47 85 57 152 38z m899 -194 c552 -25 558 -26 604 -50
26 -14 54 -25 63 -25 10 0 91 -119 215 -312 l199 -311 -16 -31 c-9 -17 -19
-41 -22 -54 -5 -16 -12 -22 -23 -18 -10 4 -423 169 -919 368 -876 352 -902
363 -889 383 7 11 17 35 21 54 l7 33 101 -6 c56 -4 353 -18 659 -31z m119
-464 c492 -198 887 -362 879 -365 -8 -3 -172 -57 -365 -119 l-350 -114 -27 19
c-44 31 -119 35 -169 9 -23 -12 -45 -19 -49 -14 -106 119 -819 943 -817 943 2
0 406 -162 898 -359z m1184 -227 c85 -56 96 -163 24 -235 -51 -51 -109 -61
-174 -29 -62 30 -89 71 -89 135 0 63 26 104 86 134 49 25 111 23 153 -5z
m-1879 -271 c85 -55 96 -171 24 -243 -64 -64 -146 -64 -210 0 -65 65 -65 155
1 221 20 20 48 40 61 42 36 8 97 -2 124 -20z m774 -80 c45 -8 105 -71 114
-117 11 -59 -3 -105 -45 -147 -69 -69 -166 -61 -227 19 -38 50 -38 134 0 184
27 35 79 67 109 68 9 0 31 -3 49 -7z m-620 -753 c16 -11 38 -41 50 -65 32 -66
22 -123 -30 -175 -52 -52 -109 -62 -175 -30 -86 42 -116 128 -73 209 46 86
153 114 228 61z"/>
<path d="M1793 2273 c-7 -2 -13 -9 -13 -15 0 -6 6 -6 15 2 8 7 22 10 30 6 22
-8 18 -35 -6 -44 -20 -8 -20 -9 6 -20 28 -13 29 -29 2 -46 -12 -8 -21 -5 -36
8 -12 11 -21 14 -21 9 0 -18 28 -35 51 -31 30 4 47 33 33 55 -8 13 -8 23 -1
35 20 31 -20 58 -60 41z"/>
<path d="M153 2213 c-7 -2 -13 -11 -13 -20 0 -12 2 -12 16 2 20 20 38 15 42
-11 2 -12 -11 -33 -33 -54 -19 -18 -35 -38 -35 -42 0 -4 21 -7 48 -6 43 1 44
2 10 5 -46 5 -48 15 -9 43 17 11 33 30 36 41 11 35 -23 58 -62 42z"/>
<path d="M2324 1334 c-16 -13 -16 -15 -1 -10 15 5 17 -2 17 -49 0 -43 -4 -54
-17 -58 -10 -3 2 -5 27 -5 25 0 37 2 28 5 -15 4 -18 16 -18 69 0 68 -4 74 -36
48z"/>
<path d="M450 1033 c-17 -26 -30 -51 -30 -55 0 -4 14 -8 30 -8 20 0 30 -5 30
-15 0 -20 18 -19 22 1 6 31 -4 124 -13 124 -5 0 -23 -21 -39 -47z m30 -18 c0
-31 -3 -35 -25 -35 l-24 0 20 35 c12 19 23 35 25 35 2 0 4 -16 4 -35z"/>
<path d="M1262 967 c-22 -26 -26 -75 -8 -102 27 -41 76 -27 76 21 0 28 -24 48
-50 41 -24 -6 -27 15 -5 33 12 10 18 10 32 -1 14 -12 16 -12 11 1 -6 20 -42
24 -56 7z m52 -69 c16 -26 -16 -57 -38 -38 -17 13 -21 42 -9 54 11 11 35 3 47
-16z"/>
<path d="M568 215 c-4 -34 -3 -35 22 -30 35 8 56 -15 40 -44 -11 -22 -35 -28
-45 -11 -3 6 -11 10 -18 10 -6 0 -4 -7 6 -17 13 -13 23 -15 44 -7 51 17 37 91
-14 81 -20 -4 -24 -1 -21 17 2 14 13 23 33 27 30 7 29 7 -6 8 -35 1 -37 -1
-41 -34z"/>
</g>
</svg>
