<?xml version="1.0" standalone="no"?>
<!DOCTYPE svg PUBLIC "-//W3C//DTD SVG 20010904//EN"
 "http://www.w3.org/TR/2001/REC-SVG-20010904/DTD/svg10.dtd">
<svg version="1.0" xmlns="http://www.w3.org/2000/svg"
 width="248.000000pt" height="166.000000pt" viewBox="0 0 248.000000 166.000000"
 preserveAspectRatio="xMidYMid meet">

<g transform="translate(0.000000,166.000000) scale(0.100000,-0.100000)"
fill="#000000" stroke="none">
<path d="M2232 1629 c-24 -12 -55 -37 -70 -57 -23 -30 -27 -45 -27 -96 0 -42
6 -71 20 -93 10 -18 17 -34 14 -36 -2 -2 -128 -103 -280 -224 l-275 -220 -160
180 c-215 245 -200 224 -182 256 44 75 34 156 -27 217 -50 50 -110 65 -177 45
-53 -16 -113 -78 -122 -126 l-7 -38 -211 6 c-116 4 -244 7 -283 7 l-72 0 -12
40 c-25 85 -116 139 -209 125 -32 -5 -53 -16 -82 -45 -47 -47 -65 -101 -56
-165 10 -62 74 -129 132 -140 38 -6 49 -20 351 -426 l313 -420 -32 -6 c-41 -8
-114 -81 -123 -123 -4 -17 -4 -52 0 -77 9 -63 74 -129 137 -138 150 -23 265
122 198 248 l-21 38 23 19 c13 10 156 124 318 254 162 130 298 235 302 233 5
-2 458 -511 497 -560 11 -14 10 -23 -8 -60 -37 -76 -25 -143 35 -204 l43 -43
76 0 76 0 43 44 c52 51 67 110 47 178 -15 48 -77 113 -118 121 l-30 6 83 496
c64 382 87 503 103 529 16 26 21 50 21 105 0 71 0 72 -43 115 -61 61 -129 72
-205 35z m118 -6 c45 -8 105 -71 114 -116 16 -88 -45 -180 -128 -192 -97 -15
-180 60 -180 160 0 63 26 104 86 134 47 23 59 24 108 14z m-2074 -54 c47 -29
78 -98 69 -155 -12 -83 -104 -144 -192 -128 -54 10 -110 71 -118 128 -12 74
41 160 110 179 33 9 97 -3 131 -24z m884 14 c45 -8 105 -71 114 -116 16 -88
-45 -180 -128 -192 -97 -15 -180 60 -180 160 0 63 26 104 86 134 47 23 59 24
108 14z m-294 -163 l73 0 10 -35 c24 -86 104 -142 191 -132 27 3 61 14 75 23
15 10 29 13 34 8 99 -108 341 -389 339 -395 -6 -14 -631 -509 -644 -509 -7 0
-16 5 -19 10 -3 6 -25 15 -48 21 -41 10 -53 25 -350 424 -170 228 -308 418
-308 422 1 4 15 12 31 16 45 11 106 77 114 122 l7 38 211 -6 c116 -4 244 -7
284 -7z m1372 -111 c34 -17 54 -20 94 -16 28 4 56 12 64 18 11 9 14 9 14 0 0
-13 -147 -904 -155 -938 -3 -14 -16 -24 -37 -29 -18 -3 -43 -13 -56 -22 -13
-9 -26 -11 -31 -6 -12 13 -472 536 -488 555 -12 15 16 40 263 238 152 121 279
221 282 221 3 0 25 -10 50 -21z m-1317 -944 c78 -51 89 -154 23 -220 -67 -67
-160 -69 -225 -4 -48 48 -60 108 -34 163 18 38 65 80 100 89 36 10 99 -3 136
-28z m1420 -65 c43 -32 73 -102 64 -156 -12 -85 -99 -145 -185 -128 -51 11
-107 73 -115 128 -12 74 41 160 110 179 33 9 96 -3 126 -23z"/>
<path d="M2283 1543 c-7 -2 -13 -11 -13 -20 0 -12 2 -12 16 2 20 20 38 15 42
-11 2 -12 -11 -33 -33 -54 -19 -18 -35 -38 -35 -42 0 -4 21 -7 48 -6 43 1 44
2 10 5 -46 5 -48 15 -9 43 17 11 33 30 36 41 11 35 -23 58 -62 42z"/>
<path d="M153 1513 c-7 -2 -13 -9 -13 -15 0 -6 6 -6 15 2 8 7 22 10 30 6 22
-8 18 -35 -6 -44 -20 -8 -20 -9 6 -20 28 -13 29 -29 2 -46 -12 -8 -21 -5 -36
8 -12 11 -21 14 -21 9 0 -18 28 -35 51 -31 30 4 47 33 33 55 -8 13 -8 23 -1
35 20 31 -20 58 -60 41z"/>
<path d="M1084 1494 c-16 -13 -16 -15 -1 -10 15 5 17 -2 17 -49 0 -43 -4 -54
-17 -58 -10 -3 2 -5 27 -5 25 0 37 2 28 5 -15 4 -18 16 -18 69 0 68 -4 74 -36
48z"/>
<path d="M800 283 c-17 -26 -30 -51 -30 -55 0 -4 14 -8 30 -8 20 0 30 -5 30
-15 0 -20 18 -19 22 1 6 31 -4 124 -13 124 -5 0 -23 -21 -39 -47z m30 -18 c0
-31 -3 -35 -25 -35 l-24 0 20 35 c12 19 23 35 25 35 2 0 4 -16 4 -35z"/>
<path d="M2208 215 c-4 -34 -3 -35 22 -30 35 8 56 -15 40 -44 -11 -22 -35 -28
-45 -11 -3 6 -11 10 -18 10 -6 0 -4 -7 6 -17 13 -13 23 -15 44 -7 51 17 37 91
-14 81 -20 -4 -24 -1 -21 17 2 14 13 23 33 27 30 7 29 7 -6 8 -35 1 -37 -1
-41 -34z"/>
</g>
</svg>
