<?xml version="1.0" standalone="no"?>
<!DOCTYPE svg PUBLIC "-//W3C//DTD SVG 20010904//EN"
 "http://www.w3.org/TR/2001/REC-SVG-20010904/DTD/svg10.dtd">
<svg version="1.0" xmlns="http://www.w3.org/2000/svg"
 width="252.000000pt" height="159.000000pt" viewBox="0 0 252.000000 159.000000"
 preserveAspectRatio="xMidYMid meet">

<g transform="translate(0.000000,159.000000) scale(0.100000,-0.100000)"
fill="#000000" stroke="none">
<path d="M131 1573 c-38 -8 -107 -84 -115 -128 -13 -66 2 -113 49 -160 60 -60
145 -71 214 -28 21 14 25 13 41 -3 16 -18 796 -908 828 -946 13 -15 12 -22 -7
-61 -37 -76 -26 -143 35 -204 l43 -43 76 0 76 0 43 43 c60 60 72 131 36 202
-11 21 -19 39 -17 41 14 11 729 234 737 229 5 -3 10 -14 10 -23 0 -32 49 -90
95 -112 83 -40 177 -13 224 64 16 26 21 50 21 105 0 71 0 72 -44 115 -51 52
-110 67 -178 47 -44 -13 -118 -81 -118 -109 -1 -50 8 -53 -931 318 -503 199
-916 364 -918 366 -2 2 5 16 15 31 28 42 26 138 -4 180 -43 60 -133 93 -211
76z m102 -24 c112 -31 150 -165 71 -245 -66 -66 -160 -68 -224 -4 -64 64 -64
146 1 211 47 47 85 57 152 38z m1199 -725 c388 -153 704 -281 701 -284 -2 -3
-165 -57 -361 -121 l-357 -116 -27 19 c-44 31 -119 35 -169 9 -34 -18 -44 -20
-54 -9 -72 79 -805 918 -805 922 0 2 82 -28 183 -68 100 -40 500 -198 889
-352z m958 -131 c45 -8 105 -71 114 -116 16 -88 -45 -180 -128 -192 -97 -15
-180 60 -180 160 0 63 26 104 86 134 47 23 59 24 108 14z m-1010 -393 c16 -11
38 -41 50 -65 32 -66 22 -123 -30 -175 -70 -70 -167 -62 -228 17 -54 72 -24
194 59 237 42 21 109 15 149 -14z"/>
<path d="M153 1473 c-7 -2 -13 -11 -13 -20 0 -12 2 -12 16 2 20 20 38 15 42
-11 2 -12 -11 -33 -33 -54 -19 -18 -35 -38 -35 -42 0 -4 21 -7 48 -6 43 1 44
2 10 5 -46 5 -48 15 -9 43 17 11 33 30 36 41 11 35 -23 58 -62 42z"/>
<path d="M2324 604 c-16 -13 -16 -15 -1 -10 15 5 17 -2 17 -49 0 -43 -4 -54
-17 -58 -10 -3 2 -5 27 -5 25 0 37 2 28 5 -15 4 -18 16 -18 69 0 68 -4 74 -36
48z"/>
<path d="M1262 237 c-22 -26 -26 -75 -8 -102 27 -41 76 -27 76 21 0 28 -24 48
-50 41 -24 -6 -27 15 -5 33 12 10 18 10 32 -1 14 -12 16 -12 11 1 -6 20 -42
24 -56 7z m52 -69 c16 -26 -16 -57 -38 -38 -17 13 -21 42 -9 54 11 11 35 3 47
-16z"/>
<path d="M422 443 c-35 -7 -99 -76 -113 -121 -20 -67 -5 -127 45 -177 73 -73
168 -73 241 -1 59 60 71 127 34 203 -29 60 -75 93 -135 98 -27 2 -59 1 -72 -2z
m139 -43 c43 -32 73 -102 64 -156 -12 -85 -99 -145 -185 -128 -51 11 -107 73
-115 128 -12 74 41 160 110 179 33 9 96 -3 126 -23z"/>
<path d="M450 303 c-17 -26 -30 -51 -30 -55 0 -4 14 -8 30 -8 20 0 30 -5 30
-15 0 -20 18 -19 22 1 6 31 -4 124 -13 124 -5 0 -23 -21 -39 -47z m30 -18 c0
-31 -3 -35 -25 -35 l-24 0 20 35 c12 19 23 35 25 35 2 0 4 -16 4 -35z"/>
</g>
</svg>
