<?xml version="1.0" standalone="no"?>
<!DOCTYPE svg PUBLIC "-//W3C//DTD SVG 20010904//EN"
 "http://www.w3.org/TR/2001/REC-SVG-20010904/DTD/svg10.dtd">
<svg version="1.0" xmlns="http://www.w3.org/2000/svg"
 width="222.000000pt" height="270.000000pt" viewBox="0 0 222.000000 270.000000"
 preserveAspectRatio="xMidYMid meet">

<g transform="translate(0.000000,270.000000) scale(0.100000,-0.100000)"
fill="#000000" stroke="none">
<path d="M1040 2689 c-85 -36 -123 -135 -85 -225 l14 -35 -65 -32 c-61 -30
-64 -32 -37 -37 21 -4 29 -12 33 -34 5 -29 6 -28 43 32 l38 61 35 -21 c47 -27
122 -27 167 1 l33 20 24 -47 c17 -34 25 -42 28 -29 2 10 8 17 12 15 5 -2 146
-129 313 -282 l303 -279 -18 -36 c-10 -19 -18 -41 -18 -48 0 -17 -14 -16 -74
2 -65 20 -73 19 -51 -5 l18 -20 -716 2 -717 3 -6 -30 c-14 -65 -55 -109 -119
-126 l-30 -8 30 3 c17 2 37 6 45 9 11 5 122 -146 428 -586 258 -370 408 -593
400 -596 -17 -6 -38 -27 -38 -39 0 -5 -7 -15 -15 -22 -23 -19 -19 -25 30 -38
41 -11 45 -14 35 -31 -18 -35 -12 -115 12 -151 39 -57 72 -75 137 -75 48 0 64
5 95 29 69 52 85 137 41 211 -13 24 -32 46 -42 49 -14 6 -8 16 35 59 58 59 64
71 27 57 l-25 -10 16 33 c139 275 519 997 525 997 5 0 9 -8 9 -17 0 -34 17 3
30 64 l13 62 31 -6 c17 -3 33 -7 35 -9 2 -2 -4 -23 -12 -48 -15 -43 -15 -46 2
-46 16 0 19 -14 24 -122 4 -66 7 -151 7 -187 l0 -66 -45 -19 c-49 -20 -96 -75
-94 -111 0 -14 3 -12 9 9 18 59 83 106 147 106 112 0 187 -122 134 -220 -35
-68 -120 -99 -193 -71 -34 13 -77 60 -87 95 -7 22 -9 25 -10 10 -1 -31 40 -87
79 -106 50 -25 119 -23 160 5 57 38 75 71 75 137 0 50 -4 64 -31 97 -20 25
-46 43 -77 54 -26 8 -49 17 -51 20 -2 2 -7 88 -11 192 -6 169 -5 186 9 181 20
-8 20 -3 1 43 -20 47 -19 50 13 56 93 19 145 155 90 237 -39 57 -72 75 -138
75 -44 0 -65 -5 -87 -21 l-29 -22 -240 222 c-132 121 -272 250 -310 285 -40
37 -64 66 -56 68 22 8 13 21 -23 33 -45 15 -49 23 -30 59 49 97 -22 219 -133
227 -26 2 -58 -1 -72 -7z m134 -22 c132 -75 80 -279 -72 -279 -90 0 -144 50
-150 142 -3 45 0 61 20 90 46 68 131 88 202 47z m916 -845 c19 -9 45 -33 58
-52 20 -29 23 -44 20 -94 -4 -54 -8 -62 -46 -97 -37 -35 -47 -39 -94 -39 -99
0 -162 64 -155 156 8 114 117 177 217 126z m-365 -162 c-10 -11 -16 -20 -14
-20 2 0 36 9 74 20 38 11 71 20 72 20 2 0 3 -8 3 -17 0 -23 38 -84 62 -102 19
-13 18 -16 -34 -68 -49 -52 -51 -55 -25 -51 27 5 26 3 -56 -156 -46 -88 -166
-320 -267 -513 -100 -194 -187 -353 -191 -353 -5 0 -9 8 -9 17 0 34 -17 -3
-30 -63 l-12 -61 -34 7 c-32 8 -89 0 -112 -14 -10 -6 -32 50 -32 83 0 11 -3
11 -16 0 -14 -11 -19 -9 -38 16 -11 16 -197 281 -412 590 l-392 560 24 28 c13
16 27 41 30 55 4 15 9 30 11 35 2 4 322 7 710 7 705 0 706 0 688 -20z m-629
-1344 c31 -21 33 -25 19 -36 -14 -12 -20 -9 -40 16 -41 49 -33 57 21 20z m222
-33 c88 -66 81 -196 -14 -250 -71 -41 -156 -21 -202 47 -43 63 -21 170 43 211
53 33 121 30 173 -8z"/>
<path d="M1060 2599 c0 -6 9 -9 20 -6 18 5 20 0 20 -43 0 -41 -3 -49 -22 -55
-22 -8 -22 -8 4 -12 16 -2 40 -2 55 0 27 4 27 4 6 12 -20 6 -23 14 -23 61 0
53 0 54 -30 54 -16 0 -30 -5 -30 -11z"/>
<path d="M1993 1763 c-26 -10 -12 -19 22 -15 30 4 35 1 35 -16 0 -11 -18 -36
-40 -55 -22 -18 -37 -37 -33 -40 10 -11 103 -8 103 3 0 6 -17 10 -37 10 l-37
0 37 34 c43 39 45 49 15 70 -23 16 -42 19 -65 9z"/>
<path d="M1212 201 c-41 -51 -40 -61 3 -61 24 0 35 -5 35 -15 0 -8 5 -15 10
-15 6 0 10 7 10 15 0 8 8 15 18 15 16 1 16 1 0 11 -12 7 -18 22 -18 49 0 52
-17 52 -58 1z m38 -16 c0 -31 -3 -35 -25 -35 -14 0 -25 2 -25 5 0 7 42 65 47
65 2 0 3 -16 3 -35z"/>
<path d="M625 2114 c-234 -213 -260 -234 -265 -213 -5 21 -9 18 -39 -31 -18
-30 -35 -57 -37 -59 -1 -2 -24 7 -49 19 -85 41 -174 11 -216 -73 -25 -49 -22
-115 8 -156 28 -38 82 -71 112 -70 24 1 23 2 -6 9 -69 16 -111 61 -120 129
-11 83 64 171 146 171 66 0 133 -47 151 -106 6 -21 9 -24 9 -9 1 11 -6 31 -15
43 -9 13 -14 25 -12 27 2 3 33 18 69 34 41 20 56 30 42 31 -13 0 -23 4 -23 9
0 4 115 113 255 240 225 205 263 241 253 241 -2 0 -120 -106 -263 -236z"/>
<path d="M160 1763 c-40 -14 -55 -87 -24 -117 30 -30 94 -10 94 29 0 25 -32
47 -62 43 -15 -3 -28 -2 -28 2 0 15 26 30 53 30 16 0 26 4 22 10 -7 11 -30 12
-55 3z m44 -78 c9 -23 -22 -47 -45 -35 -24 13 -25 36 -2 48 20 12 39 6 47 -13z"/>
<path d="M114 1036 c-17 -8 -44 -31 -60 -52 -24 -31 -29 -47 -29 -95 0 -65 18
-98 75 -136 54 -37 146 -28 196 18 l21 19 347 -241 c191 -133 349 -239 351
-237 2 2 -64 50 -148 108 -83 58 -239 167 -348 242 l-197 137 14 42 c8 23 13
47 11 53 -2 6 -9 -10 -15 -35 -12 -48 -51 -95 -90 -110 -43 -16 -107 -10 -142
14 -68 46 -88 130 -47 201 38 68 129 96 196 61 37 -19 81 -71 82 -98 1 -17 2
-18 6 -4 7 27 -35 86 -78 107 -44 23 -100 25 -145 6z"/>
<path d="M147 963 c-4 -3 -7 -19 -7 -34 0 -25 4 -28 38 -31 29 -2 37 -7 37
-23 0 -16 -8 -21 -37 -23 -45 -4 -51 -22 -7 -22 43 0 69 17 69 45 0 26 -25 45
-59 45 -12 0 -21 7 -21 15 0 10 11 15 35 15 19 0 35 5 35 10 0 11 -73 14 -83
3z"/>
<path d="M2025 961 c-3 -5 9 -11 27 -13 39 -4 46 -31 8 -36 -24 -4 -23 -4 8
-17 45 -19 33 -45 -20 -45 -23 0 -37 -4 -33 -10 16 -26 105 -1 105 30 0 5 -7
16 -16 24 -8 9 -11 16 -5 16 19 0 12 39 -8 50 -24 13 -58 13 -66 1z"/>
</g>
</svg>
