<?xml version="1.0" standalone="no"?>
<!DOCTYPE svg PUBLIC "-//W3C//DTD SVG 20010904//EN"
 "http://www.w3.org/TR/2001/REC-SVG-20010904/DTD/svg10.dtd">
<svg version="1.0" xmlns="http://www.w3.org/2000/svg"
 width="222.000000pt" height="270.000000pt" viewBox="0 0 222.000000 270.000000"
 preserveAspectRatio="xMidYMid meet">

<g transform="translate(0.000000,270.000000) scale(0.100000,-0.100000)"
fill="#000000" stroke="none">
<path d="M1040 2689 c-85 -36 -123 -135 -85 -225 l14 -35 -65 -32 c-61 -30
-64 -32 -37 -37 21 -4 29 -12 33 -34 5 -29 6 -28 43 33 33 53 41 60 54 49 13
-11 11 -16 -21 -43 -30 -25 -34 -32 -21 -40 13 -8 -12 -60 -157 -320 l-173
-310 -152 0 -153 0 -6 -30 c-9 -44 -39 -88 -72 -107 -41 -24 -118 -23 -159 2
-156 95 -29 338 140 266 40 -17 75 -55 87 -92 6 -21 9 -24 9 -9 1 11 -6 31
-15 43 -9 13 -14 25 -12 27 2 3 33 18 69 34 41 20 56 30 42 31 -13 0 -23 4
-23 9 0 4 115 113 255 240 140 128 255 235 255 238 0 4 -10 -3 -22 -14 -516
-468 -502 -456 -508 -432 -5 21 -9 18 -39 -31 -18 -30 -35 -57 -37 -59 -1 -2
-24 7 -49 19 -85 41 -174 11 -216 -73 -25 -49 -22 -115 8 -156 27 -36 81 -71
109 -71 29 0 29 2 4 -84 -18 -64 -18 -67 -1 -52 10 9 21 16 24 16 4 0 7 -54 7
-120 0 -66 -4 -120 -8 -120 -4 0 -14 6 -21 13 -11 10 -13 9 -9 -3 30 -90 39
-122 37 -124 -2 -1 -22 -9 -43 -17 -21 -8 -53 -31 -70 -52 -27 -34 -31 -47
-31 -97 0 -66 18 -99 75 -137 54 -37 146 -28 196 18 l21 19 347 -241 c191
-133 349 -239 351 -237 2 2 -64 50 -148 108 -83 58 -239 167 -348 242 l-197
137 12 35 c7 20 15 38 17 41 3 2 36 -4 73 -15 68 -19 68 -19 51 0 -18 20 -17
20 116 19 l134 0 178 -257 c112 -161 173 -258 165 -261 -17 -6 -38 -27 -38
-39 0 -5 -7 -15 -15 -22 -23 -19 -19 -25 30 -38 41 -11 45 -14 35 -31 -18 -35
-12 -115 12 -151 39 -57 72 -75 137 -75 48 0 64 5 95 29 64 48 83 129 49 201
-9 19 -15 36 -12 38 2 2 113 99 245 215 133 117 245 212 248 212 4 0 4 -11 0
-25 -10 -39 2 -30 42 35 20 33 38 60 38 60 1 0 19 -9 41 -20 54 -27 123 -26
165 3 57 38 75 71 75 137 0 50 -4 64 -31 97 -20 25 -46 43 -77 54 -26 8 -49
17 -51 20 -2 2 -7 88 -11 192 -6 169 -5 186 9 181 20 -8 20 -3 1 43 -20 47
-19 50 13 56 93 19 145 155 90 237 -39 57 -72 75 -138 75 -44 0 -65 -5 -87
-21 l-29 -22 -240 222 c-132 121 -272 250 -310 285 -40 37 -64 66 -56 68 22 8
13 21 -23 33 -45 15 -49 23 -30 59 49 97 -22 219 -133 227 -26 2 -58 -1 -72
-7z m134 -22 c130 -74 80 -277 -69 -279 -89 -2 -147 52 -153 142 -3 45 0 61
20 90 46 68 131 88 202 47z m94 -324 c2 10 8 17 12 15 5 -2 146 -129 313 -282
l303 -279 -18 -36 c-10 -19 -18 -41 -18 -48 0 -17 -14 -16 -74 2 -65 20 -73
19 -51 -5 l19 -21 -80 3 -79 3 -172 295 c-95 162 -173 299 -173 304 0 4 10 6
22 3 15 -4 6 10 -33 49 -44 44 -51 56 -39 64 12 7 20 -1 39 -38 18 -34 26 -42
29 -29z m-174 26 c7 -6 42 -510 45 -656 l1 -23 -250 0 c-137 0 -250 3 -250 6
0 5 300 549 327 592 11 18 18 21 27 12 15 -12 26 14 26 62 0 26 2 27 33 21 17
-3 36 -9 41 -14z m90 -11 c3 -18 11 -50 17 -72 11 -39 12 -40 21 -17 5 14 12
20 17 15 10 -12 341 -583 341 -589 0 -3 -97 -5 -215 -5 l-215 0 -1 23 c0 12
-8 164 -18 337 -10 173 -16 318 -12 322 5 5 26 12 52 17 4 0 9 -13 13 -31z
m906 -536 c19 -9 45 -33 58 -52 20 -29 23 -44 20 -94 -4 -54 -8 -62 -46 -97
-37 -35 -46 -39 -95 -39 -97 0 -163 70 -155 161 11 110 120 171 218 121z
m-1480 -149 c0 -12 -71 -133 -78 -133 -20 0 -205 86 -209 97 -3 7 -3 20 1 28
4 12 30 15 146 15 77 0 140 -3 140 -7z m534 -75 c4 -46 7 -128 9 -183 3 -146
15 -145 -319 -5 -148 62 -273 116 -278 120 -7 7 14 51 61 128 13 22 15 22 267
22 l254 0 6 -82z m487 12 c21 -36 35 -68 31 -71 -9 -8 -475 -209 -484 -209 -3
0 -9 44 -12 98 -4 53 -9 132 -12 175 l-6 77 223 -2 223 -3 37 -65z m94 50
c-10 -11 -16 -20 -14 -20 2 0 36 9 74 20 38 11 71 20 71 20 1 0 4 -11 6 -25 5
-26 5 -26 -97 -41 -50 -7 -50 -7 -21 -19 l28 -12 -42 -17 c-23 -9 -45 -14 -50
-11 -10 6 -70 108 -70 119 0 3 30 6 67 6 65 0 66 0 48 -20z m-1267 -102 c39
-16 72 -31 72 -32 0 -2 -24 -46 -53 -99 -62 -112 -47 -116 -149 33 l-66 95 26
32 c26 31 26 31 62 17 19 -9 68 -29 108 -46z m1448 20 l33 -33 -52 -54 c-48
-49 -50 -53 -25 -49 l27 5 -35 -70 -35 -69 -65 112 c-36 62 -64 113 -62 115 7
6 68 35 73 35 4 0 3 -9 0 -20 -9 -29 4 -24 55 20 25 22 47 40 49 40 2 0 19
-15 37 -32z m-1581 -129 c39 -56 74 -109 79 -119 6 -13 -4 -41 -39 -104 -43
-80 -65 -99 -65 -58 -1 29 -15 -7 -29 -71 l-13 -58 -31 7 c-18 3 -34 8 -36 10
-2 2 4 30 13 62 21 74 20 79 -4 57 -20 -18 -20 -17 -20 110 0 127 0 128 20
110 20 -18 20 -18 5 31 -30 96 -30 98 7 110 18 6 35 12 38 12 3 1 37 -44 75
-99z m1694 75 c2 -2 -4 -23 -12 -48 -15 -43 -15 -46 2 -46 16 0 19 -14 24
-122 4 -66 7 -151 7 -187 0 -64 -1 -67 -29 -78 -29 -11 -30 -10 -36 31 -9 52
-14 59 -29 47 -9 -8 -26 12 -64 79 -29 49 -52 94 -52 100 0 18 62 130 71 130
5 0 9 -8 9 -17 0 -34 17 3 30 64 l13 62 31 -6 c17 -3 33 -7 35 -9z m-275 -107
c36 -63 66 -117 66 -120 0 -4 -28 -60 -63 -126 l-63 -119 -254 107 c-232 98
-255 110 -255 131 0 22 24 34 245 131 135 60 248 108 252 108 3 1 36 -50 72
-112z m-921 -13 c141 -59 257 -111 257 -114 0 -13 -480 -214 -489 -204 -9 10
-144 203 -155 222 -4 7 8 40 30 80 62 113 76 133 88 129 6 -3 127 -53 269
-113z m335 -124 c-2 -6 -8 -6 -18 0 -13 9 -13 11 0 20 15 10 25 0 18 -20z
m-649 -95 l80 -115 -37 -16 c-20 -9 -54 -23 -75 -31 -21 -9 -36 -18 -33 -20 2
-2 37 10 76 27 40 17 76 28 80 23 4 -4 31 -42 59 -83 l52 -75 -122 -3 c-67 -1
-124 0 -127 3 -3 3 3 14 12 24 18 20 17 20 -46 0 -34 -10 -70 -19 -79 -19 -11
0 -16 -10 -17 -30 -2 -70 -60 -122 -142 -128 -45 -3 -61 0 -89 20 -69 47 -89
131 -48 202 64 113 231 95 275 -29 9 -25 11 -26 11 -8 1 19 9 22 59 28 57 7
106 24 71 25 -27 0 -42 25 -29 49 16 32 2 26 -55 -23 l-51 -44 -30 33 -30 34
48 48 c54 53 60 67 22 53 -24 -10 -23 -6 23 80 26 49 51 90 55 90 3 0 43 -52
87 -115z m641 75 c15 -15 20 -33 20 -73 0 -30 3 -109 7 -176 l6 -121 -229 2
-229 3 -57 80 c-32 44 -56 84 -55 88 4 12 468 215 495 216 12 1 31 -8 42 -19z
m723 -64 c26 -46 47 -86 47 -89 0 -3 -8 -7 -17 -9 -13 -2 -7 -11 24 -35 l40
-33 -30 -34 -31 -34 -55 43 c-58 46 -70 50 -51 16 l11 -21 -53 21 c-29 11 -55
23 -58 25 -5 6 112 234 120 234 3 0 26 -38 53 -84z m-447 -46 c132 -56 242
-104 246 -108 4 -4 -11 -40 -33 -79 l-41 -73 -199 0 c-151 0 -201 3 -204 13
-7 21 -20 347 -14 347 4 0 114 -45 245 -100z m363 -156 c3 -2 -4 -10 -14 -18
-17 -12 -11 -14 53 -21 64 -6 72 -9 73 -29 0 -17 3 -15 11 9 44 124 211 142
275 29 41 -71 21 -155 -48 -202 -28 -20 -44 -23 -92 -20 -49 4 -62 9 -92 38
-20 19 -40 48 -45 65 -7 21 -9 23 -6 5 3 -14 7 -34 11 -45 5 -17 -4 -25 -57
-52 -45 -23 -56 -32 -40 -32 13 -1 22 -5 20 -10 -1 -6 -88 -85 -193 -177 -312
-274 -291 -257 -316 -244 -21 12 -20 13 30 64 57 58 63 70 25 56 -23 -9 -12
16 98 230 l123 240 148 0 c81 0 147 3 147 8 0 4 -63 6 -140 4 -77 -2 -140 0
-140 3 0 3 16 37 35 75 l35 69 47 -20 c26 -11 50 -22 52 -25z m-592 -334 c6
-118 9 -217 7 -219 -2 -2 -10 2 -19 9 -19 16 -19 15 5 -55 11 -32 20 -61 20
-64 0 -3 -16 -11 -35 -17 -35 -11 -35 -11 -45 25 -5 20 -10 42 -10 50 0 11 -3
11 -15 1 -10 -8 -19 -9 -24 -4 -14 15 -341 484 -341 489 0 3 100 4 223 3 l222
-3 12 -215z m393 214 c0 -14 -234 -454 -241 -454 -5 0 -9 8 -9 17 0 34 -17 -3
-30 -63 -12 -59 -13 -60 -41 -56 -16 2 -32 8 -34 13 -5 7 7 75 22 124 6 20 5
20 -16 1 -16 -15 -21 -16 -22 -5 0 8 -6 107 -12 222 l-12 207 198 0 c108 0
197 -2 197 -6z m-494 -558 c31 -21 33 -25 19 -36 -14 -12 -20 -9 -40 16 -41
49 -33 57 21 20z m222 -33 c88 -66 81 -196 -14 -250 -71 -41 -156 -21 -202 47
-20 29 -23 45 -20 90 6 81 45 127 118 140 49 8 80 1 118 -27z"/>
<path d="M1060 2599 c0 -6 9 -9 20 -6 18 5 20 0 20 -44 0 -42 -3 -51 -22 -59
-18 -7 -11 -9 32 -9 43 0 50 2 33 9 -20 8 -23 17 -23 65 0 54 0 55 -30 55 -16
0 -30 -5 -30 -11z"/>
<path d="M1993 1763 c-26 -10 -12 -19 22 -15 30 4 35 1 35 -16 0 -11 -18 -36
-40 -55 -22 -18 -37 -37 -33 -40 10 -11 103 -8 103 3 0 6 -17 10 -37 10 l-37
0 37 34 c43 39 45 49 15 70 -23 16 -42 19 -65 9z"/>
<path d="M147 963 c-4 -3 -7 -19 -7 -34 0 -25 4 -28 38 -31 29 -2 37 -7 37
-23 0 -16 -8 -21 -37 -23 -45 -4 -51 -22 -7 -22 43 0 69 17 69 45 0 26 -25 45
-59 45 -12 0 -21 7 -21 15 0 10 11 15 35 15 19 0 35 5 35 10 0 11 -73 14 -83
3z"/>
<path d="M2025 961 c-3 -5 9 -11 27 -13 39 -4 46 -31 8 -36 -24 -4 -23 -4 8
-17 45 -19 33 -45 -20 -45 -23 0 -37 -4 -33 -10 16 -26 105 -1 105 30 0 5 -7
16 -16 24 -8 9 -11 16 -5 16 19 0 12 39 -8 50 -24 13 -58 13 -66 1z"/>
<path d="M1212 201 c-41 -51 -40 -61 3 -61 24 0 35 -5 35 -15 0 -8 5 -15 10
-15 6 0 10 7 10 15 0 8 8 15 18 15 16 1 16 1 0 11 -12 7 -18 22 -18 49 0 52
-17 52 -58 1z m38 -16 c0 -31 -3 -35 -25 -35 -14 0 -25 2 -25 5 0 7 42 65 47
65 2 0 3 -16 3 -35z"/>
<path d="M160 1763 c-40 -14 -55 -87 -24 -117 30 -30 94 -10 94 29 0 25 -32
47 -62 43 -15 -3 -28 -2 -28 2 0 15 26 30 53 30 16 0 26 4 22 10 -7 11 -30 12
-55 3z m44 -78 c9 -23 -22 -47 -45 -35 -24 13 -25 36 -2 48 20 12 39 6 47 -13z"/>
</g>
</svg>
