<?xml version="1.0" standalone="no"?>
<!DOCTYPE svg PUBLIC "-//W3C//DTD SVG 20010904//EN"
 "http://www.w3.org/TR/2001/REC-SVG-20010904/DTD/svg10.dtd">
<svg version="1.0" xmlns="http://www.w3.org/2000/svg"
 width="267.000000pt" height="144.000000pt" viewBox="0 0 267.000000 144.000000"
 preserveAspectRatio="xMidYMid meet">

<g transform="translate(0.000000,144.000000) scale(0.100000,-0.100000)"
fill="#000000" stroke="none">
<path d="M775 1421 c-77 -35 -120 -114 -97 -180 l11 -30 -77 -12 c-72 -12 -75
-13 -49 -24 27 -11 23 -14 -107 -73 -75 -34 -138 -62 -141 -62 -4 0 -17 13
-30 29 -28 33 -75 55 -102 48 -13 -3 -11 -5 7 -6 53 -3 102 -51 125 -124 l13
-42 -2 42 -1 43 129 60 c71 33 131 60 133 60 2 0 1 -9 -2 -20 -9 -29 1 -25 56
23 l50 44 34 -33 c32 -30 110 -58 139 -49 66 20 50 39 232 -280 92 -162 169
-293 172 -291 2 2 -72 135 -163 295 l-166 291 34 33 c85 80 62 209 -47 258
-52 23 -100 24 -151 0z m170 -21 c48 -30 79 -95 69 -146 -27 -147 -249 -173
-315 -37 -68 140 106 269 246 183z"/>
<path d="M810 1339 c0 -6 9 -9 20 -6 18 5 20 0 20 -48 0 -48 -3 -54 -22 -58
-13 -2 2 -5 32 -5 42 -1 50 1 33 8 -20 8 -23 17 -23 65 0 54 0 55 -30 55 -16
0 -30 -5 -30 -11z"/>
<path d="M2405 1366 c-42 -18 -83 -69 -91 -113 -6 -34 1 -80 20 -124 5 -12
-79 -91 -353 -328 -198 -171 -363 -311 -365 -311 -3 0 -6 10 -8 23 -2 18 -10
11 -42 -40 l-38 -62 -30 22 c-24 18 -43 22 -99 22 l-70 0 -8 35 c-5 19 -13 50
-16 69 l-7 34 -13 -30 c-11 -26 -17 -30 -42 -26 -27 5 -26 3 23 -47 l51 -51
-29 -31 c-15 -17 -31 -42 -34 -57 -15 -69 -1 -65 -245 -91 -123 -14 -213 -26
-199 -27 14 -2 116 7 228 20 l203 23 18 -41 c10 -23 33 -52 51 -65 39 -28 117
-38 160 -20 44 18 89 74 96 120 8 47 -25 40 342 80 312 34 331 35 314 18 -25
-25 -10 -27 41 -7 82 34 81 34 95 -5 38 -105 194 -128 271 -41 76 87 37 226
-72 257 -23 6 -45 14 -48 17 -4 3 -10 91 -14 195 -6 171 -5 188 9 183 20 -8
20 -5 1 40 -20 47 -19 50 12 58 68 17 113 79 113 155 0 115 -120 192 -225 146z
m143 -16 c45 -28 72 -76 72 -130 0 -157 -211 -209 -283 -70 -23 44 -18 120 10
158 43 60 139 80 201 42z m-101 -290 c20 0 23 -3 17 -27 -4 -16 -11 -38 -15
-51 -8 -20 -6 -22 9 -17 18 5 19 -4 25 -122 4 -71 7 -158 7 -194 0 -64 -1 -67
-27 -74 -59 -14 -120 -83 -110 -123 3 -12 5 -11 6 5 1 29 53 87 91 103 40 17
111 8 148 -18 65 -47 80 -145 32 -212 -40 -56 -128 -77 -189 -45 -38 19 -81
71 -81 98 0 25 -20 62 -20 38 0 -9 -8 -11 -22 -8 -13 3 -45 8 -73 12 -46 6
-49 5 -31 -9 11 -9 18 -17 15 -19 -2 -2 -139 -18 -304 -36 -165 -17 -312 -34
-326 -37 -23 -4 -28 0 -42 37 -9 24 -16 43 -14 44 1 0 31 14 66 30 59 28 62
30 36 35 -25 5 3 31 340 322 l366 316 36 -24 c20 -13 46 -24 60 -24z m-973
-625 c104 -50 113 -198 16 -263 -29 -20 -44 -23 -93 -20 -50 4 -63 9 -93 40
-122 122 15 317 170 243z"/>
<path d="M2443 1293 c-26 -10 -12 -19 22 -15 30 4 35 1 35 -16 0 -11 -18 -36
-40 -55 -22 -18 -37 -37 -33 -40 10 -11 103 -8 103 3 0 6 -17 10 -37 10 l-37
0 37 34 c43 39 45 49 15 70 -23 16 -42 19 -65 9z"/>
<path d="M2475 491 c-3 -5 9 -11 27 -13 39 -4 46 -31 8 -36 -24 -4 -23 -4 8
-17 45 -19 33 -45 -20 -45 -23 0 -37 -4 -33 -10 16 -26 105 -1 105 30 0 5 -7
16 -16 24 -8 9 -11 16 -5 16 19 0 12 39 -8 50 -24 13 -58 13 -66 1z"/>
<path d="M1410 358 c-36 -38 -60 -75 -53 -82 3 -3 21 -6 40 -6 23 0 33 -5 33
-15 0 -8 5 -15 10 -15 6 0 10 6 10 14 0 8 6 17 13 20 10 5 10 7 0 12 -8 3 -13
24 -13 50 0 49 -9 54 -40 22z m17 -65 c-3 -2 -15 -3 -27 -1 l-22 3 24 30 23
30 3 -29 c2 -15 1 -30 -1 -33z"/>
<path d="M80 1098 c-48 -33 -72 -70 -77 -120 -9 -79 49 -159 126 -174 17 -4
31 -7 31 -8 0 0 -9 -34 -19 -75 l-20 -73 25 23 24 22 0 -185 0 -186 -29 -5
c-42 -9 -99 -63 -112 -107 -30 -101 49 -209 155 -210 67 0 158 73 155 126 0
12 -4 7 -10 -12 -12 -42 -69 -91 -115 -100 -51 -9 -107 11 -143 51 -76 87 -36
214 77 244 l37 10 -3 183 c-2 146 0 180 10 170 24 -24 26 -11 7 49 -10 33 -19
64 -19 67 0 4 22 17 49 30 53 24 96 78 88 109 -4 14 -5 13 -6 -4 -1 -30 -48
-83 -88 -99 -76 -32 -158 -1 -194 74 -45 92 2 188 104 212 29 7 30 8 6 9 -14
1 -41 -9 -59 -21z"/>
<path d="M142 1024 c-33 -23 -31 -88 4 -111 24 -15 29 -15 53 -2 52 29 33 84
-26 77 -26 -3 -32 -1 -28 10 3 7 5 16 5 18 0 2 16 4 36 4 21 0 33 4 29 10 -9
15 -48 12 -73 -6z m57 -58 c17 -20 2 -46 -25 -46 -29 0 -41 24 -24 45 16 19
34 19 49 1z"/>
<path d="M233 306 c63 -23 84 -50 102 -130 4 -21 9 -26 15 -17 8 13 23 13 115
-6 30 -5 30 -5 11 16 -19 21 -19 21 5 22 13 0 67 7 119 14 84 12 87 13 25 9
-38 -2 -92 -7 -119 -11 -47 -6 -48 -5 -37 16 7 11 10 21 8 21 -2 0 -32 -11
-66 -26 -35 -14 -64 -24 -65 -22 -35 79 -86 128 -130 128 -14 -1 -8 -6 17 -14z"/>
<path d="M140 210 c0 -25 4 -30 24 -30 37 0 56 -10 56 -31 0 -20 -39 -35 -65
-25 -8 3 -15 1 -15 -4 0 -14 74 -12 88 2 27 27 7 64 -39 71 -36 6 -29 31 11
38 33 6 32 6 -12 8 -47 1 -48 0 -48 -29z"/>
<path d="M718 223 c12 -2 32 -2 45 0 12 2 2 4 -23 4 -25 0 -35 -2 -22 -4z"/>
</g>
</svg>
