<?xml version="1.0" standalone="no"?>
<!DOCTYPE svg PUBLIC "-//W3C//DTD SVG 20010904//EN"
 "http://www.w3.org/TR/2001/REC-SVG-20010904/DTD/svg10.dtd">
<svg version="1.0" xmlns="http://www.w3.org/2000/svg"
 width="220.000000pt" height="270.000000pt" viewBox="0 0 220.000000 270.000000"
 preserveAspectRatio="xMidYMid meet">

<g transform="translate(0.000000,270.000000) scale(0.100000,-0.100000)"
fill="#000000" stroke="none">
<path d="M1015 2686 c-37 -16 -83 -68 -91 -102 -10 -40 2 -114 23 -143 48 -64
149 -84 216 -42 l33 20 24 -47 c17 -34 25 -42 28 -29 2 10 8 17 12 15 5 -2
146 -129 312 -282 l304 -280 -18 -35 c-34 -67 -14 -159 44 -200 19 -13 18 -16
-34 -68 -49 -52 -51 -55 -25 -51 27 5 26 3 -56 -156 -46 -88 -166 -320 -267
-513 -100 -194 -187 -353 -191 -353 -5 0 -9 7 -9 17 0 33 -15 0 -31 -67 l-16
-70 24 -15 c88 -58 81 -198 -13 -252 -104 -60 -224 10 -224 130 0 90 60 149
153 150 41 0 46 1 25 7 -36 10 -94 -3 -131 -30 l-29 -22 -24 28 c-13 16 -23
32 -24 37 0 13 -20 7 -20 -7 0 -7 -7 -19 -15 -26 -23 -19 -19 -25 30 -38 41
-11 45 -14 35 -31 -18 -35 -12 -115 12 -151 39 -57 72 -75 137 -75 48 0 64 5
95 29 69 52 85 137 41 211 -13 24 -32 46 -41 49 -13 5 -7 16 35 61 28 29 51
56 51 59 0 3 -11 1 -25 -4 l-25 -10 16 33 c139 275 519 997 525 997 5 0 9 -8
9 -17 0 -34 17 3 30 64 l13 62 31 -6 c17 -3 33 -7 35 -9 2 -2 -4 -23 -12 -48
-15 -43 -15 -46 2 -46 16 0 19 -14 24 -122 4 -66 7 -151 7 -187 l0 -66 -45
-19 c-49 -20 -96 -75 -94 -111 0 -14 3 -12 9 9 18 59 83 106 147 106 112 0
187 -122 134 -220 -35 -68 -120 -99 -193 -71 -34 13 -77 60 -87 95 -7 22 -9
25 -10 10 -1 -31 40 -87 79 -106 50 -25 119 -23 160 5 57 38 75 71 75 137 0
50 -4 64 -31 97 -20 25 -46 43 -77 54 -26 8 -49 17 -51 20 -2 2 -7 88 -11 192
-6 169 -5 186 9 181 20 -8 20 -3 1 43 -20 47 -19 50 13 56 93 19 145 155 90
237 -39 57 -72 75 -138 75 -44 0 -65 -5 -87 -21 l-29 -22 -240 222 c-132 121
-272 250 -310 285 -40 37 -64 66 -56 68 22 8 13 21 -23 33 -45 15 -49 23 -30
59 49 97 -22 219 -133 228 -27 2 -60 -3 -77 -11z m139 -19 c132 -76 79 -279
-73 -279 -89 0 -143 51 -149 142 -3 45 0 61 20 90 46 68 131 88 202 47z m916
-845 c19 -9 45 -33 58 -52 20 -29 23 -44 20 -94 -4 -54 -8 -62 -46 -97 -37
-35 -47 -39 -94 -39 -99 0 -162 64 -155 156 8 114 117 177 217 126z"/>
<path d="M1040 2599 c0 -6 9 -9 20 -6 18 5 20 0 20 -43 0 -41 -3 -49 -22 -55
-22 -8 -22 -8 4 -12 16 -2 40 -2 55 0 27 4 27 4 6 12 -20 6 -23 14 -23 61 0
53 0 54 -30 54 -16 0 -30 -5 -30 -11z"/>
<path d="M1973 1763 c-26 -10 -12 -19 22 -15 30 4 35 1 35 -16 0 -11 -18 -36
-40 -55 -22 -18 -37 -37 -33 -40 10 -11 103 -8 103 3 0 6 -17 10 -37 10 l-37
0 37 34 c43 39 45 49 15 70 -23 16 -42 19 -65 9z"/>
<path d="M94 1036 c-17 -8 -44 -31 -60 -52 -24 -31 -29 -47 -29 -95 0 -65 18
-98 75 -136 54 -37 146 -28 196 18 l21 19 347 -241 c191 -133 349 -239 351
-238 2 2 -153 113 -343 246 -216 150 -346 246 -343 255 2 7 5 24 7 38 3 18 1
17 -6 -6 -40 -126 -219 -141 -281 -24 -53 98 22 220 134 220 21 0 51 -7 66
-15 37 -19 81 -71 82 -98 1 -17 2 -18 6 -4 7 27 -35 86 -78 107 -44 23 -100
25 -145 6z"/>
<path d="M127 963 c-4 -3 -7 -19 -7 -34 0 -25 4 -28 38 -31 29 -2 37 -7 37
-23 0 -16 -8 -21 -37 -23 -45 -4 -51 -22 -7 -22 43 0 69 17 69 45 0 26 -25 45
-59 45 -12 0 -21 7 -21 15 0 10 11 15 35 15 19 0 35 5 35 10 0 11 -73 14 -83
3z"/>
<path d="M2005 961 c-3 -5 9 -11 27 -13 39 -4 46 -31 8 -36 -24 -4 -23 -4 8
-17 45 -19 33 -45 -20 -45 -23 0 -37 -4 -33 -10 16 -26 105 -1 105 30 0 5 -7
16 -16 24 -8 9 -11 16 -5 16 19 0 12 39 -8 50 -24 13 -58 13 -66 1z"/>
<path d="M1192 201 c-41 -51 -40 -61 3 -61 24 0 35 -5 35 -15 0 -8 5 -15 10
-15 6 0 10 7 10 15 0 8 8 15 18 15 16 1 16 1 0 11 -12 7 -18 22 -18 49 0 52
-17 52 -58 1z m38 -16 c0 -31 -3 -35 -25 -35 -14 0 -25 2 -25 5 0 7 42 65 47
65 2 0 3 -16 3 -35z"/>
</g>
</svg>
