<?xml version="1.0" standalone="no"?>
<!DOCTYPE svg PUBLIC "-//W3C//DTD SVG 20010904//EN"
 "http://www.w3.org/TR/2001/REC-SVG-20010904/DTD/svg10.dtd">
<svg version="1.0" xmlns="http://www.w3.org/2000/svg"
 width="256.000000pt" height="104.000000pt" viewBox="0 0 256.000000 104.000000"
 preserveAspectRatio="xMidYMid meet">

<g transform="translate(0.000000,104.000000) scale(0.100000,-0.100000)"
fill="#000000" stroke="none">
<path d="M118 1023 c6 -2 18 -2 25 0 6 3 1 5 -13 5 -14 0 -19 -2 -12 -5z"/>
<path d="M168 1023 c6 -2 18 -2 25 0 6 3 1 5 -13 5 -14 0 -19 -2 -12 -5z"/>
<path d="M829 1007 c-22 -15 -39 -38 -49 -65 l-14 -42 -143 0 -143 0 0 30 c0
17 -1 30 -3 30 -2 0 -43 -13 -92 -30 -49 -16 -90 -30 -91 -30 -2 0 -4 10 -7
23 -2 12 -4 0 -4 -27 -1 -57 -23 -93 -74 -118 -19 -10 -27 -18 -18 -18 8 0 24
6 34 14 17 13 36 -2 227 -188 114 -110 208 -205 208 -210 0 -5 -7 -17 -16 -27
-15 -17 -11 -20 65 -58 44 -23 83 -41 86 -41 3 0 -14 38 -37 85 l-42 85 -21
-20 -21 -19 -208 208 c-207 207 -209 209 -192 232 9 13 16 34 16 46 0 29 10
29 100 -2 40 -14 77 -25 82 -25 4 0 8 11 8 25 l0 25 144 0 144 0 5 -29 c7 -31
52 -91 70 -91 7 0 0 10 -15 23 -50 42 -62 100 -33 161 42 89 188 89 230 0 8
-18 16 -47 16 -66 1 -18 3 -25 6 -15 6 22 4 22 106 -12 l87 -30 0 30 0 29 145
0 145 0 0 -25 c0 -32 53 -91 95 -105 l33 -11 -29 -86 c-16 -48 -29 -88 -29
-90 0 -2 14 -3 30 -3 l30 0 0 -144 0 -143 -42 -17 c-50 -19 -92 -72 -85 -108
4 -21 4 -21 6 4 3 67 95 122 164 99 39 -13 87 -62 87 -88 0 -9 3 -14 6 -10 21
21 -37 89 -91 107 l-35 12 0 144 0 144 25 0 c14 0 25 4 25 8 0 5 -11 42 -25
82 -14 40 -25 77 -25 81 0 4 15 12 34 19 52 17 97 64 96 102 -1 7 -7 -1 -14
-18 -30 -69 -108 -99 -172 -68 -53 27 -75 62 -77 120 0 27 -2 39 -4 27 -4 -23
-7 -23 -149 -23 l-144 0 0 30 c0 17 -1 30 -3 30 -2 0 -43 -13 -92 -30 -102
-35 -95 -33 -95 -19 0 27 -36 83 -64 100 -44 27 -114 25 -157 -4z"/>
<path d="M1628 1023 c6 -2 18 -2 25 0 6 3 1 5 -13 5 -14 0 -19 -2 -12 -5z"/>
<path d="M1678 1023 c6 -2 18 -2 25 0 6 3 1 5 -13 5 -14 0 -19 -2 -12 -5z"/>
<path d="M2336 1000 c-87 -76 -67 -195 39 -236 l46 -17 -3 -136 -3 -136 -27
-3 c-16 -2 -28 -7 -28 -11 0 -4 13 -45 28 -91 l29 -85 30 92 c31 92 31 92 10
95 -21 3 -22 7 -22 143 l0 140 -41 12 c-79 24 -119 93 -95 166 18 54 54 81
119 88 l57 6 -52 2 c-45 1 -57 -3 -87 -29z"/>
<path d="M51 985 c-17 -20 -31 -43 -31 -53 1 -10 6 -4 14 14 8 17 27 40 42 52
16 12 24 22 18 22 -7 0 -26 -16 -43 -35z"/>
<path d="M225 1006 c11 -9 28 -27 39 -39 l18 -22 -14 24 c-8 14 -25 31 -39 39
-23 14 -23 13 -4 -2z"/>
<path d="M1568 991 c-18 -16 -31 -31 -28 -34 3 -2 20 11 38 29 40 42 34 44
-10 5z"/>
<path d="M1744 998 c15 -12 34 -35 42 -52 8 -18 13 -24 14 -14 0 20 -57 88
-74 88 -6 0 2 -10 18 -22z"/>
<path d="M2495 1003 c38 -33 55 -67 55 -108 0 -51 -31 -102 -73 -120 -19 -8
-25 -14 -14 -15 9 0 34 15 54 33 31 29 37 41 40 88 5 60 -18 109 -59 129 -23
11 -23 11 -3 -7z"/>
<path d="M128 969 c-10 -5 -18 -15 -18 -21 0 -7 5 -6 15 2 13 11 15 4 15 -54
0 -59 -2 -66 -20 -66 -11 0 -20 -4 -20 -10 0 -5 23 -10 50 -10 28 0 50 5 50
10 0 6 -9 10 -20 10 -18 0 -20 7 -20 75 0 77 -2 82 -32 64z"/>
<path d="M874 966 c-10 -8 -15 -18 -11 -22 4 -5 12 -3 16 5 11 18 55 10 59
-11 2 -9 -17 -37 -42 -63 -25 -25 -46 -50 -46 -56 0 -5 25 -9 55 -9 64 0 75
17 14 22 l-41 3 41 42 c44 45 50 63 25 87 -19 20 -44 20 -70 2z"/>
<path d="M1610 936 l0 -43 38 1 c35 1 37 -1 37 -29 0 -24 -5 -31 -23 -33 -13
-2 -30 2 -38 9 -21 17 -28 5 -9 -15 35 -34 95 -9 95 39 0 29 -39 59 -64 49
-12 -5 -16 0 -16 20 0 23 4 26 35 26 19 0 35 5 35 10 0 6 -20 10 -45 10 l-45
0 0 -44z"/>
<path d="M2388 963 c-31 -37 -29 -124 4 -145 36 -23 78 6 78 53 0 37 -36 57
-69 40 -24 -13 -28 -2 -10 31 8 16 17 19 40 14 30 -6 40 7 13 18 -26 10 -40 7
-56 -11z m57 -98 c0 -23 -5 -31 -22 -33 -14 -2 -26 4 -32 17 -16 30 -3 53 28
49 22 -2 26 -8 26 -33z"/>
<path d="M2080 931 l0 -32 -140 3 c-89 2 -140 -1 -140 -7 0 -6 51 -9 140 -7
l140 3 0 -25 c0 -33 7 -32 110 2 l85 29 -85 28 c-47 15 -91 30 -97 33 -9 3
-13 -6 -13 -27z"/>
<path d="M11 887 c-1 -5 8 -30 20 -56 l20 -49 -25 -91 -25 -91 34 0 c24 0 35
-5 38 -17 4 -14 5 -13 6 4 1 15 8 23 25 25 l24 3 -33 80 c-18 44 -32 81 -31
82 1 2 21 -5 44 -14 l42 -16 2 -71 2 -71 5 75 6 75 -38 12 c-49 15 -75 38 -98
88 -10 22 -18 36 -18 32z"/>
<path d="M1030 839 c0 -6 -14 -24 -31 -40 -17 -16 -27 -29 -21 -29 12 0 62 57
62 71 0 5 -2 9 -5 9 -3 0 -5 -5 -5 -11z"/>
<path d="M898 752 c9 -7 12 -42 10 -143 l-3 -134 -32 -3 -31 -3 29 -86 c16
-47 31 -88 33 -90 2 -2 17 36 34 86 l30 90 -21 3 c-21 3 -22 7 -22 146 0 135
-1 142 -20 142 -14 0 -16 -3 -7 -8z"/>
<path d="M162 575 c0 -16 2 -22 5 -12 2 9 2 23 0 30 -3 6 -5 -1 -5 -18z"/>
<path d="M109 523 c11 -10 25 -36 31 -58 l10 -40 -5 39 c-4 37 -28 76 -48 76
-5 0 0 -8 12 -17z"/>
<path d="M170 534 c0 -6 15 -23 33 -40 l32 -29 -30 35 c-16 19 -31 37 -32 39
-2 2 -3 0 -3 -5z"/>
<path d="M231 448 c-1 -13 -9 -18 -31 -18 -16 0 -30 -1 -30 -3 0 -1 16 -40 35
-86 19 -45 35 -84 35 -86 0 -2 -18 4 -40 12 -38 15 -39 18 -43 67 l-3 51 -2
-52 c-2 -49 -4 -52 -36 -63 -19 -6 -43 -19 -55 -29 -21 -19 -56 -89 -48 -98 3
-2 10 12 17 31 22 69 98 108 165 86 41 -13 85 -62 85 -94 0 -19 12 -26 88 -50
48 -16 93 -31 100 -33 8 -3 12 4 12 21 l0 26 145 0 c99 0 145 -4 145 -11 0
-27 36 -83 64 -100 41 -25 110 -25 151 1 39 24 65 75 64 122 -1 29 -2 27 -9
-13 -4 -25 -14 -55 -21 -66 -31 -51 -123 -69 -180 -36 -74 44 -78 168 -7 217
12 9 17 16 11 16 -18 0 -63 -60 -70 -91 l-5 -29 -144 0 -144 0 0 30 c0 17 -4
30 -8 30 -5 0 -42 -11 -82 -25 -88 -30 -100 -31 -100 -6 0 10 -10 31 -22 46
l-21 27 21 92 c12 50 22 94 22 99 0 4 -11 7 -24 7 -13 0 -27 6 -29 13 -3 7 -6
5 -6 -5z"/>
<path d="M898 273 c6 -2 18 -2 25 0 6 3 1 5 -13 5 -14 0 -19 -2 -12 -5z"/>
<path d="M2442 266 c54 -15 74 -29 94 -67 29 -57 11 -137 -40 -169 -11 -8 -43
-17 -71 -21 l-50 -6 45 -2 c89 -2 146 61 138 151 -7 71 -71 129 -140 127 -13
0 -2 -6 24 -13z"/>
<path d="M991 237 c15 -12 32 -31 38 -42 6 -11 11 -15 11 -8 0 16 -49 73 -63
73 -7 0 0 -10 14 -23z"/>
<path d="M2317 230 c-14 -16 -28 -43 -32 -60 l-7 -30 -144 0 -144 0 0 30 c0
17 -3 30 -7 30 -5 0 -48 -13 -97 -29 l-88 -29 83 -27 c46 -15 90 -30 97 -33 7
-2 12 5 12 22 l0 26 144 0 144 0 11 -32 c12 -33 58 -88 74 -88 5 0 -5 11 -22
25 -60 51 -65 140 -10 195 17 16 26 30 21 30 -6 0 -21 -13 -35 -30z"/>
<path d="M118 219 c-10 -5 -18 -15 -18 -21 0 -7 5 -6 14 2 8 6 25 10 38 8 31
-4 32 -42 1 -46 -13 -2 -23 -7 -23 -12 0 -5 10 -10 23 -12 16 -2 22 -10 22
-28 0 -20 -6 -26 -28 -28 -17 -2 -29 2 -33 12 -3 9 -10 13 -16 10 -14 -9 22
-44 44 -44 49 0 77 47 46 78 -9 9 -9 15 0 24 16 16 15 33 -4 52 -18 18 -41 20
-66 5z"/>
<path d="M886 175 c-20 -30 -36 -59 -36 -65 0 -5 18 -10 39 -10 33 0 40 -4 44
-22 l4 -23 2 23 c0 14 8 22 19 22 16 1 16 1 0 14 -13 10 -18 27 -18 65 0 28
-4 51 -9 51 -4 0 -25 -25 -45 -55z m44 -20 c0 -33 -2 -35 -31 -35 -30 0 -31 1
-17 23 8 12 18 28 22 35 14 23 26 12 26 -23z"/>
<path d="M1605 220 c3 -5 24 -10 46 -10 l39 0 -25 -51 c-15 -29 -25 -62 -23
-77 l4 -27 7 30 c4 17 19 53 32 80 14 28 25 54 25 58 0 4 -25 7 -56 7 -34 0
-53 -4 -49 -10z"/>
<path d="M2388 219 c-21 -12 -24 -49 -6 -67 9 -9 9 -12 1 -12 -21 0 -26 -40
-7 -61 19 -21 45 -24 75 -9 21 12 25 50 7 68 -9 9 -9 15 0 24 16 16 15 33 -4
52 -18 18 -41 20 -66 5z m62 -33 c0 -20 -25 -37 -44 -30 -19 7 -22 50 -3 57
17 6 47 -11 47 -27z m-2 -77 c4 -31 -19 -44 -49 -29 -19 11 -26 40 -12 54 4 4
19 6 33 4 19 -2 26 -10 28 -29z"/>
<path d="M282 110 c0 -14 2 -19 5 -12 2 6 2 18 0 25 -3 6 -5 1 -5 -13z"/>
<path d="M1532 110 c0 -14 2 -19 5 -12 2 6 2 18 0 25 -3 6 -5 1 -5 -13z"/>
<path d="M1793 115 c-3 -9 -3 -18 -1 -21 3 -3 8 4 11 16 6 23 -1 27 -10 5z"/>
<path d="M20 97 c0 -29 61 -86 100 -92 l35 -6 -38 14 c-48 19 -67 35 -83 72
-8 19 -13 23 -14 12z"/>
<path d="M240 42 c-25 -26 -28 -32 -11 -21 21 13 61 60 50 58 -2 0 -20 -17
-39 -37z"/>
<path d="M1552 61 c8 -14 25 -31 39 -39 l24 -14 -22 18 c-12 11 -30 28 -39 39
-15 19 -16 19 -2 -4z"/>
<path d="M1765 53 c-11 -13 -38 -31 -60 -39 l-40 -15 35 6 c31 5 101 58 89 68
-2 2 -13 -7 -24 -20z"/>
<path d="M168 3 c6 -2 18 -2 25 0 6 3 1 5 -13 5 -14 0 -19 -2 -12 -5z"/>
<path d="M1628 3 c6 -2 18 -2 25 0 6 3 1 5 -13 5 -14 0 -19 -2 -12 -5z"/>
</g>
</svg>
