<?xml version="1.0" standalone="no"?>
<!DOCTYPE svg PUBLIC "-//W3C//DTD SVG 20010904//EN"
 "http://www.w3.org/TR/2001/REC-SVG-20010904/DTD/svg10.dtd">
<svg version="1.0" xmlns="http://www.w3.org/2000/svg"
 width="383.000000pt" height="253.000000pt" viewBox="0 0 383.000000 253.000000"
 preserveAspectRatio="xMidYMid meet">

<g transform="translate(0.000000,253.000000) scale(0.100000,-0.100000)"
fill="#000000" stroke="none">
<path d="M308 2461 c-63 -20 -141 -73 -174 -118 -143 -194 -86 -452 124 -555
62 -31 74 -33 167 -33 90 0 105 3 153 28 30 16 73 46 97 68 l43 40 145 -92
145 -92 -22 -46 c-16 -36 -21 -65 -21 -136 0 -78 4 -98 29 -152 34 -74 113
-154 183 -184 29 -13 78 -24 126 -27 74 -4 78 -6 83 -31 4 -14 24 -97 45 -183
22 -86 39 -161 39 -166 0 -5 -29 -24 -64 -41 -248 -122 -272 -470 -43 -624 97
-66 205 -82 316 -48 143 45 240 166 256 322 l7 65 166 23 c244 33 220 35 244
-29 30 -77 122 -169 203 -200 93 -36 200 -34 285 7 83 39 145 101 184 183 26
57 30 76 30 150 0 92 -19 151 -70 218 l-26 34 98 101 c54 56 101 106 105 111
4 4 23 -4 43 -19 44 -34 143 -65 205 -65 100 0 228 60 284 133 147 193 90 455
-121 559 -55 27 -80 34 -147 36 -134 6 -240 -47 -318 -158 -21 -30 -44 -54
-50 -52 -7 2 -66 26 -132 54 l-120 50 0 102 c0 91 -3 107 -28 158 -36 74 -101
139 -175 175 -51 25 -68 28 -157 28 -91 0 -105 -3 -158 -29 -113 -58 -195
-178 -205 -302 -2 -35 -5 -64 -6 -65 0 0 -89 -13 -196 -28 l-195 -27 -11 31
c-38 104 -105 178 -202 223 -49 23 -70 27 -147 27 -77 0 -98 -4 -147 -27 -31
-14 -76 -45 -101 -67 -24 -23 -47 -41 -50 -41 -6 0 -206 125 -259 161 l-26 19
20 52 c30 75 29 195 -1 263 -50 113 -125 183 -232 216 -75 24 -147 23 -221 0z
m247 -55 c61 -28 126 -92 157 -154 34 -69 37 -178 7 -256 -26 -72 -97 -147
-167 -179 -67 -31 -197 -31 -264 0 -183 84 -246 322 -128 486 87 121 257 165
395 103z m2027 -418 c68 -31 123 -87 157 -158 35 -73 37 -191 4 -262 -74 -162
-268 -239 -423 -167 -79 37 -125 81 -162 156 -87 177 4 387 195 449 61 20 162
12 229 -18z m-1139 -164 c64 -22 140 -92 174 -162 37 -76 39 -191 5 -268 -29
-64 -102 -136 -167 -166 -76 -34 -191 -33 -266 5 -143 70 -217 227 -175 372
56 192 237 285 429 219z m2103 -194 c121 -59 189 -174 182 -310 -6 -125 -69
-220 -185 -277 -79 -38 -187 -38 -266 0 -116 57 -179 152 -185 277 -7 154 78
279 223 327 60 19 172 11 231 -17z m-1437 -75 c52 -126 173 -211 315 -222 l76
-6 9 -36 c34 -127 81 -322 81 -333 0 -7 -23 -24 -52 -37 -126 -58 -207 -181
-210 -320 l-1 -48 -193 -28 c-106 -15 -197 -24 -202 -21 -6 3 -13 18 -17 33
-9 40 -61 117 -101 153 -62 54 -131 82 -218 89 l-80 6 -47 190 c-26 104 -47
190 -46 190 1 1 27 13 57 28 118 56 199 172 208 297 2 39 7 70 11 71 3 0 76
11 161 23 233 35 222 37 249 -29z m817 -61 l131 -56 -9 -48 c-5 -29 -5 -73 1
-108 9 -58 50 -154 71 -167 22 -14 6 -39 -91 -139 l-101 -105 -36 24 c-55 36
-119 56 -191 59 l-64 3 -47 192 -47 191 59 27 c60 27 159 120 173 163 3 11 9
20 13 20 4 0 66 -25 138 -56z m-91 -616 c109 -57 175 -163 175 -284 0 -104
-22 -157 -94 -230 -73 -72 -126 -94 -231 -94 -169 0 -303 128 -313 300 -6 102
22 175 92 246 72 71 136 95 241 91 62 -3 91 -9 130 -29z m-1133 -166 c70 -30
141 -106 167 -178 30 -78 27 -187 -7 -256 -65 -132 -210 -205 -353 -177 -112
22 -215 114 -249 222 -7 21 -10 71 -8 111 6 132 89 244 210 288 68 24 174 20
240 -10z"/>
<path d="M402 2295 c-48 -21 -75 -88 -70 -171 5 -80 32 -114 90 -114 55 0 88
35 88 92 0 24 -7 53 -15 65 -19 26 -63 37 -98 24 -23 -9 -27 -8 -27 8 0 10 9
30 21 45 16 20 29 26 60 26 33 0 40 3 37 18 -4 22 -44 26 -86 7z m68 -164 c9
-24 9 -35 -2 -58 -28 -58 -98 -32 -98 37 0 46 4 50 50 50 32 0 39 -4 50 -29z"/>
<path d="M2370 1815 l0 -75 48 0 c57 0 72 -12 72 -57 0 -24 -7 -37 -25 -49
-24 -15 -29 -15 -65 -1 -38 15 -40 15 -40 -4 0 -22 35 -39 81 -39 45 0 89 48
89 95 0 20 -4 45 -10 55 -11 21 -73 45 -95 36 -12 -4 -15 4 -15 34 l0 40 60 0
c53 0 60 2 60 20 0 18 -7 20 -80 20 l-80 0 0 -75z"/>
<path d="M1291 1641 c-41 -47 -61 -78 -61 -95 0 -25 2 -26 60 -26 l60 0 0 -50
c0 -43 3 -50 20 -50 17 0 20 7 20 50 0 38 4 50 15 50 8 0 15 9 15 20 0 11 -7
20 -15 20 -12 0 -15 15 -15 75 0 66 -2 75 -19 75 -10 0 -45 -31 -80 -69z m59
-31 l0 -50 -46 0 -45 0 43 50 c24 27 44 50 46 50 1 0 2 -22 2 -50z"/>
<path d="M3400 1511 c-5 -11 -20 -21 -32 -23 -35 -5 -34 -28 1 -28 l31 0 0
-95 0 -95 -30 0 c-20 0 -30 -5 -30 -15 0 -12 14 -15 70 -15 56 0 70 3 70 15 0
9 -9 15 -25 15 l-25 0 0 130 c0 127 -7 153 -30 111z"/>
<path d="M2623 774 c-7 -3 -13 -14 -13 -25 0 -16 3 -18 19 -9 11 5 34 10 51
10 23 0 33 -6 42 -25 15 -34 -7 -80 -72 -149 -73 -78 -69 -86 40 -86 73 0 90
3 90 15 0 12 -15 15 -72 15 l-71 0 61 63 c72 76 87 122 55 165 -16 22 -29 27
-69 29 -27 1 -55 0 -61 -3z"/>
<path d="M1508 603 c-10 -2 -18 -14 -18 -25 0 -15 4 -18 18 -13 65 26 107 11
100 -37 -2 -16 -13 -26 -35 -33 -41 -12 -42 -31 -3 -39 38 -7 55 -41 41 -79
-14 -35 -53 -45 -97 -24 -33 16 -34 16 -34 -3 0 -25 29 -40 80 -40 56 0 90 34
90 89 0 37 -19 71 -40 71 -5 0 2 11 15 25 65 64 -12 136 -117 108z"/>
</g>
</svg>
