<?xml version="1.0" standalone="no"?>
<!DOCTYPE svg PUBLIC "-//W3C//DTD SVG 20010904//EN"
 "http://www.w3.org/TR/2001/REC-SVG-20010904/DTD/svg10.dtd">
<svg version="1.0" xmlns="http://www.w3.org/2000/svg"
 width="347.000000pt" height="266.000000pt" viewBox="0 0 347.000000 266.000000"
 preserveAspectRatio="xMidYMid meet">

<g transform="translate(0.000000,266.000000) scale(0.100000,-0.100000)"
fill="#000000" stroke="none">
<path d="M1852 2646 c-88 -29 -162 -110 -183 -199 l-11 -52 -632 -195 c-417
-128 -641 -193 -661 -190 -80 11 -171 4 -211 -17 -50 -27 -99 -76 -127 -128
-29 -53 -30 -173 -3 -225 48 -92 154 -160 249 -160 131 0 255 98 273 216 6 41
8 43 33 37 14 -4 235 -55 491 -114 314 -72 464 -111 462 -119 -25 -108 -2
-194 72 -266 179 -174 466 -59 466 186 -1 100 -57 200 -131 230 -30 13 -31 15
-25 64 3 28 10 116 16 196 17 221 11 205 75 219 69 15 130 61 170 125 24 40
30 62 33 121 4 81 -13 134 -63 193 -62 73 -197 109 -293 78z m170 -22 c103
-35 168 -124 168 -232 0 -73 -15 -114 -60 -166 -53 -59 -102 -81 -190 -81 -85
0 -133 20 -186 77 -52 54 -68 96 -68 168 0 173 170 291 336 234z m-347 -311
c13 -46 28 -69 69 -109 50 -48 121 -84 168 -84 15 0 17 -6 13 -37 -2 -21 -9
-103 -15 -183 -6 -80 -13 -162 -16 -182 l-6 -38 -57 6 c-87 10 -160 -15 -220
-74 -26 -26 -52 -55 -57 -64 -8 -15 -52 -7 -483 92 -261 60 -485 111 -498 115
-16 4 -23 13 -23 31 0 56 -58 151 -113 184 l-30 18 119 38 c472 147 1111 343
1121 343 6 1 19 -25 28 -56z m-1323 -323 c99 -28 178 -134 178 -239 0 -148
-129 -263 -275 -248 -217 22 -310 270 -159 421 67 67 162 92 256 66z m1530
-336 c103 -35 168 -124 168 -232 0 -73 -15 -114 -60 -166 -53 -59 -102 -81
-190 -81 -85 0 -133 20 -186 77 -52 54 -68 96 -68 168 0 173 170 291 336 234z"/>
<path d="M1897 2453 c-14 -13 -6 -18 25 -18 47 0 48 -28 4 -70 -20 -18 -36
-38 -36 -44 0 -6 21 -11 50 -11 28 0 50 5 50 10 0 6 -16 10 -36 10 l-36 0 31
35 c33 38 39 63 19 83 -13 13 -60 16 -71 5z"/>
<path d="M258 1806 c-22 -16 -23 -26 -3 -26 11 0 15 -12 15 -45 0 -33 -4 -45
-15 -45 -8 0 -15 -4 -15 -10 0 -5 18 -10 40 -10 22 0 40 5 40 10 0 6 -7 10
-15 10 -12 0 -15 14 -15 65 0 68 -3 73 -32 51z"/>
<path d="M1757 1483 c-14 -13 -6 -18 25 -18 36 0 50 -24 19 -32 -27 -7 -27
-19 0 -26 35 -9 20 -42 -19 -42 -33 0 -43 -11 -17 -21 23 -9 65 4 72 23 3 8 1
24 -6 34 -8 15 -8 24 1 38 9 15 9 23 -1 35 -13 16 -62 22 -74 9z"/>
<path d="M3106 1544 c-70 -22 -149 -103 -170 -174 -9 -30 -16 -65 -16 -80 0
-41 28 -124 51 -154 12 -16 18 -31 13 -36 -20 -18 -975 -701 -987 -705 -6 -2
-26 15 -42 38 -63 87 -188 125 -300 93 -105 -31 -195 -148 -195 -256 0 -138
134 -270 275 -270 110 0 213 66 255 162 19 44 22 65 18 130 l-5 78 490 353
c270 193 496 356 504 360 8 5 24 0 42 -13 100 -70 246 -64 338 15 113 97 126
268 28 383 -63 75 -196 109 -299 76z m176 -20 c103 -35 168 -124 168 -232 0
-73 -15 -114 -60 -166 -53 -59 -102 -81 -190 -81 -85 0 -133 20 -186 77 -52
54 -68 96 -68 168 0 173 170 291 336 234z m-1460 -1020 c103 -35 168 -124 168
-232 0 -73 -15 -114 -60 -166 -53 -59 -102 -81 -190 -81 -85 0 -133 20 -186
77 -52 54 -68 96 -68 168 0 173 170 291 336 234z"/>
<path d="M3176 1316 c-20 -23 -36 -48 -36 -55 0 -6 15 -11 35 -11 28 0 35 -4
35 -20 0 -11 5 -20 10 -20 6 0 10 9 10 19 0 11 6 22 13 25 10 5 10 7 0 12 -8
3 -13 24 -13 50 0 24 -4 44 -9 44 -5 0 -26 -20 -45 -44z m31 -43 c-3 -3 -13
-3 -21 -1 -15 3 -15 6 1 28 l18 25 3 -23 c2 -13 1 -26 -1 -29z"/>
<path d="M1700 301 c0 -37 2 -40 33 -43 24 -2 32 -8 32 -23 0 -16 -7 -20 -38
-20 -37 0 -46 -17 -13 -23 34 -7 66 8 72 33 8 31 -11 55 -42 55 -17 0 -24 6
-24 20 0 16 7 20 35 20 19 0 35 5 35 10 0 6 -20 10 -45 10 l-45 0 0 -39z"/>
</g>
</svg>
