<?xml version="1.0" standalone="no"?>
<!DOCTYPE svg PUBLIC "-//W3C//DTD SVG 20010904//EN"
 "http://www.w3.org/TR/2001/REC-SVG-20010904/DTD/svg10.dtd">
<svg version="1.0" xmlns="http://www.w3.org/2000/svg"
 width="756.000000pt" height="153.000000pt" viewBox="0 0 756.000000 153.000000"
 preserveAspectRatio="xMidYMid meet">

<g transform="translate(0.000000,153.000000) scale(0.100000,-0.100000)"
fill="#000000" stroke="none">
<path d="M2505 1208 c-77 -11 -123 -36 -150 -82 -28 -49 -33 -100 -21 -220 8
-86 8 -90 -14 -108 -12 -10 -33 -18 -46 -18 -19 0 -24 -5 -24 -25 0 -20 5 -25
25 -25 14 0 35 -10 46 -21 20 -20 21 -27 13 -103 -12 -117 -7 -172 18 -218 28
-48 80 -78 154 -85 50 -5 54 -4 54 16 0 17 -6 21 -30 21 -44 0 -78 19 -102 58
-19 31 -20 42 -14 161 8 139 8 138 -58 184 -18 13 -17 15 17 36 19 12 38 29
41 38 4 9 4 71 0 138 -6 107 -5 126 11 152 21 36 63 63 99 63 25 0 42 19 34
38 -1 4 -25 4 -53 0z"/>
<path d="M6952 1198 c2 -17 10 -24 33 -26 43 -4 90 -31 109 -63 17 -29 21
-119 7 -199 -11 -66 3 -104 45 -131 35 -21 36 -23 18 -36 -67 -47 -66 -45 -59
-184 7 -111 5 -130 -10 -157 -23 -38 -64 -62 -109 -62 -30 0 -36 -4 -36 -21 0
-20 4 -21 58 -16 150 13 202 95 180 279 -13 105 -4 135 42 144 23 5 30 12 30
30 0 17 -6 24 -19 24 -10 0 -29 8 -41 18 -22 18 -22 22 -14 108 5 49 8 109 6
134 -7 90 -63 149 -157 165 -22 3 -50 8 -63 11 -20 4 -23 1 -20 -18z"/>
<path d="M6020 1195 c0 -13 -24 -15 -155 -15 l-155 0 0 -159 c0 -117 3 -162
13 -168 6 -4 54 -8 104 -8 90 0 93 -1 124 -31 27 -27 32 -41 36 -97 10 -114
-29 -167 -122 -167 -43 0 -57 5 -79 27 -14 14 -29 37 -32 50 -5 18 -13 23 -40
23 l-34 0 0 -54 0 -55 54 -15 c106 -31 236 -17 289 32 62 56 78 179 33 256
-39 67 -95 90 -197 83 l-79 -5 0 104 0 104 140 0 140 0 0 55 c0 48 -2 55 -20
55 -11 0 -20 -7 -20 -15z"/>
<path d="M2798 1122 c-65 -37 -118 -69 -118 -72 0 -3 4 -11 9 -18 7 -11 18 -9
59 12 97 49 92 61 92 -213 0 -237 0 -240 -22 -255 -13 -9 -43 -16 -70 -16 -41
0 -48 -3 -48 -20 0 -19 7 -20 190 -20 183 0 190 1 190 20 0 17 -7 20 -48 20
-27 0 -57 7 -70 16 -22 15 -22 16 -22 315 0 233 -3 299 -12 298 -7 0 -66 -30
-130 -67z"/>
<path d="M370 1168 c0 -7 11 -23 24 -35 28 -27 121 -276 110 -295 -20 -33
-237 -279 -254 -288 -40 -21 -19 -30 70 -30 83 0 112 9 75 24 -37 14 -3 81
113 216 l29 34 26 -79 c38 -115 39 -160 7 -170 -46 -15 -14 -25 80 -25 55 0
100 2 100 4 0 2 -12 17 -27 34 -18 18 -46 80 -77 166 -43 122 -47 138 -34 154
8 9 61 72 117 139 56 67 111 125 122 128 10 4 19 13 19 21 0 21 -175 20 -184
-1 -3 -9 0 -15 9 -15 20 0 28 -36 14 -62 -7 -13 -40 -57 -74 -99 l-62 -77 -21
67 c-12 36 -24 85 -28 108 -6 37 -4 43 20 58 14 10 26 21 26 26 0 5 -45 9
-100 9 -73 0 -100 -3 -100 -12z"/>
<path d="M3488 1158 l-68 -21 0 -43 c0 -43 0 -44 34 -44 26 0 36 5 41 20 10
33 63 70 100 70 78 0 115 -41 115 -127 0 -60 -33 -120 -120 -218 -84 -95 -180
-239 -180 -270 0 -3 90 -5 200 -5 l200 0 0 54 c0 30 3 61 6 70 12 31 -34 18
-51 -14 l-16 -30 -114 0 c-63 0 -115 2 -115 5 0 11 79 112 145 185 115 128
137 167 137 245 0 128 -132 179 -314 123z"/>
<path d="M4248 1159 l-68 -22 0 -43 c0 -43 0 -44 34 -44 25 0 36 5 41 19 3 10
17 31 32 45 44 45 148 32 172 -21 18 -40 13 -103 -11 -140 -26 -36 -99 -73
-147 -73 -24 0 -31 -4 -31 -19 0 -16 10 -21 58 -27 108 -13 152 -57 152 -152
0 -94 -34 -131 -121 -132 -53 0 -59 3 -88 35 -17 20 -31 42 -31 50 0 10 -11
15 -35 15 l-35 0 0 -55 0 -54 52 -16 c72 -21 193 -19 243 4 74 34 105 85 105
174 0 67 -32 117 -95 147 l-45 22 48 31 c54 37 85 90 84 147 -1 48 -13 73 -53
100 -46 33 -171 37 -261 9z"/>
<path d="M5047 960 c-81 -121 -147 -224 -147 -230 0 -6 51 -10 135 -10 l136 0
-3 -82 c-3 -75 -5 -84 -25 -93 -43 -18 -23 -25 72 -25 95 0 115 7 73 25 -21 9
-23 18 -26 93 l-3 82 55 0 54 0 4 45 c2 37 0 45 -13 45 -9 0 -24 -11 -33 -25
-10 -16 -26 -25 -41 -25 l-25 0 0 210 0 210 -33 0 c-33 0 -38 -7 -180 -220z
m128 -77 l-7 -123 -90 0 c-49 0 -88 4 -86 9 2 5 44 74 93 154 104 167 102 168
90 -40z"/>
<path d="M6680 1158 c-39 -15 -74 -40 -121 -87 -90 -91 -114 -154 -114 -306 0
-127 17 -173 82 -222 34 -26 43 -28 128 -28 82 0 95 3 132 27 112 74 114 292
3 350 -51 27 -133 24 -199 -7 -30 -14 -55 -24 -57 -22 -2 1 4 26 12 55 33 111
124 199 219 210 40 4 46 8 43 26 -4 29 -58 31 -128 4z m57 -320 c34 -38 43
-64 43 -128 0 -109 -41 -160 -129 -160 -81 0 -125 71 -119 195 l3 69 40 23
c55 31 134 32 162 1z"/>
<path d="M1260 900 l0 -30 300 0 300 0 0 30 0 30 -300 0 -300 0 0 -30z"/>
<path d="M1260 700 l0 -30 300 0 300 0 0 30 0 30 -300 0 -300 0 0 -30z"/>
<path d="M3209 546 c-4 -77 -7 -87 -32 -114 -25 -26 -26 -30 -12 -42 13 -11
20 -10 42 7 71 52 102 117 95 194 -4 39 -4 39 -47 39 l-43 0 -3 -84z"/>
<path d="M3959 546 c-4 -77 -7 -87 -32 -114 -25 -26 -26 -30 -12 -42 13 -11
20 -10 42 7 71 52 102 117 95 194 -4 39 -4 39 -47 39 l-43 0 -3 -84z"/>
<path d="M4719 546 c-4 -77 -7 -87 -32 -114 -25 -26 -26 -30 -12 -42 13 -11
20 -10 42 7 71 52 102 117 95 194 -4 39 -4 39 -47 39 l-43 0 -3 -84z"/>
<path d="M5479 546 c-4 -77 -7 -87 -32 -114 -25 -26 -26 -30 -12 -42 13 -11
20 -10 42 7 71 52 102 117 95 194 -4 39 -4 39 -47 39 l-43 0 -3 -84z"/>
<path d="M6239 546 c-4 -77 -7 -87 -32 -114 -25 -26 -26 -30 -12 -42 13 -11
20 -10 42 7 71 52 102 117 95 194 -4 39 -4 39 -47 39 l-43 0 -3 -84z"/>
</g>
</svg>
