<?xml version="1.0" standalone="no"?>
<!DOCTYPE svg PUBLIC "-//W3C//DTD SVG 20010904//EN"
 "http://www.w3.org/TR/2001/REC-SVG-20010904/DTD/svg10.dtd">
<svg version="1.0" xmlns="http://www.w3.org/2000/svg"
 width="755.000000pt" height="603.000000pt" viewBox="0 0 755.000000 603.000000"
 preserveAspectRatio="xMidYMid meet">

<g transform="translate(0.000000,603.000000) scale(0.100000,-0.100000)"
fill="#000000" stroke="none">
<path d="M2256 5823 c-104 -143 -211 -426 -265 -698 -43 -215 -46 -284 -46
-930 0 -595 1 -626 23 -764 53 -335 150 -619 279 -814 67 -101 77 -71 14 39
-114 198 -191 457 -238 804 -16 119 -18 209 -18 745 0 646 3 698 51 960 43
236 122 468 209 613 25 41 45 78 45 83 0 21 -22 5 -54 -38z"/>
<path d="M6386 5862 c-3 -5 7 -26 21 -47 131 -193 233 -543 273 -938 16 -161
13 -1206 -5 -1370 -39 -364 -133 -683 -258 -880 -42 -65 -43 -67 -22 -67 20 0
96 117 145 223 81 175 150 411 187 647 16 102 18 187 18 780 0 507 -3 686 -13
755 -52 341 -148 631 -277 833 -45 69 -58 81 -69 64z"/>
<path d="M2410 5790 c-67 -71 -68 -273 -2 -342 21 -23 35 -28 72 -28 90 0 129
61 130 202 0 144 -34 198 -126 198 -38 0 -51 -5 -74 -30z m114 -9 c42 -47 45
-264 5 -316 -26 -32 -63 -33 -84 -1 -40 60 -39 273 1 317 22 24 56 24 78 0z"/>
<path d="M3368 5783 c-32 -19 -58 -42 -58 -50 0 -12 7 -10 35 7 19 12 39 19
45 15 6 -4 10 -63 10 -150 0 -132 -2 -145 -19 -155 -11 -5 -29 -10 -40 -10
-12 0 -21 -4 -21 -10 0 -6 42 -10 105 -10 103 0 138 12 71 24 -19 4 -37 14
-40 22 -3 9 -6 92 -6 185 0 129 -3 169 -12 168 -7 0 -39 -17 -70 -36z"/>
<path d="M4298 5783 c-32 -19 -58 -42 -58 -50 0 -12 7 -10 35 7 19 12 39 19
45 15 6 -4 10 -63 10 -150 0 -132 -2 -145 -19 -155 -11 -5 -29 -10 -40 -10
-12 0 -21 -4 -21 -10 0 -6 42 -10 105 -10 103 0 138 12 71 24 -19 4 -37 14
-40 22 -3 9 -6 92 -6 185 0 129 -3 169 -12 168 -7 0 -39 -17 -70 -36z"/>
<path d="M5200 5790 c-67 -71 -68 -273 -2 -342 21 -23 35 -28 72 -28 90 0 129
61 130 202 0 144 -34 198 -126 198 -38 0 -51 -5 -74 -30z m114 -9 c42 -47 45
-264 5 -316 -26 -32 -63 -33 -84 -1 -40 60 -39 273 1 317 22 24 56 24 78 0z"/>
<path d="M6130 5790 c-67 -71 -68 -273 -2 -342 21 -23 35 -28 72 -28 90 0 129
61 130 202 0 144 -34 198 -126 198 -38 0 -51 -5 -74 -30z m114 -9 c42 -47 45
-264 5 -316 -26 -32 -63 -33 -84 -1 -40 60 -39 273 1 317 22 24 56 24 78 0z"/>
<path d="M2438 5083 c-32 -19 -58 -42 -58 -50 0 -12 7 -10 35 7 19 12 39 19
45 15 6 -4 10 -63 10 -150 0 -132 -2 -145 -19 -155 -11 -5 -29 -10 -40 -10
-12 0 -21 -4 -21 -10 0 -6 42 -10 105 -10 103 0 138 12 71 24 -19 4 -37 14
-40 22 -3 9 -6 92 -6 185 0 129 -3 169 -12 168 -7 0 -39 -17 -70 -36z"/>
<path d="M3340 5090 c-67 -71 -68 -273 -2 -342 21 -23 35 -28 72 -28 90 0 129
61 130 202 0 144 -34 198 -126 198 -38 0 -51 -5 -74 -30z m114 -9 c42 -47 45
-264 5 -316 -26 -32 -63 -33 -84 -1 -40 60 -39 273 1 317 22 24 56 24 78 0z"/>
<path d="M4298 5083 c-32 -19 -58 -42 -58 -50 0 -12 7 -10 35 7 19 12 39 19
45 15 6 -4 10 -63 10 -150 0 -132 -2 -145 -19 -155 -11 -5 -29 -10 -40 -10
-12 0 -21 -4 -21 -10 0 -6 42 -10 105 -10 103 0 138 12 71 24 -19 4 -37 14
-40 22 -3 9 -6 92 -6 185 0 129 -3 169 -12 168 -7 0 -39 -17 -70 -36z"/>
<path d="M5200 5090 c-67 -71 -68 -273 -2 -342 21 -23 35 -28 72 -28 90 0 129
61 130 202 0 144 -34 198 -126 198 -38 0 -51 -5 -74 -30z m114 -9 c42 -47 45
-264 5 -316 -26 -32 -63 -33 -84 -1 -40 60 -39 273 1 317 22 24 56 24 78 0z"/>
<path d="M6130 5090 c-67 -71 -68 -273 -2 -342 21 -23 35 -28 72 -28 90 0 129
61 130 202 0 144 -34 198 -126 198 -38 0 -51 -5 -74 -30z m114 -9 c42 -47 45
-264 5 -316 -26 -32 -63 -33 -84 -1 -40 60 -39 273 1 317 22 24 56 24 78 0z"/>
<path d="M850 4274 c-52 -91 -107 -180 -122 -196 -16 -17 -28 -32 -28 -34 0
-2 28 -4 62 -4 59 0 60 1 45 18 -21 23 -21 33 0 77 l17 35 68 0 68 0 0 -49 c0
-39 -4 -52 -22 -64 -22 -15 -20 -16 40 -16 55 -1 82 11 50 21 -9 3 -34 239
-37 361 -1 11 -9 17 -24 17 -19 0 -38 -28 -117 -166z m102 -1 l4 -73 -57 0
-57 0 51 93 c34 59 53 85 54 72 1 -11 4 -53 5 -92z"/>
<path d="M2438 4383 c-32 -19 -58 -42 -58 -50 0 -12 7 -10 35 7 19 12 39 19
45 15 6 -4 10 -63 10 -150 0 -132 -2 -145 -19 -155 -11 -5 -29 -10 -40 -10
-12 0 -21 -4 -21 -10 0 -6 42 -10 105 -10 103 0 138 12 71 24 -19 4 -37 14
-40 22 -3 9 -6 92 -6 185 0 129 -3 169 -12 168 -7 0 -39 -17 -70 -36z"/>
<path d="M3368 4383 c-32 -19 -58 -42 -58 -50 0 -12 7 -10 35 7 19 12 39 19
45 15 6 -4 10 -63 10 -150 0 -132 -2 -145 -19 -155 -11 -5 -29 -10 -40 -10
-12 0 -21 -4 -21 -10 0 -6 42 -10 105 -10 103 0 138 12 71 24 -19 4 -37 14
-40 22 -3 9 -6 92 -6 185 0 129 -3 169 -12 168 -7 0 -39 -17 -70 -36z"/>
<path d="M4270 4390 c-67 -71 -68 -273 -2 -342 21 -23 35 -28 72 -28 90 0 129
61 130 202 0 144 -34 198 -126 198 -38 0 -51 -5 -74 -30z m114 -9 c42 -47 45
-264 5 -316 -26 -32 -63 -33 -84 -1 -40 60 -39 273 1 317 22 24 56 24 78 0z"/>
<path d="M5200 4390 c-67 -71 -68 -273 -2 -342 21 -23 35 -28 72 -28 90 0 129
61 130 202 0 144 -34 198 -126 198 -38 0 -51 -5 -74 -30z m114 -9 c42 -47 45
-264 5 -316 -26 -32 -63 -33 -84 -1 -40 60 -39 273 1 317 22 24 56 24 78 0z"/>
<path d="M6130 4390 c-67 -71 -68 -273 -2 -342 21 -23 35 -28 72 -28 90 0 129
61 130 202 0 144 -34 198 -126 198 -38 0 -51 -5 -74 -30z m114 -9 c42 -47 45
-264 5 -316 -26 -32 -63 -33 -84 -1 -40 60 -39 273 1 317 22 24 56 24 78 0z"/>
<path d="M1300 4270 c0 -19 7 -20 180 -20 173 0 180 1 180 20 0 19 -7 20 -180
20 -173 0 -180 -1 -180 -20z"/>
<path d="M1300 4150 c0 -19 7 -20 180 -20 173 0 180 1 180 20 0 19 -7 20 -180
20 -173 0 -180 -1 -180 -20z"/>
<path d="M2410 3680 c-67 -71 -68 -273 -2 -342 21 -23 35 -28 72 -28 90 0 129
61 130 202 0 144 -34 198 -126 198 -38 0 -51 -5 -74 -30z m114 -9 c42 -47 45
-264 5 -316 -26 -32 -63 -33 -84 -1 -40 60 -39 273 1 317 22 24 56 24 78 0z"/>
<path d="M3340 3680 c-67 -71 -68 -273 -2 -342 21 -23 35 -28 72 -28 90 0 129
61 130 202 0 144 -34 198 -126 198 -38 0 -51 -5 -74 -30z m114 -9 c42 -47 45
-264 5 -316 -26 -32 -63 -33 -84 -1 -40 60 -39 273 1 317 22 24 56 24 78 0z"/>
<path d="M4270 3680 c-67 -71 -68 -273 -2 -342 21 -23 35 -28 72 -28 90 0 129
61 130 202 0 144 -34 198 -126 198 -38 0 -51 -5 -74 -30z m114 -9 c42 -47 45
-264 5 -316 -26 -32 -63 -33 -84 -1 -40 60 -39 273 1 317 22 24 56 24 78 0z"/>
<path d="M5200 3680 c-67 -71 -68 -273 -2 -342 21 -23 35 -28 72 -28 90 0 129
61 130 202 0 144 -34 198 -126 198 -38 0 -51 -5 -74 -30z m114 -9 c42 -47 45
-264 5 -316 -26 -32 -63 -33 -84 -1 -40 60 -39 273 1 317 22 24 56 24 78 0z"/>
<path d="M6158 3673 c-32 -19 -58 -42 -58 -50 0 -12 7 -10 35 7 19 12 39 19
45 15 6 -4 10 -63 10 -150 0 -132 -2 -145 -19 -155 -11 -5 -29 -10 -40 -10
-12 0 -21 -4 -21 -10 0 -6 42 -10 105 -10 103 0 138 12 71 24 -19 4 -37 14
-40 22 -3 9 -6 92 -6 185 0 129 -3 169 -12 168 -7 0 -39 -17 -70 -36z"/>
<path d="M2410 2980 c-67 -71 -68 -273 -2 -342 21 -23 35 -28 72 -28 90 0 129
61 130 202 0 144 -34 198 -126 198 -38 0 -51 -5 -74 -30z m114 -9 c42 -47 45
-264 5 -316 -26 -32 -63 -33 -84 -1 -40 60 -39 273 1 317 22 24 56 24 78 0z"/>
<path d="M3340 2980 c-67 -71 -68 -273 -2 -342 21 -23 35 -28 72 -28 90 0 129
61 130 202 0 144 -34 198 -126 198 -38 0 -51 -5 -74 -30z m114 -9 c42 -47 45
-264 5 -316 -26 -32 -63 -33 -84 -1 -40 60 -39 273 1 317 22 24 56 24 78 0z"/>
<path d="M4270 2980 c-67 -71 -68 -273 -2 -342 21 -23 35 -28 72 -28 90 0 129
61 130 202 0 144 -34 198 -126 198 -38 0 -51 -5 -74 -30z m114 -9 c42 -47 45
-264 5 -316 -26 -32 -63 -33 -84 -1 -40 60 -39 273 1 317 22 24 56 24 78 0z"/>
<path d="M5228 2973 c-32 -19 -58 -42 -58 -50 0 -12 7 -10 35 7 19 12 39 19
45 15 6 -4 10 -63 10 -150 0 -132 -2 -145 -19 -155 -11 -5 -29 -10 -40 -10
-12 0 -21 -4 -21 -10 0 -6 42 -10 105 -10 103 0 138 12 71 24 -19 4 -37 14
-40 22 -3 9 -6 92 -6 185 0 129 -3 169 -12 168 -7 0 -39 -17 -70 -36z"/>
<path d="M6130 2980 c-67 -71 -68 -273 -2 -342 21 -23 35 -28 72 -28 90 0 129
61 130 202 0 144 -34 198 -126 198 -38 0 -51 -5 -74 -30z m114 -9 c42 -47 45
-264 5 -316 -26 -32 -63 -33 -84 -1 -40 60 -39 273 1 317 22 24 56 24 78 0z"/>
<path d="M3185 2051 c-49 -20 -60 -48 -60 -145 0 -85 -2 -92 -22 -101 -13 -5
-23 -15 -23 -22 0 -6 10 -13 23 -15 21 -3 22 -7 22 -100 0 -92 2 -99 26 -123
28 -28 109 -48 109 -26 0 6 -9 11 -20 11 -12 0 -33 12 -47 26 -25 25 -25 29
-19 109 7 80 6 84 -17 102 l-25 19 25 22 c23 21 24 25 17 101 -6 76 -5 80 19
105 14 14 35 26 47 26 11 0 20 5 20 10 0 12 -47 12 -75 1z"/>
<path d="M5345 2050 c-3 -5 -46 -10 -96 -10 l-89 0 0 -94 c0 -62 4 -97 12
-102 6 -4 35 -6 64 -5 67 3 94 -22 94 -86 0 -54 -33 -93 -80 -93 -29 0 -70 29
-70 50 0 6 -9 10 -20 10 -16 0 -20 -7 -20 -30 0 -38 27 -50 108 -50 76 0 117
25 132 80 26 96 -47 172 -144 150 l-36 -8 0 64 0 64 85 0 85 0 0 35 c0 34 -12
46 -25 25z"/>
<path d="M5450 2050 c0 -5 10 -10 23 -10 13 0 34 -11 47 -25 21 -23 23 -30 17
-106 -6 -76 -5 -82 16 -101 l23 -21 -22 -23 c-22 -21 -23 -28 -17 -106 6 -83
5 -85 -22 -106 -15 -12 -36 -22 -46 -22 -11 0 -19 -4 -19 -10 0 -16 59 -12 91
7 40 24 51 59 47 149 -3 74 -2 80 20 89 12 5 22 14 22 20 0 6 -10 15 -22 20
-22 9 -23 15 -20 89 4 90 -7 125 -47 149 -32 19 -91 23 -91 7z"/>
<path d="M1950 2034 c0 -4 7 -12 14 -18 8 -6 28 -48 45 -93 l29 -82 -70 -83
c-38 -46 -76 -88 -84 -94 -24 -19 -16 -24 36 -24 47 0 63 11 40 25 -7 4 -6 14
2 28 15 30 79 107 88 107 4 0 15 -27 25 -60 18 -58 18 -61 0 -80 -18 -20 -17
-20 44 -20 l62 0 -20 26 c-11 14 -32 61 -46 105 l-27 79 72 85 c39 47 75 85
81 85 5 0 9 5 9 10 0 6 -26 10 -57 10 -44 0 -54 -3 -45 -12 20 -20 14 -37 -30
-94 l-43 -55 -14 33 c-24 59 -26 97 -5 113 17 13 13 14 -43 15 -35 0 -63 -3
-63 -6z"/>
<path d="M3398 2003 c-32 -19 -58 -42 -58 -50 0 -12 7 -10 35 7 19 12 39 19
45 15 6 -4 10 -63 10 -150 0 -132 -2 -145 -19 -155 -11 -5 -29 -10 -40 -10
-12 0 -21 -4 -21 -10 0 -6 42 -10 105 -10 103 0 138 12 71 24 -19 4 -37 14
-40 22 -3 9 -6 92 -6 185 0 129 -3 169 -12 168 -7 0 -39 -17 -70 -36z"/>
<path d="M3823 2028 c-27 -9 -33 -16 -33 -39 0 -37 15 -37 50 1 51 55 120 28
120 -48 0 -41 -11 -60 -80 -142 -60 -69 -100 -129 -100 -146 0 -11 25 -14 120
-14 l120 0 0 45 c0 49 -8 56 -28 25 -10 -17 -23 -20 -82 -20 -85 0 -85 1 14
108 69 76 96 118 96 152 0 26 -18 61 -39 77 -19 15 -113 15 -158 1z"/>
<path d="M4273 2028 c-27 -9 -33 -16 -33 -39 0 -37 15 -37 50 1 33 35 71 39
100 10 22 -22 26 -60 10 -91 -12 -22 -61 -49 -90 -49 -11 0 -20 -7 -20 -15 0
-10 10 -15 30 -15 61 0 100 -37 100 -96 0 -35 -42 -74 -80 -74 -29 0 -70 29
-70 50 0 6 -9 10 -20 10 -16 0 -20 -7 -20 -30 0 -37 27 -50 106 -50 92 0 134
36 134 116 0 40 -44 94 -77 94 -13 0 -10 5 12 18 44 27 57 47 58 88 2 54 -37
84 -106 83 -29 -1 -67 -6 -84 -11z"/>
<path d="M4757 1910 c-48 -71 -87 -134 -87 -140 0 -6 35 -10 85 -10 l85 0 0
-40 c0 -27 -6 -45 -22 -60 l-22 -20 62 0 c64 0 73 5 47 24 -8 6 -17 30 -21 54
l-7 42 42 0 c39 0 41 2 41 30 0 33 -11 38 -30 15 -7 -8 -21 -15 -31 -15 -18 0
-19 9 -19 125 0 168 -8 168 -123 -5z m80 -117 c-3 -2 -30 -3 -61 -1 l-56 3 58
90 57 90 3 -89 c2 -49 1 -90 -1 -93z"/>
<path d="M2480 1870 c0 -19 7 -20 180 -20 173 0 180 1 180 20 0 19 -7 20 -180
20 -173 0 -180 -1 -180 -20z"/>
<path d="M2480 1750 c0 -19 7 -20 180 -20 173 0 180 1 180 20 0 19 -7 20 -180
20 -173 0 -180 -1 -180 -20z"/>
<path d="M3650 1665 c0 -25 -7 -56 -16 -69 -25 -39 1 -39 35 -1 24 27 31 45
31 75 0 36 -3 40 -25 40 -23 0 -25 -4 -25 -45z"/>
<path d="M4110 1665 c0 -25 -7 -56 -16 -69 -25 -39 1 -39 35 -1 24 27 31 45
31 75 0 36 -3 40 -25 40 -23 0 -25 -4 -25 -45z"/>
<path d="M4560 1665 c0 -25 -7 -56 -16 -69 -25 -39 1 -39 35 -1 24 27 31 45
31 75 0 36 -3 40 -25 40 -23 0 -25 -4 -25 -45z"/>
<path d="M5020 1665 c0 -25 -7 -56 -16 -69 -25 -39 1 -39 35 -1 24 27 31 45
31 75 0 36 -3 40 -25 40 -23 0 -25 -4 -25 -45z"/>
<path d="M1690 755 l0 -275 65 0 c37 0 65 4 65 10 0 6 -20 10 -45 10 l-45 0 0
255 0 255 45 0 c25 0 45 5 45 10 0 6 -28 10 -65 10 l-65 0 0 -275z"/>
<path d="M2630 1020 c0 -5 20 -10 45 -10 l45 0 0 -255 0 -255 -45 0 c-25 0
-45 -4 -45 -10 0 -6 28 -10 65 -10 l65 0 0 275 0 275 -65 0 c-37 0 -65 -4 -65
-10z"/>
<path d="M3120 755 l0 -275 65 0 c37 0 65 4 65 10 0 6 -20 10 -45 10 l-45 0 0
255 0 255 45 0 c25 0 45 5 45 10 0 6 -28 10 -65 10 l-65 0 0 -275z"/>
<path d="M4060 1020 c0 -5 20 -10 45 -10 l45 0 0 -255 0 -255 -45 0 c-25 0
-45 -4 -45 -10 0 -6 28 -10 65 -10 l65 0 0 275 0 275 -65 0 c-37 0 -65 -4 -65
-10z"/>
<path d="M4550 755 l0 -275 65 0 c37 0 65 4 65 10 0 6 -20 10 -45 10 l-45 0 0
255 0 255 45 0 c25 0 45 5 45 10 0 6 -28 10 -65 10 l-65 0 0 -275z"/>
<path d="M5480 1020 c0 -5 20 -10 45 -10 l45 0 0 -255 0 -255 -45 0 c-25 0
-45 -4 -45 -10 0 -6 28 -10 65 -10 l65 0 0 275 0 275 -65 0 c-37 0 -65 -4 -65
-10z"/>
<path d="M5980 755 l0 -275 65 0 c37 0 65 4 65 10 0 6 -20 10 -45 10 l-45 0 0
255 0 255 45 0 c25 0 45 5 45 10 0 6 -28 10 -65 10 l-65 0 0 -275z"/>
<path d="M6910 1020 c0 -5 20 -10 45 -10 l45 0 0 -255 0 -255 -45 0 c-25 0
-45 -4 -45 -10 0 -6 28 -10 65 -10 l65 0 0 275 0 275 -65 0 c-37 0 -65 -4 -65
-10z"/>
<path d="M1525 991 c-49 -20 -60 -48 -60 -145 0 -85 -2 -92 -22 -101 -13 -5
-23 -15 -23 -22 0 -6 10 -13 23 -15 21 -3 22 -7 22 -100 0 -92 2 -99 26 -123
28 -28 109 -48 109 -26 0 6 -9 11 -20 11 -12 0 -33 12 -47 26 -25 25 -25 29
-19 109 7 80 6 84 -17 102 l-25 19 25 22 c23 21 24 25 17 101 -6 76 -5 80 19
105 14 14 35 26 47 26 11 0 20 5 20 10 0 12 -47 12 -75 1z"/>
<path d="M6815 990 c-3 -5 -46 -10 -96 -10 l-89 0 0 -94 c0 -62 4 -97 12 -102
6 -4 35 -6 64 -5 67 3 94 -22 94 -86 0 -54 -33 -93 -80 -93 -29 0 -70 29 -70
50 0 6 -9 10 -20 10 -16 0 -20 -7 -20 -30 0 -38 27 -50 108 -50 76 0 117 25
132 80 26 96 -47 172 -144 150 l-36 -8 0 64 0 64 85 0 85 0 0 35 c0 34 -12 46
-25 25z"/>
<path d="M7130 990 c0 -5 10 -10 23 -10 13 0 34 -11 47 -25 21 -23 23 -30 17
-106 -6 -76 -5 -82 16 -101 l23 -21 -22 -23 c-22 -21 -23 -28 -17 -106 6 -83
5 -85 -22 -106 -15 -12 -36 -22 -46 -22 -11 0 -19 -4 -19 -10 0 -16 59 -12 91
7 40 24 51 59 47 149 -3 74 -2 80 20 89 12 5 22 14 22 20 0 6 -10 15 -22 20
-22 9 -23 15 -20 89 4 90 -7 125 -47 149 -32 19 -91 23 -91 7z"/>
<path d="M273 966 c22 -17 22 -22 -8 -154 -32 -142 -32 -176 0 -207 20 -21 34
-25 79 -25 109 0 133 29 176 217 16 70 30 131 30 135 0 4 10 16 22 28 l22 20
-57 0 c-31 0 -57 -4 -57 -10 0 -5 5 -10 10 -10 16 0 12 -42 -16 -168 -37 -165
-54 -192 -122 -192 -38 0 -62 28 -62 71 1 65 56 279 76 294 17 13 12 14 -46
14 -56 0 -63 -1 -47 -13z"/>
<path d="M1948 943 c-32 -19 -58 -42 -58 -50 0 -12 7 -10 35 7 19 12 39 19 45
15 6 -4 10 -63 10 -150 0 -132 -2 -145 -19 -155 -11 -5 -29 -10 -40 -10 -12 0
-21 -4 -21 -10 0 -6 42 -10 105 -10 103 0 138 12 71 24 -19 4 -37 14 -40 22
-3 9 -6 92 -6 185 0 129 -3 169 -12 168 -7 0 -39 -17 -70 -36z"/>
<path d="M2373 968 c-27 -9 -33 -16 -33 -39 0 -37 15 -37 50 1 51 55 120 28
120 -48 0 -41 -11 -60 -80 -142 -60 -69 -100 -129 -100 -146 0 -11 25 -14 120
-14 l120 0 0 45 c0 49 -8 56 -28 25 -10 -17 -23 -20 -82 -20 -85 0 -85 1 14
108 69 76 96 118 96 152 0 26 -18 61 -39 77 -19 15 -113 15 -158 1z"/>
<path d="M3378 943 c-32 -19 -58 -42 -58 -50 0 -12 7 -10 35 7 19 12 39 19 45
15 6 -4 10 -63 10 -150 0 -132 -2 -145 -19 -155 -11 -5 -29 -10 -40 -10 -12 0
-21 -4 -21 -10 0 -6 42 -10 105 -10 103 0 138 12 71 24 -19 4 -37 14 -40 22
-3 9 -6 92 -6 185 0 129 -3 169 -12 168 -7 0 -39 -17 -70 -36z"/>
<path d="M3803 968 c-27 -9 -33 -16 -33 -39 0 -37 15 -37 50 1 33 35 71 39
100 10 22 -22 26 -60 10 -91 -12 -22 -61 -49 -90 -49 -11 0 -20 -7 -20 -15 0
-10 10 -15 30 -15 61 0 100 -37 100 -96 0 -35 -42 -74 -80 -74 -29 0 -70 29
-70 50 0 6 -9 10 -20 10 -16 0 -20 -7 -20 -30 0 -37 27 -50 106 -50 92 0 134
36 134 116 0 40 -44 94 -77 94 -13 0 -10 5 12 18 44 27 57 47 58 88 2 54 -37
84 -106 83 -29 -1 -67 -6 -84 -11z"/>
<path d="M4773 968 c-27 -9 -33 -16 -33 -39 0 -37 15 -37 50 1 51 55 120 28
120 -48 0 -41 -11 -60 -80 -142 -60 -69 -100 -129 -100 -146 0 -11 25 -14 120
-14 l120 0 0 45 c0 49 -8 56 -28 25 -10 -17 -23 -20 -82 -20 -85 0 -85 1 14
108 69 76 96 118 96 152 0 26 -18 61 -39 77 -19 15 -113 15 -158 1z"/>
<path d="M5223 968 c-27 -9 -33 -16 -33 -39 0 -37 15 -37 50 1 33 35 71 39
100 10 22 -22 26 -60 10 -91 -12 -22 -61 -49 -90 -49 -11 0 -20 -7 -20 -15 0
-10 10 -15 30 -15 61 0 100 -37 100 -96 0 -35 -42 -74 -80 -74 -29 0 -70 29
-70 50 0 6 -9 10 -20 10 -16 0 -20 -7 -20 -30 0 -37 27 -50 106 -50 92 0 134
36 134 116 0 40 -44 94 -77 94 -13 0 -10 5 12 18 44 27 57 47 58 88 2 54 -37
84 -106 83 -29 -1 -67 -6 -84 -11z"/>
<path d="M6227 850 c-48 -71 -87 -134 -87 -140 0 -6 35 -10 85 -10 l85 0 0
-40 c0 -27 -6 -45 -22 -60 l-22 -20 62 0 c64 0 73 5 47 24 -8 6 -17 30 -21 54
l-7 42 42 0 c39 0 41 2 41 30 0 33 -11 38 -30 15 -7 -8 -21 -15 -31 -15 -18 0
-19 9 -19 125 0 168 -8 168 -123 -5z m80 -117 c-3 -2 -30 -3 -61 -1 l-56 3 58
90 57 90 3 -89 c2 -49 1 -90 -1 -93z"/>
<path d="M820 810 c0 -19 7 -20 180 -20 173 0 180 1 180 20 0 19 -7 20 -180
20 -173 0 -180 -1 -180 -20z"/>
<path d="M820 690 c0 -19 7 -20 180 -20 173 0 180 1 180 20 0 19 -7 20 -180
20 -173 0 -180 -1 -180 -20z"/>
<path d="M2210 605 c0 -25 -7 -56 -16 -69 -25 -39 1 -39 35 -1 24 27 31 45 31
75 0 36 -3 40 -25 40 -23 0 -25 -4 -25 -45z"/>
<path d="M2870 605 c0 -25 -7 -56 -16 -69 -25 -39 1 -39 35 -1 24 27 31 45 31
75 0 36 -3 40 -25 40 -23 0 -25 -4 -25 -45z"/>
<path d="M3630 605 c0 -25 -7 -56 -16 -69 -25 -39 1 -39 35 -1 24 27 31 45 31
75 0 36 -3 40 -25 40 -23 0 -25 -4 -25 -45z"/>
<path d="M4300 605 c0 -25 -7 -56 -16 -69 -25 -39 1 -39 35 -1 24 27 31 45 31
75 0 36 -3 40 -25 40 -23 0 -25 -4 -25 -45z"/>
<path d="M5060 605 c0 -25 -7 -56 -16 -69 -25 -39 1 -39 35 -1 24 27 31 45 31
75 0 36 -3 40 -25 40 -23 0 -25 -4 -25 -45z"/>
<path d="M5720 605 c0 -25 -7 -56 -16 -69 -25 -39 1 -39 35 -1 24 27 31 45 31
75 0 36 -3 40 -25 40 -23 0 -25 -4 -25 -45z"/>
<path d="M6490 605 c0 -25 -7 -56 -16 -69 -25 -39 1 -39 35 -1 24 27 31 45 31
75 0 36 -3 40 -25 40 -23 0 -25 -4 -25 -45z"/>
</g>
</svg>
