<?xml version="1.0" standalone="no"?>
<!DOCTYPE svg PUBLIC "-//W3C//DTD SVG 20010904//EN"
 "http://www.w3.org/TR/2001/REC-SVG-20010904/DTD/svg10.dtd">
<svg version="1.0" xmlns="http://www.w3.org/2000/svg"
 width="3785.000000pt" height="447.000000pt" viewBox="0 0 3785.000000 447.000000"
 preserveAspectRatio="xMidYMid meet">

<g transform="translate(0.000000,447.000000) scale(0.100000,-0.100000)"
fill="#000000" stroke="none">
<path d="M8970 4221 c-41 -5 -56 -10 -58 -23 -2 -13 3 -18 18 -18 33 0 57 -17
64 -45 7 -27 -40 -274 -54 -289 -5 -5 -26 -2 -50 8 -77 31 -193 21 -270 -22
-138 -77 -226 -241 -237 -437 -8 -159 30 -241 126 -271 95 -30 190 22 304 166
l27 35 -6 -62 c-11 -105 24 -150 113 -146 52 2 112 35 167 92 39 40 39 41 21
61 -18 20 -18 20 -60 -19 -49 -45 -77 -56 -105 -41 -38 21 -38 23 103 648 l84
372 -66 -2 c-36 -1 -91 -4 -121 -7z m-113 -426 c36 -25 46 -73 33 -165 -25
-180 -97 -320 -207 -398 -40 -28 -112 -30 -136 -4 -27 29 -38 116 -28 201 30
231 136 381 271 381 25 0 55 -7 67 -15z"/>
<path d="M25900 4221 c-41 -5 -56 -10 -58 -23 -2 -13 3 -18 18 -18 33 0 57
-17 64 -45 7 -27 -40 -274 -54 -289 -5 -5 -26 -2 -50 8 -77 31 -193 21 -270
-22 -138 -77 -226 -241 -237 -437 -8 -159 30 -241 126 -271 95 -30 190 22 304
166 l27 35 -6 -62 c-11 -105 24 -150 113 -146 52 2 112 35 167 92 39 40 39 41
21 61 -18 20 -18 20 -60 -19 -49 -45 -77 -56 -105 -41 -38 21 -38 23 103 648
l84 372 -66 -2 c-36 -1 -91 -4 -121 -7z m-113 -426 c36 -25 46 -73 33 -165
-25 -180 -97 -320 -207 -398 -40 -28 -112 -30 -136 -4 -27 29 -38 116 -28 201
30 231 136 381 271 381 25 0 55 -7 67 -15z"/>
<path d="M30180 4221 c-41 -5 -56 -10 -58 -23 -2 -13 3 -18 18 -18 33 0 57
-17 64 -45 7 -27 -40 -274 -54 -289 -5 -5 -26 -2 -50 8 -77 31 -193 21 -270
-22 -138 -77 -226 -241 -237 -437 -8 -159 30 -241 126 -271 95 -30 190 22 304
166 l27 35 -6 -62 c-11 -105 24 -150 113 -146 52 2 112 35 167 92 39 40 39 41
21 61 -18 20 -18 20 -60 -19 -49 -45 -77 -56 -105 -41 -38 21 -38 23 103 648
l84 372 -66 -2 c-36 -1 -91 -4 -121 -7z m-113 -426 c36 -25 46 -73 33 -165
-25 -180 -97 -320 -207 -398 -40 -28 -112 -30 -136 -4 -27 29 -38 116 -28 201
30 231 136 381 271 381 25 0 55 -7 67 -15z"/>
<path d="M31850 4221 c-41 -5 -56 -10 -58 -23 -2 -13 3 -18 18 -18 34 0 58
-18 65 -48 4 -19 -22 -155 -74 -389 -97 -434 -106 -488 -92 -540 31 -116 154
-117 284 -3 l48 43 -22 23 -23 24 -35 -34 c-36 -34 -71 -56 -90 -56 -19 0 -41
32 -41 61 0 24 191 914 205 957 5 13 -77 14 -185 3z"/>
<path d="M34520 4221 c-41 -5 -56 -10 -58 -23 -2 -13 3 -18 18 -18 34 0 58
-18 65 -48 4 -19 -22 -155 -74 -389 -97 -434 -106 -488 -92 -540 31 -116 154
-117 284 -3 l48 43 -22 23 -23 24 -35 -34 c-36 -34 -71 -56 -90 -56 -19 0 -41
32 -41 61 0 24 191 914 205 957 5 13 -77 14 -185 3z"/>
<path d="M10987 4203 c-15 -4 -17 -11 -12 -31 31 -124 102 -183 221 -183 113
0 185 50 220 155 18 53 18 52 -16 61 -21 5 -28 0 -45 -31 -32 -59 -82 -86
-159 -86 -54 0 -71 5 -99 26 -19 14 -42 42 -53 61 -18 35 -23 37 -57 28z"/>
<path d="M24257 4203 c-15 -4 -17 -11 -12 -31 31 -124 102 -183 221 -183 113
0 185 50 220 155 18 53 18 52 -16 61 -21 5 -28 0 -45 -31 -32 -59 -82 -86
-159 -86 -54 0 -71 5 -99 26 -19 14 -42 42 -53 61 -18 35 -23 37 -57 28z"/>
<path d="M6190 4174 c-114 -31 -202 -150 -235 -319 -19 -94 -22 -307 -5 -409
16 -99 58 -200 104 -247 108 -113 308 -113 421 -1 113 113 165 395 120 658
-30 178 -109 287 -230 319 -72 18 -103 18 -175 -1z m177 -99 c66 -77 101 -275
89 -515 -7 -161 -18 -217 -52 -288 -31 -63 -72 -92 -129 -92 -128 0 -185 150
-186 487 0 249 28 365 103 428 28 24 38 27 87 23 49 -4 59 -9 88 -43z"/>
<path d="M12231 4109 c-7 -34 -15 -67 -18 -75 -4 -11 9 -14 64 -14 l70 0 12
53 c6 28 14 62 17 75 6 21 4 22 -64 22 l-69 0 -12 -61z"/>
<path d="M14920 4118 c-6 -29 -13 -63 -16 -75 -6 -22 -4 -23 63 -23 l69 0 12
60 c7 34 15 67 19 75 4 12 -8 15 -65 15 l-70 0 -12 -52z"/>
<path d="M22521 4109 c-7 -34 -15 -67 -18 -75 -4 -11 9 -14 64 -14 l70 0 12
53 c6 28 14 62 17 75 6 21 4 22 -64 22 l-69 0 -12 -61z"/>
<path d="M33651 4109 c-7 -34 -15 -67 -18 -75 -4 -11 9 -14 64 -14 l70 0 12
53 c6 28 14 62 17 75 6 21 4 22 -64 22 l-69 0 -12 -61z"/>
<path d="M36400 4118 c-6 -29 -13 -63 -16 -75 -6 -22 -4 -23 63 -23 l69 0 12
60 c7 34 15 67 19 75 4 12 -8 15 -65 15 l-70 0 -12 -52z"/>
<path d="M5702 4071 c-120 -42 -236 -158 -282 -283 -64 -177 -66 -403 -5 -708
55 -281 45 -400 -42 -482 -15 -14 -44 -30 -63 -35 -31 -8 -35 -13 -38 -45 -3
-34 -1 -37 35 -48 21 -7 51 -24 66 -39 87 -80 98 -201 41 -481 -87 -439 -47
-715 130 -892 48 -48 146 -102 204 -112 31 -5 32 -4 32 28 0 28 -4 35 -26 40
-41 11 -98 51 -131 93 -63 80 -87 150 -105 305 -14 124 -6 208 42 475 61 331
28 504 -112 594 -27 17 -46 35 -43 39 3 5 24 20 48 35 134 86 167 263 108 585
-16 91 -35 208 -42 260 -19 162 4 346 58 454 34 67 111 142 162 157 37 11 41
15 41 46 0 38 -5 39 -78 14z"/>
<path d="M23746 3993 c-35 -112 -63 -142 -140 -153 -36 -4 -41 -9 -44 -32 -3
-28 -3 -28 57 -28 34 0 61 -4 61 -9 0 -5 -21 -98 -46 -207 -82 -359 -60 -448
111 -447 75 1 123 24 202 97 l58 54 -23 25 -24 25 -35 -38 c-19 -22 -54 -48
-78 -60 -38 -19 -50 -20 -79 -10 -21 7 -38 20 -42 33 -14 42 -4 129 31 285 20
86 40 178 46 205 l11 47 118 0 118 0 6 31 c3 17 6 35 6 40 0 5 -52 9 -115 9
-115 0 -115 0 -110 23 26 112 35 153 35 160 0 4 -24 7 -53 7 l-53 0 -18 -57z"/>
<path d="M9635 3865 c-185 -35 -319 -225 -332 -470 -8 -159 30 -241 126 -271
95 -30 190 22 304 166 l27 35 -6 -62 c-11 -105 24 -150 113 -146 52 2 112 35
167 92 39 40 39 41 21 61 -18 20 -18 20 -60 -19 -50 -46 -77 -56 -106 -40 -20
10 -21 17 -16 78 3 36 31 172 61 301 30 129 56 244 58 255 4 29 -44 33 -78 6
-32 -25 -45 -26 -86 -5 -46 24 -125 32 -193 19z m139 -66 c37 -17 50 -59 43
-140 -19 -225 -163 -449 -289 -449 -56 0 -74 19 -88 89 -23 124 23 312 104
420 57 77 159 112 230 80z"/>
<path d="M11205 3872 c-54 -4 -169 -39 -227 -68 -48 -24 -48 -25 -48 -74 l0
-50 49 0 c44 0 50 3 61 29 17 42 62 81 104 91 45 10 119 -6 141 -30 27 -30 44
-90 45 -161 l0 -67 -97 -12 c-230 -29 -343 -106 -343 -235 0 -94 51 -155 145
-175 91 -19 212 24 279 99 29 32 33 26 28 -34 l-4 -55 106 0 c97 0 106 2 106
19 0 12 -9 21 -25 25 -55 14 -60 37 -65 316 -5 234 -7 258 -26 295 -34 64
-118 96 -229 87z m125 -467 c0 -103 -26 -148 -109 -190 -54 -27 -138 -15 -173
25 -30 33 -34 55 -18 111 18 65 94 106 220 119 36 4 68 8 73 9 4 0 7 -33 7
-74z"/>
<path d="M16655 3865 c-185 -35 -319 -225 -332 -470 -8 -159 30 -241 126 -271
95 -30 190 22 304 166 l27 35 -6 -62 c-11 -105 24 -150 113 -146 52 2 112 35
167 92 39 40 39 41 21 61 -18 20 -18 20 -60 -19 -50 -46 -77 -56 -106 -40 -20
10 -21 17 -16 78 3 36 31 172 61 301 30 129 56 244 58 255 4 29 -44 33 -78 6
-32 -25 -45 -26 -86 -5 -46 24 -125 32 -193 19z m139 -66 c37 -17 50 -59 43
-140 -19 -225 -163 -449 -289 -449 -56 0 -74 19 -88 89 -23 124 23 312 104
420 57 77 159 112 230 80z"/>
<path d="M17329 3870 c-47 -8 -115 -49 -159 -94 l-34 -36 21 -22 22 -21 45 41
c32 29 54 42 75 42 55 0 54 -36 -5 -283 -36 -149 -45 -204 -41 -244 10 -93 55
-135 147 -135 77 0 129 31 221 131 l71 76 -8 -40 c-36 -181 108 -231 262 -91
l59 54 -22 23 -22 23 -51 -48 c-39 -37 -56 -47 -73 -42 -12 3 -25 6 -28 6 -13
0 -16 50 -7 107 5 32 33 165 63 295 30 130 55 239 55 242 0 3 -29 6 -64 6 -53
0 -66 -3 -70 -17 -3 -10 -19 -83 -36 -163 -17 -80 -38 -168 -46 -197 -17 -57
-94 -182 -140 -225 -75 -70 -155 -69 -174 3 -13 46 -5 96 46 303 19 77 34 156
34 176 0 98 -52 145 -141 130z"/>
<path d="M18625 3870 c-54 -13 -79 -28 -135 -78 l-55 -50 22 -23 22 -22 45 41
c32 29 54 42 75 42 58 0 56 -42 -22 -377 l-64 -273 68 0 68 0 11 58 c59 287
83 363 141 449 68 102 121 143 183 143 78 0 85 -74 26 -312 -49 -197 -53 -264
-16 -312 55 -73 173 -47 276 59 l34 35 -21 22 -22 22 -51 -48 c-43 -41 -55
-47 -78 -41 -15 4 -29 9 -31 11 -13 13 3 118 39 264 62 250 56 331 -30 375
-82 42 -183 3 -287 -110 l-72 -78 5 69 c5 62 3 72 -18 97 -27 32 -71 46 -113
37z"/>
<path d="M19539 3870 c-47 -8 -115 -49 -159 -94 l-34 -36 21 -22 22 -21 45 41
c32 29 54 42 75 42 55 0 54 -36 -5 -283 -36 -149 -45 -204 -41 -244 10 -93 55
-135 147 -135 77 0 129 31 221 131 l71 76 -8 -40 c-36 -181 108 -231 262 -91
l59 54 -22 23 -22 23 -51 -48 c-39 -37 -56 -47 -73 -42 -12 3 -25 6 -28 6 -13
0 -16 50 -7 107 5 32 33 165 63 295 30 130 55 239 55 242 0 3 -29 6 -64 6 -53
0 -66 -3 -70 -17 -3 -10 -19 -83 -36 -163 -17 -80 -38 -168 -46 -197 -17 -57
-94 -182 -140 -225 -75 -70 -155 -69 -174 3 -13 46 -5 96 46 303 19 77 34 156
34 176 0 98 -52 145 -141 130z"/>
<path d="M21100 3872 c-55 -5 -130 -32 -186 -68 -136 -87 -222 -271 -211 -454
8 -137 62 -207 178 -228 124 -22 230 16 351 126 l27 25 -20 28 -20 29 -52 -42
c-126 -100 -258 -112 -314 -29 -19 28 -23 47 -23 105 0 39 4 76 8 82 4 6 52
14 107 18 251 16 375 99 375 252 0 66 -24 113 -67 134 -33 16 -105 26 -153 22z
m60 -72 c25 -13 43 -71 35 -113 -18 -93 -93 -141 -246 -157 -51 -5 -94 -8 -96
-6 -7 6 43 113 74 161 65 99 168 150 233 115z"/>
<path d="M24475 3872 c-54 -4 -169 -39 -227 -68 -48 -24 -48 -25 -48 -74 l0
-50 49 0 c44 0 50 3 61 29 17 42 62 81 104 91 45 10 119 -6 141 -30 27 -30 44
-90 45 -161 l0 -67 -97 -12 c-230 -29 -343 -106 -343 -235 0 -94 51 -155 145
-175 91 -19 212 24 279 99 29 32 33 26 28 -34 l-4 -55 106 0 c97 0 106 2 106
19 0 12 -9 21 -25 25 -55 14 -60 37 -65 316 -5 234 -7 258 -26 295 -34 64
-118 96 -229 87z m125 -467 c0 -103 -26 -148 -109 -190 -54 -27 -138 -15 -173
25 -30 33 -34 55 -18 111 18 65 94 106 220 119 36 4 68 8 73 9 4 0 7 -33 7
-74z"/>
<path d="M26355 3870 c-54 -13 -79 -28 -135 -78 l-55 -50 23 -24 c22 -22 24
-22 37 -5 24 33 78 67 107 67 55 0 53 -36 -30 -397 l-59 -253 68 0 68 0 11 58
c28 134 70 310 84 350 28 78 114 190 168 218 55 29 90 16 103 -39 6 -24 12
-27 46 -27 34 0 39 3 45 28 3 15 10 43 14 62 4 19 11 47 14 63 l6 27 -72 0
c-100 0 -154 -27 -246 -120 l-72 -74 6 65 c5 57 3 67 -18 92 -27 32 -71 46
-113 37z"/>
<path d="M27109 3870 c-47 -8 -115 -49 -159 -94 l-34 -36 21 -22 22 -21 45 41
c32 29 54 42 75 42 55 0 54 -36 -5 -283 -36 -149 -45 -204 -41 -244 10 -93 55
-135 147 -135 77 0 129 31 221 131 l71 76 -8 -40 c-36 -181 108 -231 262 -91
l59 54 -22 23 -22 23 -51 -48 c-39 -37 -56 -47 -73 -42 -12 3 -25 6 -28 6 -13
0 -16 50 -7 107 5 32 33 165 63 295 30 130 55 239 55 242 0 3 -29 6 -64 6 -53
0 -66 -3 -70 -17 -3 -10 -19 -83 -36 -163 -17 -80 -38 -168 -46 -197 -17 -57
-94 -182 -140 -225 -75 -70 -155 -69 -174 3 -13 46 -5 96 46 303 19 77 34 156
34 176 0 98 -52 145 -141 130z"/>
<path d="M28015 3870 c-46 -10 -87 -35 -141 -84 l-49 -45 22 -22 22 -22 45 41
c32 29 54 42 75 42 58 0 56 -42 -22 -377 l-64 -273 68 0 68 0 11 58 c28 133
70 310 84 349 13 37 64 119 108 174 7 9 31 28 52 43 48 32 98 34 127 5 19 -19
21 -30 16 -98 -2 -42 -28 -176 -56 -298 -28 -122 -51 -225 -51 -228 0 -3 29
-5 64 -5 53 0 66 3 70 18 3 9 21 91 40 182 40 192 54 233 97 298 70 104 131
152 193 152 76 0 85 -77 31 -285 -47 -182 -57 -251 -45 -295 30 -113 155 -113
283 0 l48 43 -22 23 -23 24 -35 -34 c-46 -43 -77 -59 -101 -51 -41 13 -38 47
26 309 51 210 44 292 -29 336 -42 26 -118 26 -176 0 -24 -11 -72 -49 -107 -85
l-62 -65 -7 42 c-10 59 -32 93 -72 112 -97 46 -218 -8 -331 -149 l-32 -40 6
70 c5 63 3 73 -18 98 -27 32 -70 46 -113 37z"/>
<path d="M30910 3872 c-55 -5 -130 -32 -186 -68 -136 -87 -222 -271 -211 -454
8 -137 62 -207 178 -228 124 -22 230 16 351 126 l27 25 -20 28 -20 29 -52 -42
c-126 -100 -258 -112 -314 -29 -19 28 -23 47 -23 105 0 39 4 76 8 82 4 6 52
14 107 18 251 16 375 99 375 252 0 66 -24 113 -67 134 -33 16 -105 26 -153 22z
m60 -72 c25 -13 43 -71 35 -113 -18 -93 -93 -141 -246 -157 -51 -5 -94 -8 -96
-6 -7 6 43 113 74 161 65 99 168 150 233 115z"/>
<path d="M32515 3865 c-185 -35 -319 -225 -332 -470 -8 -159 30 -241 126 -271
95 -30 190 22 304 166 l27 35 -6 -62 c-11 -105 24 -150 113 -146 52 2 112 35
167 92 39 40 39 41 21 61 -18 20 -18 20 -60 -19 -50 -46 -77 -56 -106 -40 -20
10 -21 17 -16 78 3 36 31 172 61 301 30 129 56 244 58 255 4 29 -44 33 -78 6
-32 -25 -45 -26 -86 -5 -46 24 -125 32 -193 19z m139 -66 c37 -17 50 -59 43
-140 -19 -225 -163 -449 -289 -449 -56 0 -74 19 -88 89 -23 124 23 312 104
420 57 77 159 112 230 80z"/>
<path d="M35185 3865 c-185 -35 -319 -225 -332 -470 -8 -159 30 -241 126 -271
95 -30 190 22 304 166 l27 35 -6 -62 c-11 -105 24 -150 113 -146 52 2 112 35
167 92 39 40 39 41 21 61 -18 20 -18 20 -60 -19 -50 -46 -77 -56 -106 -40 -20
10 -21 17 -16 78 3 36 31 172 61 301 30 129 56 244 58 255 4 29 -44 33 -78 6
-32 -25 -45 -26 -86 -5 -46 24 -125 32 -193 19z m139 -66 c37 -17 50 -59 43
-140 -19 -225 -163 -449 -289 -449 -56 0 -74 19 -88 89 -23 124 23 312 104
420 57 77 159 112 230 80z"/>
<path d="M10480 3853 c-184 -66 -310 -281 -298 -504 7 -109 32 -160 101 -203
43 -27 57 -30 128 -29 68 0 88 5 143 32 34 17 84 49 110 72 l48 42 -26 25 -25
25 -37 -33 c-55 -48 -119 -73 -186 -73 -62 0 -88 14 -114 65 -31 60 -8 236 46
353 53 115 115 172 198 182 63 7 93 -16 101 -78 6 -43 7 -44 48 -47 l41 -3 10
48 c25 115 25 120 5 128 -10 4 -70 9 -133 11 -88 3 -126 0 -160 -13z"/>
<path d="M12115 3861 c-53 -8 -60 -36 -11 -45 58 -11 59 -34 10 -246 -71 -309
-74 -375 -20 -428 20 -21 35 -26 74 -25 61 1 103 20 170 79 l53 47 -22 23 -23
24 -40 -39 c-78 -76 -134 -61 -121 33 5 42 96 464 120 559 l7 27 -78 -1 c-44
-1 -97 -5 -119 -8z"/>
<path d="M14798 3863 c-30 -3 -38 -9 -38 -24 0 -12 7 -19 20 -19 11 0 29 -9
41 -21 27 -27 27 -28 -67 -449 -100 -447 -118 -484 -246 -498 -56 -6 -62 -9
-69 -35 -6 -23 -4 -28 18 -33 30 -8 107 0 163 17 89 27 169 131 204 265 8 32
47 210 86 394 39 184 75 352 79 373 l9 37 -82 -2 c-44 -1 -98 -3 -118 -5z"/>
<path d="M15830 3861 c-71 -22 -143 -85 -156 -137 -12 -47 3 -122 33 -160 15
-20 66 -62 114 -95 98 -65 126 -96 135 -145 16 -88 -45 -148 -151 -148 -92 0
-143 37 -160 117 -4 22 -11 27 -35 27 -23 0 -31 -5 -35 -22 -3 -13 -11 -51
-19 -84 l-14 -62 82 -17 c94 -21 243 -24 302 -7 101 29 156 101 155 202 0 93
-33 138 -166 223 -38 24 -80 56 -93 69 -48 53 -34 141 28 173 42 22 128 19
167 -5 32 -19 63 -66 63 -95 0 -11 10 -15 35 -15 28 0 36 4 40 23 16 72 25
113 25 123 0 32 -272 59 -350 35z"/>
<path d="M21609 3846 c-19 -13 -52 -44 -72 -70 l-38 -45 26 -17 c25 -16 27
-16 41 5 31 44 58 62 89 59 25 -3 32 -10 47 -50 9 -25 27 -94 39 -151 l22
-106 -89 -106 c-49 -59 -102 -115 -117 -124 -26 -15 -29 -15 -41 2 -7 9 -25
17 -39 17 -27 0 -32 -11 -52 -106 -6 -29 -4 -32 23 -36 94 -14 142 19 259 178
l77 105 18 -89 c32 -160 60 -196 147 -195 63 1 103 23 152 85 l41 52 -23 18
c-22 19 -22 18 -52 -17 -83 -101 -122 -58 -172 187 l-18 87 66 79 c69 83 140
152 157 152 5 0 13 -7 18 -16 6 -10 19 -14 38 -12 26 3 30 8 41 53 19 86 20
85 -39 85 -80 0 -119 -28 -212 -152 -45 -59 -84 -107 -87 -107 -3 -1 -11 27
-17 62 -20 104 -33 139 -62 169 -38 38 -118 40 -171 4z"/>
<path d="M22405 3861 c-53 -8 -60 -36 -11 -45 58 -11 59 -34 10 -246 -71 -309
-74 -375 -20 -428 20 -21 35 -26 74 -25 61 1 103 20 170 79 l53 47 -22 23 -23
24 -40 -39 c-78 -76 -134 -61 -121 33 5 42 96 464 120 559 l7 27 -78 -1 c-44
-1 -97 -5 -119 -8z"/>
<path d="M23060 3861 c-71 -22 -143 -85 -156 -137 -12 -47 3 -122 33 -160 15
-20 66 -62 114 -95 98 -65 126 -96 135 -145 16 -88 -45 -148 -151 -148 -92 0
-143 37 -160 117 -4 22 -11 27 -35 27 -23 0 -31 -5 -35 -22 -3 -13 -11 -51
-19 -84 l-14 -62 82 -17 c94 -21 243 -24 302 -7 101 29 156 101 155 202 0 93
-33 138 -166 223 -38 24 -80 56 -93 69 -48 53 -34 141 28 173 42 22 128 19
167 -5 32 -19 63 -66 63 -95 0 -11 10 -15 35 -15 28 0 36 4 40 23 16 72 25
113 25 123 0 32 -272 59 -350 35z"/>
<path d="M33535 3861 c-53 -8 -60 -36 -11 -45 58 -11 59 -34 10 -246 -71 -309
-74 -375 -20 -428 20 -21 35 -26 74 -25 61 1 103 20 170 79 l53 47 -22 23 -23
24 -40 -39 c-78 -76 -134 -61 -121 33 5 42 96 464 120 559 l7 27 -78 -1 c-44
-1 -97 -5 -119 -8z"/>
<path d="M36278 3863 c-30 -3 -38 -9 -38 -24 0 -12 7 -19 20 -19 11 0 29 -9
41 -21 27 -27 27 -28 -67 -449 -100 -447 -118 -484 -246 -498 -56 -6 -62 -9
-69 -35 -6 -23 -4 -28 18 -33 30 -8 107 0 163 17 89 27 169 131 204 265 8 32
47 210 86 394 39 184 75 352 79 373 l9 37 -82 -2 c-44 -1 -98 -3 -118 -5z"/>
<path d="M13050 3740 l0 -50 475 0 475 0 0 50 0 50 -475 0 -475 0 0 -50z"/>
<path d="M13050 3420 l0 -50 475 0 475 0 0 50 0 50 -475 0 -475 0 0 -50z"/>
<path d="M36730 3198 c0 -109 -17 -167 -62 -215 -20 -21 -20 -23 -4 -48 l17
-26 38 30 c106 85 150 161 151 263 0 96 -1 98 -76 98 l-64 0 0 -102z"/>
<path d="M1097 3111 c-4 -16 2 -21 25 -26 37 -9 52 -44 43 -105 -15 -109 -169
-778 -186 -812 -10 -20 -29 -40 -41 -44 -23 -7 -38 -21 -38 -37 0 -5 109 -7
243 -5 228 3 246 4 307 27 149 56 247 148 322 304 86 176 91 433 13 557 -77
122 -201 160 -521 160 -152 0 -162 -1 -167 -19z m388 -62 c70 -19 131 -65 165
-126 28 -50 32 -67 37 -162 15 -278 -123 -531 -322 -594 -53 -17 -217 -33
-233 -23 -6 3 -3 36 8 83 10 43 55 248 100 456 l83 377 61 0 c34 0 79 -5 101
-11z"/>
<path d="M3710 2690 l0 -50 475 0 475 0 0 50 0 50 -475 0 -475 0 0 -50z"/>
<path d="M2060 2458 c-6 -24 -13 -49 -15 -55 -3 -9 10 -13 45 -13 l49 0 11 43
c6 23 13 48 15 55 3 8 -10 12 -45 12 l-49 0 -11 -42z"/>
<path d="M2787 2471 c-3 -16 -9 -40 -13 -55 -6 -25 -5 -26 44 -26 47 0 50 2
55 29 3 16 9 40 13 55 6 25 5 26 -44 26 -47 0 -50 -2 -55 -29z"/>
<path d="M3710 2370 l0 -50 475 0 475 0 0 50 0 50 -475 0 -475 0 0 -50z"/>
<path d="M1988 2283 c-38 -4 -63 -33 -29 -33 10 0 24 -7 32 -16 14 -17 11 -42
-36 -264 -22 -105 -25 -131 -15 -162 19 -67 86 -78 162 -28 66 44 75 57 54 78
-16 15 -18 16 -29 1 -20 -26 -66 -52 -82 -45 -25 9 -18 76 29 284 l43 192 -46
-2 c-25 -1 -62 -3 -83 -5z"/>
<path d="M2708 2283 c-40 -4 -55 -33 -18 -33 45 0 44 -33 -10 -275 -66 -301
-77 -337 -109 -376 -22 -26 -37 -34 -77 -38 -41 -5 -50 -10 -52 -28 -3 -21 0
-23 50 -23 100 1 175 57 211 157 12 36 137 598 137 620 0 4 -79 1 -132 -4z"/>
<path d="M8980 2261 c-41 -5 -56 -10 -58 -23 -2 -13 3 -18 18 -18 33 0 57 -17
64 -45 7 -27 -40 -274 -54 -289 -5 -5 -26 -2 -50 8 -77 31 -193 21 -270 -22
-138 -77 -226 -241 -237 -437 -8 -159 30 -241 126 -271 95 -30 190 22 304 166
l27 35 -6 -62 c-11 -105 24 -150 113 -146 52 2 112 35 167 92 39 40 39 41 21
61 -18 20 -18 20 -60 -19 -49 -45 -77 -56 -105 -41 -38 21 -38 23 103 648 l84
372 -66 -2 c-36 -1 -91 -4 -121 -7z m-113 -426 c36 -25 46 -73 33 -165 -25
-180 -97 -320 -207 -398 -40 -28 -112 -30 -136 -4 -27 29 -38 116 -28 201 30
231 136 381 271 381 25 0 55 -7 67 -15z"/>
<path d="M22380 2261 c-41 -5 -56 -10 -58 -23 -2 -13 3 -18 18 -18 33 0 57
-17 64 -45 7 -27 -40 -274 -54 -289 -5 -5 -26 -2 -50 8 -77 31 -193 21 -270
-22 -138 -77 -226 -241 -237 -437 -8 -159 30 -241 126 -271 95 -30 190 22 304
166 l27 35 -6 -62 c-11 -105 24 -150 113 -146 52 2 112 35 167 92 39 40 39 41
21 61 -18 20 -18 20 -60 -19 -49 -45 -77 -56 -105 -41 -38 21 -38 23 103 648
l84 372 -66 -2 c-36 -1 -91 -4 -121 -7z m-113 -426 c36 -25 46 -73 33 -165
-25 -180 -97 -320 -207 -398 -40 -28 -112 -30 -136 -4 -27 29 -38 116 -28 201
30 231 136 381 271 381 25 0 55 -7 67 -15z"/>
<path d="M26660 2261 c-41 -5 -56 -10 -58 -23 -2 -13 3 -18 18 -18 33 0 57
-17 64 -45 7 -27 -40 -274 -54 -289 -5 -5 -26 -2 -50 8 -77 31 -193 21 -270
-22 -138 -77 -226 -241 -237 -437 -8 -159 30 -241 126 -271 95 -30 190 22 304
166 l27 35 -6 -62 c-11 -105 24 -150 113 -146 52 2 112 35 167 92 39 40 39 41
21 61 -18 20 -18 20 -60 -19 -49 -45 -77 -56 -105 -41 -38 21 -38 23 103 648
l84 372 -66 -2 c-36 -1 -91 -4 -121 -7z m-113 -426 c36 -25 46 -73 33 -165
-25 -180 -97 -320 -207 -398 -40 -28 -112 -30 -136 -4 -27 29 -38 116 -28 201
30 231 136 381 271 381 25 0 55 -7 67 -15z"/>
<path d="M28330 2261 c-41 -5 -56 -10 -58 -23 -2 -13 3 -18 18 -18 34 0 58
-18 65 -48 4 -19 -22 -155 -74 -389 -97 -434 -106 -488 -92 -540 31 -116 154
-117 284 -3 l48 43 -22 23 -23 24 -35 -34 c-36 -34 -71 -56 -90 -56 -19 0 -41
32 -41 61 0 24 191 914 205 957 5 13 -77 14 -185 3z"/>
<path d="M31000 2261 c-41 -5 -56 -10 -58 -23 -2 -13 3 -18 18 -18 34 0 58
-18 65 -48 4 -19 -22 -155 -74 -389 -97 -434 -106 -488 -92 -540 31 -116 154
-117 284 -3 l48 43 -22 23 -23 24 -35 -34 c-36 -34 -71 -56 -90 -56 -19 0 -41
32 -41 61 0 24 191 914 205 957 5 13 -77 14 -185 3z"/>
<path d="M10997 2243 c-15 -4 -17 -11 -12 -31 31 -124 102 -183 221 -183 113
0 185 50 220 155 18 53 18 52 -16 61 -21 5 -28 0 -45 -31 -32 -59 -82 -86
-159 -86 -54 0 -71 5 -99 26 -19 14 -42 42 -53 61 -18 35 -23 37 -57 28z"/>
<path d="M20727 2243 c-15 -4 -17 -11 -12 -31 31 -124 102 -183 221 -183 113
0 185 50 220 155 18 53 18 52 -16 61 -21 5 -28 0 -45 -31 -32 -59 -82 -86
-159 -86 -54 0 -71 5 -99 26 -19 14 -42 42 -53 61 -18 35 -23 37 -57 28z"/>
<path d="M6148 2121 l-177 -108 16 -24 c9 -13 17 -25 19 -27 1 -2 37 17 80 42
85 50 104 54 128 30 14 -13 16 -61 16 -370 0 -391 -2 -402 -60 -422 -17 -6
-57 -14 -90 -18 -55 -6 -60 -9 -60 -30 l0 -24 285 0 285 0 0 24 c0 21 -5 24
-64 29 -96 9 -132 27 -146 74 -8 26 -10 176 -8 486 l3 447 -25 -1 c-14 0 -105
-49 -202 -108z"/>
<path d="M12241 2149 c-7 -34 -15 -67 -18 -75 -4 -11 9 -14 64 -14 l70 0 12
53 c6 28 14 62 17 75 6 21 4 22 -64 22 l-69 0 -12 -61z"/>
<path d="M14930 2158 c-6 -29 -13 -63 -16 -75 -6 -22 -4 -23 63 -23 l69 0 12
60 c7 34 15 67 19 75 4 12 -8 15 -65 15 l-70 0 -12 -52z"/>
<path d="M16481 2149 c-7 -34 -15 -67 -18 -75 -4 -11 9 -14 64 -14 l70 0 12
53 c6 28 14 62 17 75 6 21 4 22 -64 22 l-69 0 -12 -61z"/>
<path d="M19001 2149 c-7 -34 -15 -67 -18 -75 -4 -11 9 -14 64 -14 l70 0 12
53 c6 28 14 62 17 75 6 21 4 22 -64 22 l-69 0 -12 -61z"/>
<path d="M30131 2149 c-7 -34 -15 -67 -18 -75 -4 -11 9 -14 64 -14 l70 0 12
53 c6 28 14 62 17 75 6 21 4 22 -64 22 l-69 0 -12 -61z"/>
<path d="M32880 2158 c-6 -29 -13 -63 -16 -75 -6 -22 -4 -23 63 -23 l69 0 12
60 c7 34 15 67 19 75 4 12 -8 15 -65 15 l-70 0 -12 -52z"/>
<path d="M20226 2033 c-35 -112 -63 -142 -140 -153 -36 -4 -41 -9 -44 -32 -3
-28 -3 -28 57 -28 34 0 61 -4 61 -9 0 -5 -21 -98 -46 -207 -82 -359 -60 -448
111 -447 75 1 123 24 202 97 l58 54 -23 25 -24 25 -35 -38 c-19 -22 -54 -48
-78 -60 -38 -19 -50 -20 -79 -10 -21 7 -38 20 -42 33 -14 42 -4 129 31 285 20
86 40 178 46 205 l11 47 118 0 118 0 6 31 c3 17 6 35 6 40 0 5 -52 9 -115 9
-115 0 -115 0 -110 23 26 112 35 153 35 160 0 4 -24 7 -53 7 l-53 0 -18 -57z"/>
<path d="M13641 1955 l-53 -125 -264 0 -264 0 0 -50 0 -50 241 0 c233 0 240
-1 234 -19 -3 -11 -23 -59 -44 -108 l-38 -88 -197 -3 -196 -2 0 -50 0 -50 174
0 174 0 -58 -137 -58 -138 35 -3 c19 -2 40 -1 47 1 6 3 38 66 70 141 l58 136
254 0 254 0 0 50 0 50 -230 0 c-126 0 -230 3 -230 8 1 4 20 52 43 107 l43 100
187 3 187 2 0 50 0 50 -164 2 -163 3 53 123 52 122 -47 0 -47 0 -53 -125z"/>
<path d="M9645 1905 c-185 -35 -319 -225 -332 -470 -8 -159 30 -241 126 -271
95 -30 190 22 304 166 l27 35 -6 -62 c-11 -105 24 -150 113 -146 52 2 112 35
167 92 39 40 39 41 21 61 -18 20 -18 20 -60 -19 -50 -46 -77 -56 -106 -40 -20
10 -21 17 -16 78 3 36 31 172 61 301 30 129 56 244 58 255 4 29 -44 33 -78 6
-32 -25 -45 -26 -86 -5 -46 24 -125 32 -193 19z m139 -66 c37 -17 50 -59 43
-140 -19 -225 -163 -449 -289 -449 -56 0 -74 19 -88 89 -23 124 23 312 104
420 57 77 159 112 230 80z"/>
<path d="M11215 1912 c-54 -4 -169 -39 -227 -68 -48 -24 -48 -25 -48 -74 l0
-50 49 0 c44 0 50 3 61 29 17 42 62 81 104 91 45 10 119 -6 141 -30 27 -30 44
-90 45 -161 l0 -67 -97 -12 c-230 -29 -343 -106 -343 -235 0 -94 51 -155 145
-175 91 -19 212 24 279 99 29 32 33 26 28 -34 l-4 -55 106 0 c97 0 106 2 106
19 0 12 -9 21 -25 25 -55 14 -60 37 -65 316 -5 234 -7 258 -26 295 -34 64
-118 96 -229 87z m125 -467 c0 -103 -26 -148 -109 -190 -54 -27 -138 -15 -173
25 -30 33 -34 55 -18 111 18 65 94 106 220 119 36 4 68 8 73 9 4 0 7 -33 7
-74z"/>
<path d="M15822 1909 c-131 -16 -214 -93 -214 -198 0 -94 42 -139 202 -214
131 -62 159 -87 167 -147 12 -87 -42 -136 -148 -133 -82 2 -108 18 -149 96
-18 32 -25 37 -56 37 l-35 0 3 -82 3 -83 55 -12 c30 -8 105 -14 166 -15 138
-2 203 20 255 85 28 35 34 51 37 104 3 37 -1 76 -8 93 -20 49 -86 99 -203 154
-62 29 -120 62 -130 73 -47 54 -37 137 22 167 42 22 128 21 167 -3 18 -11 42
-38 55 -60 20 -37 27 -41 61 -41 l38 0 0 79 c0 90 4 87 -112 97 -35 3 -74 6
-88 8 -14 1 -53 -1 -88 -5z"/>
<path d="M17580 1912 c-55 -5 -130 -32 -186 -68 -136 -87 -222 -271 -211 -454
8 -137 62 -207 178 -228 124 -22 230 16 351 126 l27 25 -20 28 -20 29 -52 -42
c-126 -100 -258 -112 -314 -29 -19 28 -23 47 -23 105 0 39 4 76 8 82 4 6 52
14 107 18 251 16 375 99 375 252 0 66 -24 113 -67 134 -33 16 -105 26 -153 22z
m60 -72 c25 -13 43 -71 35 -113 -18 -93 -93 -141 -246 -157 -51 -5 -94 -8 -96
-6 -7 6 43 113 74 161 65 99 168 150 233 115z"/>
<path d="M20945 1912 c-54 -4 -169 -39 -227 -68 -48 -24 -48 -25 -48 -74 l0
-50 49 0 c44 0 50 3 61 29 17 42 62 81 104 91 45 10 119 -6 141 -30 27 -30 44
-90 45 -161 l0 -67 -97 -12 c-230 -29 -343 -106 -343 -235 0 -94 51 -155 145
-175 91 -19 212 24 279 99 29 32 33 26 28 -34 l-4 -55 106 0 c97 0 106 2 106
19 0 12 -9 21 -25 25 -55 14 -60 37 -65 316 -5 234 -7 258 -26 295 -34 64
-118 96 -229 87z m125 -467 c0 -103 -26 -148 -109 -190 -54 -27 -138 -15 -173
25 -30 33 -34 55 -18 111 18 65 94 106 220 119 36 4 68 8 73 9 4 0 7 -33 7
-74z"/>
<path d="M22835 1910 c-54 -13 -79 -28 -135 -78 l-55 -50 23 -24 c22 -22 24
-22 37 -5 24 33 78 67 107 67 55 0 53 -36 -30 -397 l-59 -253 68 0 68 0 11 58
c28 134 70 310 84 350 28 78 114 190 168 218 55 29 90 16 103 -39 6 -24 12
-27 46 -27 34 0 39 3 45 28 3 15 10 43 14 62 4 19 11 47 14 63 l6 27 -72 0
c-100 0 -154 -27 -246 -120 l-72 -74 6 65 c5 57 3 67 -18 92 -27 32 -71 46
-113 37z"/>
<path d="M23589 1910 c-47 -8 -115 -49 -159 -94 l-34 -36 21 -22 22 -21 45 41
c32 29 54 42 75 42 55 0 54 -36 -5 -283 -36 -149 -45 -204 -41 -244 10 -93 55
-135 147 -135 77 0 129 31 221 131 l71 76 -8 -40 c-36 -181 108 -231 262 -91
l59 54 -22 23 -22 23 -51 -48 c-39 -37 -56 -47 -73 -42 -12 3 -25 6 -28 6 -13
0 -16 50 -7 107 5 32 33 165 63 295 30 130 55 239 55 242 0 3 -29 6 -64 6 -53
0 -66 -3 -70 -17 -3 -10 -19 -83 -36 -163 -17 -80 -38 -168 -46 -197 -17 -57
-94 -182 -140 -225 -75 -70 -155 -69 -174 3 -13 46 -5 96 46 303 19 77 34 156
34 176 0 98 -52 145 -141 130z"/>
<path d="M24495 1910 c-46 -10 -87 -35 -141 -84 l-49 -45 22 -22 22 -22 45 41
c32 29 54 42 75 42 58 0 56 -42 -22 -377 l-64 -273 68 0 68 0 11 58 c28 133
70 310 84 349 13 37 64 119 108 174 7 9 31 28 52 43 48 32 98 34 127 5 19 -19
21 -30 16 -98 -2 -42 -28 -176 -56 -298 -28 -122 -51 -225 -51 -228 0 -3 29
-5 64 -5 53 0 66 3 70 18 3 9 21 91 40 182 40 192 54 233 97 298 70 104 131
152 193 152 76 0 85 -77 31 -285 -47 -182 -57 -251 -45 -295 30 -113 155 -113
283 0 l48 43 -22 23 -23 24 -35 -34 c-46 -43 -77 -59 -101 -51 -41 13 -38 47
26 309 51 210 44 292 -29 336 -42 26 -118 26 -176 0 -24 -11 -72 -49 -107 -85
l-62 -65 -7 42 c-10 59 -32 93 -72 112 -97 46 -218 -8 -331 -149 l-32 -40 6
70 c5 63 3 73 -18 98 -27 32 -70 46 -113 37z"/>
<path d="M27390 1912 c-55 -5 -130 -32 -186 -68 -136 -87 -222 -271 -211 -454
8 -137 62 -207 178 -228 124 -22 230 16 351 126 l27 25 -20 28 -20 29 -52 -42
c-126 -100 -258 -112 -314 -29 -19 28 -23 47 -23 105 0 39 4 76 8 82 4 6 52
14 107 18 251 16 375 99 375 252 0 66 -24 113 -67 134 -33 16 -105 26 -153 22z
m60 -72 c25 -13 43 -71 35 -113 -18 -93 -93 -141 -246 -157 -51 -5 -94 -8 -96
-6 -7 6 43 113 74 161 65 99 168 150 233 115z"/>
<path d="M28995 1905 c-185 -35 -319 -225 -332 -470 -8 -159 30 -241 126 -271
95 -30 190 22 304 166 l27 35 -6 -62 c-11 -105 24 -150 113 -146 52 2 112 35
167 92 39 40 39 41 21 61 -18 20 -18 20 -60 -19 -50 -46 -77 -56 -106 -40 -20
10 -21 17 -16 78 3 36 31 172 61 301 30 129 56 244 58 255 4 29 -44 33 -78 6
-32 -25 -45 -26 -86 -5 -46 24 -125 32 -193 19z m139 -66 c37 -17 50 -59 43
-140 -19 -225 -163 -449 -289 -449 -56 0 -74 19 -88 89 -23 124 23 312 104
420 57 77 159 112 230 80z"/>
<path d="M31665 1905 c-185 -35 -319 -225 -332 -470 -8 -159 30 -241 126 -271
95 -30 190 22 304 166 l27 35 -6 -62 c-11 -105 24 -150 113 -146 52 2 112 35
167 92 39 40 39 41 21 61 -18 20 -18 20 -60 -19 -50 -46 -77 -56 -106 -40 -20
10 -21 17 -16 78 3 36 31 172 61 301 30 129 56 244 58 255 4 29 -44 33 -78 6
-32 -25 -45 -26 -86 -5 -46 24 -125 32 -193 19z m139 -66 c37 -17 50 -59 43
-140 -19 -225 -163 -449 -289 -449 -56 0 -74 19 -88 89 -23 124 23 312 104
420 57 77 159 112 230 80z"/>
<path d="M10490 1893 c-184 -66 -310 -281 -298 -504 7 -109 32 -160 101 -203
43 -27 57 -30 128 -29 68 0 88 5 143 32 34 17 84 49 110 72 l48 42 -26 25 -25
25 -37 -33 c-55 -48 -119 -73 -186 -73 -62 0 -88 14 -114 65 -31 60 -8 236 46
353 53 115 115 172 198 182 63 7 93 -16 101 -78 6 -43 7 -44 48 -47 l41 -3 10
48 c25 115 25 120 5 128 -10 4 -70 9 -133 11 -88 3 -126 0 -160 -13z"/>
<path d="M12125 1901 c-53 -8 -60 -36 -11 -45 58 -11 59 -34 10 -246 -71 -309
-74 -375 -20 -428 20 -21 35 -26 74 -25 61 1 103 20 170 79 l53 47 -22 23 -23
24 -40 -39 c-78 -76 -134 -61 -121 33 5 42 96 464 120 559 l7 27 -78 -1 c-44
-1 -97 -5 -119 -8z"/>
<path d="M14808 1903 c-30 -3 -38 -9 -38 -24 0 -12 7 -19 20 -19 11 0 29 -9
41 -21 27 -27 27 -28 -67 -449 -100 -447 -118 -484 -246 -498 -56 -6 -62 -9
-69 -35 -6 -23 -4 -28 18 -33 30 -8 107 0 163 17 89 27 169 131 204 265 8 32
47 210 86 394 39 184 75 352 79 373 l9 37 -82 -2 c-44 -1 -98 -3 -118 -5z"/>
<path d="M16365 1901 c-53 -8 -60 -36 -11 -45 58 -11 59 -34 10 -246 -71 -309
-74 -375 -20 -428 20 -21 35 -26 74 -25 61 1 103 20 170 79 l53 47 -22 23 -23
24 -40 -39 c-78 -76 -134 -61 -121 33 5 42 96 464 120 559 l7 27 -78 -1 c-44
-1 -97 -5 -119 -8z"/>
<path d="M18089 1886 c-19 -13 -52 -44 -72 -70 l-38 -45 26 -17 c25 -16 27
-16 41 5 31 44 58 62 89 59 25 -3 32 -10 47 -50 9 -25 27 -94 39 -151 l22
-106 -89 -106 c-49 -59 -102 -115 -117 -124 -26 -15 -29 -15 -41 2 -7 9 -25
17 -39 17 -27 0 -32 -11 -52 -106 -6 -29 -4 -32 23 -36 94 -14 142 19 259 178
l77 105 18 -89 c32 -160 60 -196 147 -195 63 1 103 23 152 85 l41 52 -23 18
c-22 19 -22 18 -52 -17 -83 -101 -122 -58 -172 187 l-18 87 66 79 c69 83 140
152 157 152 5 0 13 -7 18 -16 6 -10 19 -14 38 -12 26 3 30 8 41 53 19 86 20
85 -39 85 -80 0 -119 -28 -212 -152 -45 -59 -84 -107 -87 -107 -3 -1 -11 27
-17 62 -20 104 -33 139 -62 169 -38 38 -118 40 -171 4z"/>
<path d="M18885 1901 c-53 -8 -60 -36 -11 -45 58 -11 59 -34 10 -246 -71 -309
-74 -375 -20 -428 20 -21 35 -26 74 -25 61 1 103 20 170 79 l53 47 -22 23 -23
24 -40 -39 c-78 -76 -134 -61 -121 33 5 42 96 464 120 559 l7 27 -78 -1 c-44
-1 -97 -5 -119 -8z"/>
<path d="M19540 1901 c-71 -22 -143 -85 -156 -137 -12 -47 3 -122 33 -160 15
-20 66 -62 114 -95 98 -65 126 -96 135 -145 16 -88 -45 -148 -151 -148 -92 0
-143 37 -160 117 -4 22 -11 27 -35 27 -23 0 -31 -5 -35 -22 -3 -13 -11 -51
-19 -84 l-14 -62 82 -17 c94 -21 243 -24 302 -7 101 29 156 101 155 202 0 93
-33 138 -166 223 -38 24 -80 56 -93 69 -48 53 -34 141 28 173 42 22 128 19
167 -5 32 -19 63 -66 63 -95 0 -11 10 -15 35 -15 28 0 36 4 40 23 16 72 25
113 25 123 0 32 -272 59 -350 35z"/>
<path d="M30015 1901 c-53 -8 -60 -36 -11 -45 58 -11 59 -34 10 -246 -71 -309
-74 -375 -20 -428 20 -21 35 -26 74 -25 61 1 103 20 170 79 l53 47 -22 23 -23
24 -40 -39 c-78 -76 -134 -61 -121 33 5 42 96 464 120 559 l7 27 -78 -1 c-44
-1 -97 -5 -119 -8z"/>
<path d="M32758 1903 c-30 -3 -38 -9 -38 -24 0 -12 7 -19 20 -19 11 0 29 -9
41 -21 27 -27 27 -28 -67 -449 -100 -447 -118 -484 -246 -498 -56 -6 -62 -9
-69 -35 -6 -23 -4 -28 18 -33 30 -8 107 0 163 17 89 27 169 131 204 265 8 32
47 210 86 394 39 184 75 352 79 373 l9 37 -82 -2 c-44 -1 -98 -3 -118 -5z"/>
<path d="M2369 1796 c-3 -72 -8 -89 -31 -122 -20 -28 -25 -41 -16 -51 16 -19
24 -17 67 23 54 49 81 107 81 177 l0 57 -49 0 -49 0 -3 -84z"/>
<path d="M15812 1029 c1 -75 -20 -108 -83 -129 -39 -13 -44 -18 -41 -41 l3
-26 63 11 c131 25 192 96 178 209 l-4 37 -59 0 -58 0 1 -61z"/>
</g>
</svg>
