<?xml version="1.0" standalone="no"?>
<!DOCTYPE svg PUBLIC "-//W3C//DTD SVG 20010904//EN"
 "http://www.w3.org/TR/2001/REC-SVG-20010904/DTD/svg10.dtd">
<svg version="1.0" xmlns="http://www.w3.org/2000/svg"
 width="5845.000000pt" height="442.000000pt" viewBox="0 0 5845.000000 442.000000"
 preserveAspectRatio="xMidYMid meet">

<g transform="translate(0.000000,442.000000) scale(0.100000,-0.100000)"
fill="#000000" stroke="none">
<path d="M7880 3875 c-219 -81 -385 -235 -498 -461 -101 -203 -143 -396 -143
-664 0 -561 235 -975 639 -1123 40 -15 79 -27 86 -27 10 0 36 59 36 82 0 3
-28 18 -62 33 -321 142 -488 498 -488 1040 0 542 165 889 491 1031 l66 29 -14
40 c-7 22 -17 42 -21 46 -4 3 -45 -8 -92 -26z"/>
<path d="M11391 3872 c-7 -20 -14 -42 -17 -48 -2 -5 26 -23 62 -38 256 -105
422 -363 476 -741 17 -118 16 -464 -1 -580 -57 -383 -214 -636 -461 -745 -75
-33 -75 -32 -60 -84 l12 -44 87 31 c278 100 476 318 579 637 53 165 66 261 66
490 0 229 -13 325 -66 490 -58 180 -150 332 -269 449 -74 71 -209 153 -311
189 l-85 30 -12 -36z"/>
<path d="M14170 3875 c-219 -81 -385 -235 -498 -461 -101 -203 -143 -396 -143
-664 0 -561 235 -975 639 -1123 40 -15 79 -27 86 -27 10 0 36 59 36 82 0 3
-28 18 -62 33 -321 142 -488 498 -488 1040 0 542 165 889 491 1031 l66 29 -14
40 c-7 22 -17 42 -21 46 -4 3 -45 -8 -92 -26z"/>
<path d="M17681 3872 c-7 -20 -14 -42 -17 -48 -2 -5 26 -23 62 -38 256 -105
422 -363 476 -741 17 -118 16 -464 -1 -580 -57 -383 -214 -636 -461 -745 -75
-33 -75 -32 -60 -84 l12 -44 87 31 c278 100 476 318 579 637 53 165 66 261 66
490 0 229 -13 325 -66 490 -58 180 -150 332 -269 449 -74 71 -209 153 -311
189 l-85 30 -12 -36z"/>
<path d="M20450 3875 c-219 -81 -385 -235 -498 -461 -101 -203 -143 -396 -143
-664 0 -561 235 -975 639 -1123 40 -15 79 -27 86 -27 10 0 36 59 36 82 0 3
-28 18 -62 33 -321 142 -488 498 -488 1040 0 542 165 889 491 1031 l66 29 -14
40 c-7 22 -17 42 -21 46 -4 3 -45 -8 -92 -26z"/>
<path d="M23971 3872 c-7 -20 -14 -42 -17 -48 -2 -5 26 -23 62 -38 256 -105
422 -363 476 -741 17 -118 16 -464 -1 -580 -57 -383 -214 -636 -461 -745 -75
-33 -75 -32 -60 -84 l12 -44 87 31 c278 100 476 318 579 637 53 165 66 261 66
490 0 229 -13 325 -66 490 -58 180 -150 332 -269 449 -74 71 -209 153 -311
189 l-85 30 -12 -36z"/>
<path d="M26740 3875 c-219 -81 -385 -235 -498 -461 -101 -203 -143 -396 -143
-664 0 -561 235 -975 639 -1123 40 -15 79 -27 86 -27 10 0 36 59 36 82 0 3
-28 18 -62 33 -321 142 -488 498 -488 1040 0 542 165 889 491 1031 l66 29 -14
40 c-7 22 -17 42 -21 46 -4 3 -45 -8 -92 -26z"/>
<path d="M30251 3872 c-7 -20 -14 -42 -17 -48 -2 -5 26 -23 62 -38 256 -105
422 -363 476 -741 17 -118 16 -464 -1 -580 -57 -383 -214 -636 -461 -745 -75
-33 -75 -32 -60 -84 l12 -44 87 31 c278 100 476 318 579 637 53 165 66 261 66
490 0 229 -13 325 -66 490 -58 180 -150 332 -269 449 -74 71 -209 153 -311
189 l-85 30 -12 -36z"/>
<path d="M33020 3875 c-219 -81 -385 -235 -498 -461 -101 -203 -143 -396 -143
-664 0 -561 235 -975 639 -1123 40 -15 79 -27 86 -27 10 0 36 59 36 82 0 3
-28 18 -62 33 -321 142 -488 498 -488 1040 0 542 165 889 491 1031 l66 29 -14
40 c-7 22 -17 42 -21 46 -4 3 -45 -8 -92 -26z"/>
<path d="M36551 3872 c-7 -20 -14 -42 -17 -48 -2 -5 26 -23 62 -38 256 -105
422 -363 476 -741 17 -118 16 -464 -1 -580 -57 -383 -214 -636 -461 -745 -75
-33 -75 -32 -60 -84 l12 -44 87 31 c278 100 476 318 579 637 53 165 66 261 66
490 0 229 -13 325 -66 490 -58 180 -150 332 -269 449 -74 71 -209 153 -311
189 l-85 30 -12 -36z"/>
<path d="M39320 3875 c-219 -81 -385 -235 -498 -461 -101 -203 -143 -396 -143
-664 0 -561 235 -975 639 -1123 40 -15 79 -27 86 -27 10 0 36 59 36 82 0 3
-28 18 -62 33 -321 142 -488 498 -488 1040 0 542 165 889 491 1031 l66 29 -14
40 c-7 22 -17 42 -21 46 -4 3 -45 -8 -92 -26z"/>
<path d="M42831 3872 c-7 -20 -14 -42 -17 -48 -2 -5 26 -23 62 -38 256 -105
422 -363 476 -741 17 -118 16 -464 -1 -580 -57 -383 -214 -636 -461 -745 -75
-33 -75 -32 -60 -84 l12 -44 87 31 c278 100 476 318 579 637 53 165 66 261 66
490 0 229 -13 325 -66 490 -58 180 -150 332 -269 449 -74 71 -209 153 -311
189 l-85 30 -12 -36z"/>
<path d="M45610 3875 c-219 -81 -385 -235 -498 -461 -101 -203 -143 -396 -143
-664 0 -561 235 -975 639 -1123 40 -15 79 -27 86 -27 10 0 36 59 36 82 0 3
-28 18 -62 33 -321 142 -488 498 -488 1040 0 542 165 889 491 1031 l66 29 -14
40 c-7 22 -17 42 -21 46 -4 3 -45 -8 -92 -26z"/>
<path d="M49121 3872 c-7 -20 -14 -42 -17 -48 -2 -5 26 -23 62 -38 256 -105
422 -363 476 -741 17 -118 16 -464 -1 -580 -57 -383 -214 -636 -461 -745 -75
-33 -75 -32 -60 -84 l12 -44 87 31 c278 100 476 318 579 637 53 165 66 261 66
490 0 229 -13 325 -66 490 -58 180 -150 332 -269 449 -74 71 -209 153 -311
189 l-85 30 -12 -36z"/>
<path d="M6730 3783 c-102 -19 -211 -73 -267 -131 -121 -126 -150 -303 -98
-586 31 -169 31 -211 2 -267 -28 -53 -84 -87 -156 -96 l-51 -6 0 -52 0 -52 53
-7 c73 -10 130 -46 156 -99 26 -54 26 -113 0 -237 -29 -137 -36 -337 -14 -419
57 -221 215 -333 488 -348 l97 -6 0 45 0 45 -68 6 c-193 16 -300 120 -321 314
-9 87 -3 179 24 337 36 207 -5 315 -146 387 -22 11 -39 26 -39 34 0 8 21 26
48 39 48 25 82 56 121 114 34 49 38 149 11 302 -64 368 11 548 248 599 29 6
69 11 87 11 35 0 35 0 35 45 l0 45 -67 -1 c-38 0 -102 -8 -143 -16z"/>
<path d="M51890 3765 c-219 -81 -385 -235 -498 -461 -101 -203 -143 -396 -143
-664 0 -561 235 -975 639 -1123 40 -15 79 -27 86 -27 10 0 36 59 36 82 0 3
-28 18 -62 33 -321 142 -488 498 -488 1040 0 542 165 889 491 1031 l66 29 -14
40 c-7 22 -17 42 -21 46 -4 3 -45 -8 -92 -26z"/>
<path d="M55411 3762 c-7 -20 -14 -42 -17 -48 -2 -5 26 -23 62 -38 256 -105
422 -363 476 -741 17 -118 16 -464 -1 -580 -57 -383 -214 -636 -461 -745 -75
-33 -75 -32 -60 -84 l12 -44 87 31 c278 100 476 318 579 637 53 165 66 261 66
490 0 229 -13 325 -66 490 -58 180 -150 332 -269 449 -74 71 -209 153 -311
189 l-85 30 -12 -36z"/>
<path d="M56460 3755 c0 -45 0 -45 35 -45 97 0 207 -44 268 -107 85 -86 107
-253 67 -493 -28 -165 -25 -258 11 -317 27 -46 92 -104 138 -123 41 -17 39
-35 -8 -59 -152 -78 -183 -174 -141 -435 40 -249 17 -415 -68 -503 -60 -61
-163 -102 -259 -103 l-43 0 0 -45 0 -45 73 0 c39 0 110 9 156 20 189 46 304
147 348 305 23 85 27 239 9 340 -9 50 -22 126 -30 170 -23 126 -1 191 82 241
20 13 61 26 90 30 l53 6 -3 52 -3 51 -54 7 c-66 10 -128 50 -154 101 -26 50
-25 113 3 247 74 353 2 581 -215 685 -77 37 -205 65 -296 65 l-59 0 0 -45z"/>
<path d="M40528 3754 c-24 -52 -37 -54 -423 -54 l-355 0 2 -402 3 -401 46 -29
47 -28 88 21 c115 27 264 23 336 -9 68 -30 122 -91 153 -172 22 -57 26 -85 26
-167 0 -116 -12 -179 -48 -246 -35 -63 -78 -100 -150 -127 -49 -19 -71 -21
-140 -17 -136 10 -215 65 -264 184 l-21 53 -74 0 -74 0 0 -129 0 -129 63 -21
c159 -52 185 -56 367 -55 164 0 180 2 249 27 146 53 236 135 292 268 30 71 32
80 32 209 0 125 -2 140 -27 200 -100 235 -353 335 -653 257 l-93 -24 0 268 0
269 353 0 354 0 6 107 c12 184 14 173 -38 173 -39 0 -47 -4 -57 -26z"/>
<path d="M8553 3549 l-282 -169 26 -45 c13 -25 27 -45 30 -45 3 0 40 22 82 49
94 60 146 86 188 96 27 5 37 2 58 -19 l25 -26 -2 -573 -3 -573 -25 -37 c-32
-47 -78 -65 -182 -72 -129 -10 -128 -9 -128 -55 l0 -40 450 0 450 0 0 40 c0
44 2 44 -139 55 -99 7 -153 34 -178 89 -17 38 -18 83 -18 768 l0 728 -35 -1
c-27 -1 -103 -42 -317 -170z"/>
<path d="M10900 3705 c-428 -74 -747 -451 -788 -931 -35 -400 100 -668 370
-739 102 -27 295 -17 398 20 188 68 295 211 319 427 5 42 5 109 1 149 -21 191
-98 309 -248 376 -50 23 -71 26 -177 27 -143 1 -215 -18 -339 -89 -44 -25 -81
-43 -83 -41 -10 9 51 204 87 282 86 187 248 335 413 378 29 8 88 17 130 21 77
7 77 7 77 37 0 35 -45 99 -69 97 -9 -1 -50 -7 -91 -14z m-119 -807 c94 -28
169 -139 189 -280 12 -84 -3 -239 -31 -312 -40 -108 -130 -174 -253 -183 -162
-13 -264 60 -317 227 -26 82 -39 335 -19 394 19 60 148 141 250 159 52 9 144
7 181 -5z"/>
<path d="M14960 3714 c-137 -21 -239 -49 -348 -94 l-67 -29 -3 -120 -3 -121
73 0 74 0 27 63 c55 125 152 191 282 190 90 0 144 -23 195 -81 57 -64 74 -130
67 -255 -5 -89 -9 -107 -45 -180 -48 -99 -119 -194 -293 -392 -145 -165 -256
-307 -311 -400 -59 -99 -108 -203 -108 -230 l0 -25 504 0 504 0 6 138 c4 75 9
154 12 175 l6 37 -56 0 -55 0 -12 -41 c-17 -54 -56 -94 -105 -108 -24 -7 -142
-11 -302 -11 l-263 0 50 73 c81 116 152 201 319 381 337 364 392 454 393 641
1 174 -59 280 -195 344 -87 41 -238 61 -346 45z"/>
<path d="M16733 3549 l-282 -169 26 -45 c13 -25 27 -45 30 -45 3 0 40 22 82
49 94 60 146 86 188 96 27 5 37 2 58 -19 l25 -26 -2 -573 -3 -573 -25 -37
c-32 -47 -78 -65 -182 -72 -129 -10 -128 -9 -128 -55 l0 -40 450 0 450 0 0 40
c0 44 2 44 -139 55 -99 7 -153 34 -178 89 -17 38 -18 83 -18 768 l0 728 -35
-1 c-27 -1 -103 -42 -317 -170z"/>
<path d="M21240 3714 c-137 -21 -239 -49 -348 -94 l-67 -29 -3 -120 -3 -121
73 0 74 0 27 63 c55 125 152 191 282 190 90 0 144 -23 195 -81 57 -64 74 -130
67 -255 -5 -89 -9 -107 -45 -180 -48 -99 -119 -194 -293 -392 -145 -165 -256
-307 -311 -400 -59 -99 -108 -203 -108 -230 l0 -25 504 0 504 0 6 138 c4 75 9
154 12 175 l6 37 -56 0 -55 0 -12 -41 c-17 -54 -56 -94 -105 -108 -24 -7 -142
-11 -302 -11 l-263 0 50 73 c81 116 152 201 319 381 337 364 392 454 393 641
1 174 -59 280 -195 344 -87 41 -238 61 -346 45z"/>
<path d="M27485 3710 c-73 -12 -205 -51 -302 -92 l-73 -30 0 -114 0 -114 74 0
74 0 18 48 c54 147 179 218 336 190 118 -21 190 -91 209 -207 18 -109 -11
-215 -82 -295 -65 -75 -209 -138 -341 -152 l-68 -6 0 -54 0 -54 64 0 c100 0
216 -19 272 -45 60 -27 129 -86 151 -129 68 -131 53 -344 -31 -442 -56 -65
-121 -89 -241 -88 -84 0 -107 4 -145 23 -57 29 -103 80 -136 154 l-27 57 -73
0 -74 0 0 -130 0 -129 78 -24 c140 -45 260 -60 406 -54 153 6 239 31 333 95
205 140 254 468 96 643 -47 52 -146 113 -227 139 -76 25 -77 21 27 77 116 62
201 151 241 252 23 60 24 181 2 249 -33 99 -119 175 -241 213 -71 23 -234 32
-320 19z"/>
<path d="M29420 3714 c-137 -21 -239 -49 -348 -94 l-67 -29 -3 -120 -3 -121
73 0 74 0 27 63 c55 125 152 191 282 190 90 0 144 -23 195 -81 57 -64 74 -130
67 -255 -5 -89 -9 -107 -45 -180 -48 -99 -119 -194 -293 -392 -145 -165 -256
-307 -311 -400 -59 -99 -108 -203 -108 -230 l0 -25 504 0 504 0 6 138 c4 75 9
154 12 175 l6 37 -56 0 -55 0 -12 -41 c-17 -54 -56 -94 -105 -108 -24 -7 -142
-11 -302 -11 l-263 0 50 73 c81 116 152 201 319 381 337 364 392 454 393 641
1 174 -59 280 -195 344 -87 41 -238 61 -346 45z"/>
<path d="M35720 3714 c-137 -21 -239 -49 -348 -94 l-67 -29 -3 -120 -3 -121
73 0 74 0 27 63 c55 125 152 191 282 190 90 0 144 -23 195 -81 57 -64 74 -130
67 -255 -5 -89 -9 -107 -45 -180 -48 -99 -119 -194 -293 -392 -145 -165 -256
-307 -311 -400 -59 -99 -108 -203 -108 -230 l0 -25 504 0 504 0 6 138 c4 75 9
154 12 175 l6 37 -56 0 -55 0 -12 -41 c-17 -54 -56 -94 -105 -108 -24 -7 -142
-11 -302 -11 l-263 0 50 73 c81 116 152 201 319 381 337 364 392 454 393 641
1 174 -59 280 -195 344 -87 41 -238 61 -346 45z"/>
<path d="M46740 3705 c-428 -74 -747 -451 -788 -931 -35 -400 100 -668 370
-739 102 -27 295 -17 398 20 188 68 295 211 319 427 5 42 5 109 1 149 -21 191
-98 309 -248 376 -50 23 -71 26 -177 27 -143 1 -215 -18 -339 -89 -44 -25 -81
-43 -83 -41 -10 9 51 204 87 282 86 187 248 335 413 378 29 8 88 17 130 21 77
7 77 7 77 37 0 35 -45 99 -69 97 -9 -1 -50 -7 -91 -14z m-119 -807 c94 -28
169 -139 189 -280 12 -84 -3 -239 -31 -312 -40 -108 -130 -174 -253 -183 -162
-13 -264 60 -317 227 -26 82 -39 335 -19 394 19 60 148 141 250 159 52 9 144
7 181 -5z"/>
<path d="M48173 3549 l-282 -169 26 -45 c13 -25 27 -45 30 -45 3 0 40 22 82
49 94 60 146 86 188 96 27 5 37 2 58 -19 l25 -26 -2 -573 -3 -573 -25 -37
c-32 -47 -78 -65 -182 -72 -129 -10 -128 -9 -128 -55 l0 -40 450 0 450 0 0 40
c0 44 2 44 -139 55 -99 7 -153 34 -178 89 -17 38 -18 83 -18 768 l0 728 -35
-1 c-27 -1 -103 -42 -317 -170z"/>
<path d="M53020 3705 c-428 -74 -747 -451 -788 -931 -35 -400 100 -668 370
-739 102 -27 295 -17 398 20 188 68 295 211 319 427 5 42 5 109 1 149 -21 191
-98 309 -248 376 -50 23 -71 26 -177 27 -143 1 -215 -18 -339 -89 -44 -25 -81
-43 -83 -41 -10 9 51 204 87 282 86 187 248 335 413 378 29 8 88 17 130 21 77
7 77 7 77 37 0 35 -45 99 -69 97 -9 -1 -50 -7 -91 -14z m-119 -807 c94 -28
169 -139 189 -280 12 -84 -3 -239 -31 -312 -40 -108 -130 -174 -253 -183 -162
-13 -264 60 -317 227 -26 82 -39 335 -19 394 19 60 148 141 250 159 52 9 144
7 181 -5z"/>
<path d="M22977 3172 c-341 -515 -357 -541 -357 -585 l0 -47 340 0 340 0 0
-134 c0 -219 -18 -270 -104 -299 -33 -11 -42 -19 -44 -40 l-3 -27 250 0 251 0
0 29 c0 23 -5 30 -28 34 -15 3 -40 16 -56 28 -48 38 -56 72 -56 249 l0 160
144 0 143 0 7 61 c3 34 6 91 6 125 l0 64 -43 0 c-40 0 -44 -2 -62 -42 -28 -59
-74 -88 -141 -88 l-54 0 0 525 0 525 -88 0 -89 0 -356 -538z m329 181 c-3 -42
-6 -215 -6 -385 l0 -308 -241 0 c-217 0 -241 2 -235 16 13 34 471 754 480 754
5 0 6 -33 2 -77z"/>
<path d="M33647 3172 c-341 -515 -357 -541 -357 -585 l0 -47 340 0 340 0 0
-134 c0 -219 -18 -270 -104 -299 -33 -11 -42 -19 -44 -40 l-3 -27 250 0 251 0
0 29 c0 23 -5 30 -28 34 -15 3 -40 16 -56 28 -48 38 -56 72 -56 249 l0 160
144 0 143 0 7 61 c3 34 6 91 6 125 l0 64 -43 0 c-40 0 -44 -2 -62 -42 -28 -59
-74 -88 -141 -88 l-54 0 0 525 0 525 -88 0 -89 0 -356 -538z m329 181 c-3 -42
-6 -215 -6 -385 l0 -308 -241 0 c-217 0 -241 2 -235 16 13 34 471 754 480 754
5 0 6 -33 2 -77z"/>
<path d="M41837 3172 c-341 -515 -357 -541 -357 -585 l0 -47 340 0 340 0 0
-134 c0 -219 -18 -270 -104 -299 -33 -11 -42 -19 -44 -40 l-3 -27 250 0 251 0
0 29 c0 23 -5 30 -28 34 -15 3 -40 16 -56 28 -48 38 -56 72 -56 249 l0 160
144 0 143 0 7 61 c3 34 6 91 6 125 l0 64 -43 0 c-40 0 -44 -2 -62 -42 -28 -59
-74 -88 -141 -88 l-54 0 0 525 0 525 -88 0 -89 0 -356 -538z m329 181 c-3 -42
-6 -215 -6 -385 l0 -308 -241 0 c-217 0 -241 2 -235 16 13 34 471 754 480 754
5 0 6 -33 2 -77z"/>
<path d="M54417 3172 c-341 -515 -357 -541 -357 -585 l0 -47 340 0 340 0 0
-134 c0 -219 -18 -270 -104 -299 -33 -11 -42 -19 -44 -40 l-3 -27 250 0 251 0
0 29 c0 23 -5 30 -28 34 -15 3 -40 16 -56 28 -48 38 -56 72 -56 249 l0 160
144 0 143 0 7 61 c3 34 6 91 6 125 l0 64 -43 0 c-40 0 -44 -2 -62 -42 -28 -59
-74 -88 -141 -88 l-54 0 0 525 0 525 -88 0 -89 0 -356 -538z m329 181 c-3 -42
-6 -215 -6 -385 l0 -308 -241 0 c-217 0 -241 2 -235 16 13 34 471 754 480 754
5 0 6 -33 2 -77z"/>
<path d="M1316 3684 c-12 -31 -6 -41 32 -52 60 -18 75 -41 74 -114 -2 -77 -5
-94 -97 -508 -90 -407 -105 -489 -105 -594 0 -178 59 -285 193 -351 88 -43
190 -57 326 -44 284 26 448 158 540 434 16 50 73 290 126 534 53 243 105 472
116 507 23 75 57 118 104 134 19 6 35 15 35 18 0 4 3 17 6 30 l6 22 -230 0
c-200 0 -231 -2 -236 -16 -12 -30 -6 -42 24 -49 16 -3 41 -15 55 -26 22 -18
25 -28 25 -87 0 -82 -7 -121 -110 -582 -114 -516 -129 -565 -193 -660 -43 -62
-72 -86 -145 -122 -57 -27 -74 -31 -157 -31 -82 -1 -99 3 -149 28 -101 51
-136 152 -116 334 11 99 184 896 219 1012 22 71 66 123 114 134 15 4 27 13 27
20 0 7 3 20 6 29 6 14 -20 16 -239 16 -214 0 -246 -2 -251 -16z"/>
<path d="M3670 3000 l0 -80 750 0 750 0 0 80 0 80 -750 0 -750 0 0 -80z"/>
<path d="M3670 2495 l0 -85 750 0 750 0 0 85 0 85 -750 0 -750 0 0 -85z"/>
<path d="M9602 2158 c0 -155 -1 -166 -27 -228 -15 -36 -45 -87 -67 -113 l-40
-48 28 -32 c16 -18 30 -34 31 -36 5 -9 143 111 185 161 107 125 136 251 102
431 l-6 27 -103 0 -104 0 1 -162z"/>
<path d="M12542 2158 c0 -155 -1 -166 -27 -228 -15 -36 -45 -87 -67 -113 l-40
-48 28 -32 c16 -18 30 -34 31 -36 5 -9 143 111 185 161 107 125 136 251 102
431 l-6 27 -103 0 -104 0 1 -162z"/>
<path d="M15892 2158 c0 -155 -1 -166 -27 -228 -15 -36 -45 -87 -67 -113 l-40
-48 28 -32 c16 -18 30 -34 31 -36 5 -9 143 111 185 161 107 125 136 251 102
431 l-6 27 -103 0 -104 0 1 -162z"/>
<path d="M18822 2158 c0 -155 -1 -166 -27 -228 -15 -36 -45 -87 -67 -113 l-40
-48 28 -32 c16 -18 30 -34 31 -36 5 -9 143 111 185 161 107 125 136 251 102
431 l-6 27 -103 0 -104 0 1 -162z"/>
<path d="M22172 2158 c0 -155 -1 -166 -27 -228 -15 -36 -45 -87 -67 -113 l-40
-48 28 -32 c16 -18 30 -34 31 -36 5 -9 143 111 185 161 107 125 136 251 102
431 l-6 27 -103 0 -104 0 1 -162z"/>
<path d="M25112 2158 c0 -155 -1 -166 -27 -228 -15 -36 -45 -87 -67 -113 l-40
-48 28 -32 c16 -18 30 -34 31 -36 5 -9 143 111 185 161 107 125 136 251 102
431 l-6 27 -103 0 -104 0 1 -162z"/>
<path d="M28462 2158 c0 -155 -1 -166 -27 -228 -15 -36 -45 -87 -67 -113 l-40
-48 28 -32 c16 -18 30 -34 31 -36 5 -9 143 111 185 161 107 125 136 251 102
431 l-6 27 -103 0 -104 0 1 -162z"/>
<path d="M31392 2158 c0 -155 -1 -166 -27 -228 -15 -36 -45 -87 -67 -113 l-40
-48 28 -32 c16 -18 30 -34 31 -36 5 -9 143 111 185 161 107 125 136 251 102
431 l-6 27 -103 0 -104 0 1 -162z"/>
<path d="M34762 2158 c0 -155 -1 -166 -27 -228 -15 -36 -45 -87 -67 -113 l-40
-48 28 -32 c16 -18 30 -34 31 -36 5 -9 143 111 185 161 107 125 136 251 102
431 l-6 27 -103 0 -104 0 1 -162z"/>
<path d="M37692 2158 c0 -155 -1 -166 -27 -228 -15 -36 -45 -87 -67 -113 l-40
-48 28 -32 c16 -18 30 -34 31 -36 5 -9 143 111 185 161 107 125 136 251 102
431 l-6 27 -103 0 -104 0 1 -162z"/>
<path d="M41042 2158 c0 -155 -1 -166 -27 -228 -15 -36 -45 -87 -67 -113 l-40
-48 28 -32 c16 -18 30 -34 31 -36 5 -9 143 111 185 161 107 125 136 251 102
431 l-6 27 -103 0 -104 0 1 -162z"/>
<path d="M43982 2158 c0 -155 -1 -166 -27 -228 -15 -36 -45 -87 -67 -113 l-40
-48 28 -32 c16 -18 30 -34 31 -36 5 -9 143 111 185 161 107 125 136 251 102
431 l-6 27 -103 0 -104 0 1 -162z"/>
<path d="M47332 2158 c0 -155 -1 -166 -27 -228 -15 -36 -45 -87 -67 -113 l-40
-48 28 -32 c16 -18 30 -34 31 -36 5 -9 143 111 185 161 107 125 136 251 102
431 l-6 27 -103 0 -104 0 1 -162z"/>
<path d="M50262 2158 c0 -155 -1 -166 -27 -228 -15 -36 -45 -87 -67 -113 l-40
-48 28 -32 c16 -18 30 -34 31 -36 5 -9 143 111 185 161 107 125 136 251 102
431 l-6 27 -103 0 -104 0 1 -162z"/>
<path d="M53612 2158 c0 -155 -1 -166 -27 -228 -15 -36 -45 -87 -67 -113 l-40
-48 28 -32 c16 -18 30 -34 31 -36 5 -9 143 111 185 161 107 125 136 251 102
431 l-6 27 -103 0 -104 0 1 -162z"/>
</g>
</svg>
