<?xml version="1.0" standalone="no"?>
<!DOCTYPE svg PUBLIC "-//W3C//DTD SVG 20010904//EN"
 "http://www.w3.org/TR/2001/REC-SVG-20010904/DTD/svg10.dtd">
<svg version="1.0" xmlns="http://www.w3.org/2000/svg"
 width="3785.000000pt" height="2616.000000pt" viewBox="0 0 3785.000000 2616.000000"
 preserveAspectRatio="xMidYMid meet">

<g transform="translate(0.000000,2616.000000) scale(0.100000,-0.100000)"
fill="#000000" stroke="none">
<path d="M4230 25591 c-73 -11 -192 -56 -259 -99 -209 -132 -354 -423 -406
-815 -49 -362 -19 -829 70 -1093 45 -135 80 -203 153 -294 73 -92 165 -157
282 -201 82 -31 90 -32 250 -33 148 -1 172 1 235 22 109 36 193 89 275 171 64
64 86 96 137 196 72 141 123 308 150 495 26 180 26 652 0 830 -65 436 -228
691 -505 787 -78 27 -111 33 -210 37 -64 3 -142 1 -172 -3z m247 -178 c151
-74 241 -282 290 -676 20 -161 23 -661 4 -837 -41 -392 -132 -598 -299 -673
-68 -30 -183 -28 -249 4 -222 107 -323 455 -323 1115 0 519 61 827 196 982 99
116 249 149 381 85z"/>
<path d="M10050 25591 c-73 -11 -192 -56 -259 -99 -209 -132 -354 -423 -406
-815 -49 -362 -19 -829 70 -1093 45 -135 80 -203 153 -294 73 -92 165 -157
282 -201 82 -31 90 -32 250 -33 148 -1 172 1 235 22 109 36 193 89 275 171 64
64 86 96 137 196 72 141 123 308 150 495 26 180 26 652 0 830 -65 436 -228
691 -505 787 -78 27 -111 33 -210 37 -64 3 -142 1 -172 -3z m247 -178 c151
-74 241 -282 290 -676 20 -161 23 -661 4 -837 -41 -392 -132 -598 -299 -673
-68 -30 -183 -28 -249 4 -222 107 -323 455 -323 1115 0 519 61 827 196 982 99
116 249 149 381 85z"/>
<path d="M15880 25591 c-73 -11 -192 -56 -259 -99 -209 -132 -354 -423 -406
-815 -49 -362 -19 -829 70 -1093 45 -135 80 -203 153 -294 73 -92 165 -157
282 -201 82 -31 90 -32 250 -33 148 -1 172 1 235 22 109 36 193 89 275 171 64
64 86 96 137 196 72 141 123 308 150 495 26 180 26 652 0 830 -65 436 -228
691 -505 787 -78 27 -111 33 -210 37 -64 3 -142 1 -172 -3z m247 -178 c151
-74 241 -282 290 -676 20 -161 23 -661 4 -837 -41 -392 -132 -598 -299 -673
-68 -30 -183 -28 -249 4 -222 107 -323 455 -323 1115 0 519 61 827 196 982 99
116 249 149 381 85z"/>
<path d="M21710 25591 c-73 -11 -192 -56 -259 -99 -209 -132 -354 -423 -406
-815 -49 -362 -19 -829 70 -1093 45 -135 80 -203 153 -294 73 -92 165 -157
282 -201 82 -31 90 -32 250 -33 148 -1 172 1 235 22 109 36 193 89 275 171 64
64 86 96 137 196 72 141 123 308 150 495 26 180 26 652 0 830 -65 436 -228
691 -505 787 -78 27 -111 33 -210 37 -64 3 -142 1 -172 -3z m247 -178 c151
-74 241 -282 290 -676 20 -161 23 -661 4 -837 -41 -392 -132 -598 -299 -673
-68 -30 -183 -28 -249 4 -222 107 -323 455 -323 1115 0 519 61 827 196 982 99
116 249 149 381 85z"/>
<path d="M27530 25591 c-73 -11 -192 -56 -259 -99 -209 -132 -354 -423 -406
-815 -49 -362 -19 -829 70 -1093 45 -135 80 -203 153 -294 73 -92 165 -157
282 -201 82 -31 90 -32 250 -33 148 -1 172 1 235 22 109 36 193 89 275 171 64
64 86 96 137 196 72 141 123 308 150 495 26 180 26 652 0 830 -65 436 -228
691 -505 787 -78 27 -111 33 -210 37 -64 3 -142 1 -172 -3z m247 -178 c151
-74 241 -282 290 -676 20 -161 23 -661 4 -837 -41 -392 -132 -598 -299 -673
-68 -30 -183 -28 -249 4 -222 107 -323 455 -323 1115 0 519 61 827 196 982 99
116 249 149 381 85z"/>
<path d="M33190 25349 c-228 -137 -419 -250 -423 -252 -5 -1 10 -34 33 -73
l41 -72 127 80 c194 122 279 156 340 137 70 -23 67 11 70 -819 3 -789 -2 -941
-37 -1007 -41 -79 -119 -108 -333 -125 l-148 -12 0 -63 0 -63 680 0 680 0 0
63 0 64 -117 7 c-227 13 -327 50 -367 135 l-21 46 0 1103 0 1102 -55 -1 c-54
0 -65 -7 -470 -250z"/>
<path d="M2977 24648 c-732 -1017 -1311 -2430 -1687 -4123 -249 -1123 -379
-2279 -397 -3547 l-6 -448 195 0 195 0 6 423 c8 484 19 772 48 1182 109 1561
404 3120 823 4345 272 793 582 1445 969 2038 66 101 116 187 111 191 -5 4 -37
31 -71 59 l-61 52 -125 -172z"/>
<path d="M34642 24759 l-71 -59 123 -188 c679 -1035 1181 -2411 1500 -4116
214 -1143 336 -2420 336 -3526 l0 -340 200 0 200 0 -5 348 c-30 1782 -246
3278 -685 4742 -374 1244 -836 2241 -1408 3033 l-119 166 -71 -60z"/>
<path d="M4060 20959 c-228 -137 -419 -250 -423 -252 -5 -1 10 -34 33 -73 l41
-72 127 80 c194 122 279 156 340 137 70 -23 67 11 70 -819 3 -789 -2 -941 -37
-1007 -41 -79 -119 -108 -333 -125 l-148 -12 0 -63 0 -63 680 0 680 0 0 63 0
64 -117 7 c-227 13 -327 50 -367 135 l-21 46 0 1103 0 1102 -55 -1 c-54 0 -65
-7 -470 -250z"/>
<path d="M10050 21201 c-73 -11 -192 -56 -259 -99 -209 -132 -354 -423 -406
-815 -49 -362 -19 -829 70 -1093 45 -135 80 -203 153 -294 73 -92 165 -157
282 -201 82 -31 90 -32 250 -33 148 -1 172 1 235 22 109 36 193 89 275 171 64
64 86 96 137 196 72 141 123 308 150 495 26 180 26 652 0 830 -65 436 -228
691 -505 787 -78 27 -111 33 -210 37 -64 3 -142 1 -172 -3z m247 -178 c151
-74 241 -282 290 -676 20 -161 23 -661 4 -837 -41 -392 -132 -598 -299 -673
-68 -30 -183 -28 -249 4 -222 107 -323 455 -323 1115 0 519 61 827 196 982 99
116 249 149 381 85z"/>
<path d="M15880 21201 c-73 -11 -192 -56 -259 -99 -209 -132 -354 -423 -406
-815 -49 -362 -19 -829 70 -1093 45 -135 80 -203 153 -294 73 -92 165 -157
282 -201 82 -31 90 -32 250 -33 148 -1 172 1 235 22 109 36 193 89 275 171 64
64 86 96 137 196 72 141 123 308 150 495 26 180 26 652 0 830 -65 436 -228
691 -505 787 -78 27 -111 33 -210 37 -64 3 -142 1 -172 -3z m247 -178 c151
-74 241 -282 290 -676 20 -161 23 -661 4 -837 -41 -392 -132 -598 -299 -673
-68 -30 -183 -28 -249 4 -222 107 -323 455 -323 1115 0 519 61 827 196 982 99
116 249 149 381 85z"/>
<path d="M21710 21201 c-73 -11 -192 -56 -259 -99 -209 -132 -354 -423 -406
-815 -49 -362 -19 -829 70 -1093 45 -135 80 -203 153 -294 73 -92 165 -157
282 -201 82 -31 90 -32 250 -33 148 -1 172 1 235 22 109 36 193 89 275 171 64
64 86 96 137 196 72 141 123 308 150 495 26 180 26 652 0 830 -65 436 -228
691 -505 787 -78 27 -111 33 -210 37 -64 3 -142 1 -172 -3z m247 -178 c151
-74 241 -282 290 -676 20 -161 23 -661 4 -837 -41 -392 -132 -598 -299 -673
-68 -30 -183 -28 -249 4 -222 107 -323 455 -323 1115 0 519 61 827 196 982 99
116 249 149 381 85z"/>
<path d="M27530 21201 c-73 -11 -192 -56 -259 -99 -209 -132 -354 -423 -406
-815 -49 -362 -19 -829 70 -1093 45 -135 80 -203 153 -294 73 -92 165 -157
282 -201 82 -31 90 -32 250 -33 148 -1 172 1 235 22 109 36 193 89 275 171 64
64 86 96 137 196 72 141 123 308 150 495 26 180 26 652 0 830 -65 436 -228
691 -505 787 -78 27 -111 33 -210 37 -64 3 -142 1 -172 -3z m247 -178 c151
-74 241 -282 290 -676 20 -161 23 -661 4 -837 -41 -392 -132 -598 -299 -673
-68 -30 -183 -28 -249 4 -222 107 -323 455 -323 1115 0 519 61 827 196 982 99
116 249 149 381 85z"/>
<path d="M33360 21201 c-73 -11 -192 -56 -259 -99 -209 -132 -354 -423 -406
-815 -49 -362 -19 -829 70 -1093 45 -135 80 -203 153 -294 73 -92 165 -157
282 -201 82 -31 90 -32 250 -33 148 -1 172 1 235 22 109 36 193 89 275 171 64
64 86 96 137 196 72 141 123 308 150 495 26 180 26 652 0 830 -65 436 -228
691 -505 787 -78 27 -111 33 -210 37 -64 3 -142 1 -172 -3z m247 -178 c151
-74 241 -282 290 -676 20 -161 23 -661 4 -837 -41 -392 -132 -598 -299 -673
-68 -30 -183 -28 -249 4 -222 107 -323 455 -323 1115 0 519 61 827 196 982 99
116 249 149 381 85z"/>
<path d="M4230 16801 c-73 -11 -192 -56 -259 -99 -209 -132 -354 -423 -406
-815 -49 -362 -19 -829 70 -1093 45 -135 80 -203 153 -294 73 -92 165 -157
282 -201 82 -31 90 -32 250 -33 148 -1 172 1 235 22 109 36 193 89 275 171 64
64 86 96 137 196 72 141 123 308 150 495 26 180 26 652 0 830 -65 436 -228
691 -505 787 -78 27 -111 33 -210 37 -64 3 -142 1 -172 -3z m247 -178 c151
-74 241 -282 290 -676 20 -161 23 -661 4 -837 -41 -392 -132 -598 -299 -673
-68 -30 -183 -28 -249 4 -222 107 -323 455 -323 1115 0 519 61 827 196 982 99
116 249 149 381 85z"/>
<path d="M9880 16559 c-228 -137 -419 -250 -423 -252 -5 -1 10 -34 33 -73 l41
-72 127 80 c194 122 279 156 340 137 70 -23 67 11 70 -819 3 -789 -2 -941 -37
-1007 -41 -79 -119 -108 -333 -125 l-148 -12 0 -63 0 -63 680 0 680 0 0 63 0
64 -117 7 c-227 13 -327 50 -367 135 l-21 46 0 1103 0 1102 -55 -1 c-54 0 -65
-7 -470 -250z"/>
<path d="M15880 16801 c-73 -11 -192 -56 -259 -99 -209 -132 -354 -423 -406
-815 -49 -362 -19 -829 70 -1093 45 -135 80 -203 153 -294 73 -92 165 -157
282 -201 82 -31 90 -32 250 -33 148 -1 172 1 235 22 109 36 193 89 275 171 64
64 86 96 137 196 72 141 123 308 150 495 26 180 26 652 0 830 -65 436 -228
691 -505 787 -78 27 -111 33 -210 37 -64 3 -142 1 -172 -3z m247 -178 c151
-74 241 -282 290 -676 20 -161 23 -661 4 -837 -41 -392 -132 -598 -299 -673
-68 -30 -183 -28 -249 4 -222 107 -323 455 -323 1115 0 519 61 827 196 982 99
116 249 149 381 85z"/>
<path d="M21710 16801 c-73 -11 -192 -56 -259 -99 -209 -132 -354 -423 -406
-815 -49 -362 -19 -829 70 -1093 45 -135 80 -203 153 -294 73 -92 165 -157
282 -201 82 -31 90 -32 250 -33 148 -1 172 1 235 22 109 36 193 89 275 171 64
64 86 96 137 196 72 141 123 308 150 495 26 180 26 652 0 830 -65 436 -228
691 -505 787 -78 27 -111 33 -210 37 -64 3 -142 1 -172 -3z m247 -178 c151
-74 241 -282 290 -676 20 -161 23 -661 4 -837 -41 -392 -132 -598 -299 -673
-68 -30 -183 -28 -249 4 -222 107 -323 455 -323 1115 0 519 61 827 196 982 99
116 249 149 381 85z"/>
<path d="M27530 16801 c-73 -11 -192 -56 -259 -99 -209 -132 -354 -423 -406
-815 -49 -362 -19 -829 70 -1093 45 -135 80 -203 153 -294 73 -92 165 -157
282 -201 82 -31 90 -32 250 -33 148 -1 172 1 235 22 109 36 193 89 275 171 64
64 86 96 137 196 72 141 123 308 150 495 26 180 26 652 0 830 -65 436 -228
691 -505 787 -78 27 -111 33 -210 37 -64 3 -142 1 -172 -3z m247 -178 c151
-74 241 -282 290 -676 20 -161 23 -661 4 -837 -41 -392 -132 -598 -299 -673
-68 -30 -183 -28 -249 4 -222 107 -323 455 -323 1115 0 519 61 827 196 982 99
116 249 149 381 85z"/>
<path d="M33360 16801 c-73 -11 -192 -56 -259 -99 -209 -132 -354 -423 -406
-815 -49 -362 -19 -829 70 -1093 45 -135 80 -203 153 -294 73 -92 165 -157
282 -201 82 -31 90 -32 250 -33 148 -1 172 1 235 22 109 36 193 89 275 171 64
64 86 96 137 196 72 141 123 308 150 495 26 180 26 652 0 830 -65 436 -228
691 -505 787 -78 27 -111 33 -210 37 -64 3 -142 1 -172 -3z m247 -178 c151
-74 241 -282 290 -676 20 -161 23 -661 4 -837 -41 -392 -132 -598 -299 -673
-68 -30 -183 -28 -249 4 -222 107 -323 455 -323 1115 0 519 61 827 196 982 99
116 249 149 381 85z"/>
<path d="M890 15625 l0 -895 195 0 195 0 0 895 0 895 -195 0 -195 0 0 -895z"/>
<path d="M36530 15625 l0 -895 200 0 200 0 0 895 0 895 -200 0 -200 0 0 -895z"/>
<path d="M893 11973 c4 -2951 3 -2877 57 -3548 188 -2336 848 -4572 1784
-6050 148 -233 354 -520 372 -519 15 2 133 95 133 107 1 4 -49 83 -111 175
-294 440 -577 997 -811 1597 -508 1300 -866 3045 -987 4795 -43 636 -43 633
-47 3458 l-4 2732 -195 0 -195 0 4 -2747z"/>
<path d="M36530 12088 c0 -2803 -2 -2930 -50 -3603 -127 -1752 -480 -3454
-988 -4760 -225 -579 -514 -1148 -802 -1580 -58 -88 -109 -165 -113 -171 -9
-15 131 -130 142 -118 36 40 248 345 346 499 951 1490 1618 3751 1800 6100 58
757 58 725 62 3608 l5 2657 -201 0 -201 0 0 -2632z"/>
<path d="M4230 12401 c-73 -11 -192 -56 -259 -99 -209 -132 -354 -423 -406
-815 -49 -362 -19 -829 70 -1093 45 -135 80 -203 153 -294 73 -92 165 -157
282 -201 82 -31 90 -32 250 -33 148 -1 172 1 235 22 109 36 193 89 275 171 64
64 86 96 137 196 72 141 123 308 150 495 26 180 26 652 0 830 -65 436 -228
691 -505 787 -78 27 -111 33 -210 37 -64 3 -142 1 -172 -3z m247 -178 c151
-74 241 -282 290 -676 20 -161 23 -661 4 -837 -41 -392 -132 -598 -299 -673
-68 -30 -183 -28 -249 4 -222 107 -323 455 -323 1115 0 519 61 827 196 982 99
116 249 149 381 85z"/>
<path d="M10050 12401 c-73 -11 -192 -56 -259 -99 -209 -132 -354 -423 -406
-815 -49 -362 -19 -829 70 -1093 45 -135 80 -203 153 -294 73 -92 165 -157
282 -201 82 -31 90 -32 250 -33 148 -1 172 1 235 22 109 36 193 89 275 171 64
64 86 96 137 196 72 141 123 308 150 495 26 180 26 652 0 830 -65 436 -228
691 -505 787 -78 27 -111 33 -210 37 -64 3 -142 1 -172 -3z m247 -178 c151
-74 241 -282 290 -676 20 -161 23 -661 4 -837 -41 -392 -132 -598 -299 -673
-68 -30 -183 -28 -249 4 -222 107 -323 455 -323 1115 0 519 61 827 196 982 99
116 249 149 381 85z"/>
<path d="M15880 12401 c-73 -11 -192 -56 -259 -99 -209 -132 -354 -423 -406
-815 -49 -362 -19 -829 70 -1093 45 -135 80 -203 153 -294 73 -92 165 -157
282 -201 82 -31 90 -32 250 -33 148 -1 172 1 235 22 109 36 193 89 275 171 64
64 86 96 137 196 72 141 123 308 150 495 26 180 26 652 0 830 -65 436 -228
691 -505 787 -78 27 -111 33 -210 37 -64 3 -142 1 -172 -3z m247 -178 c151
-74 241 -282 290 -676 20 -161 23 -661 4 -837 -41 -392 -132 -598 -299 -673
-68 -30 -183 -28 -249 4 -222 107 -323 455 -323 1115 0 519 61 827 196 982 99
116 249 149 381 85z"/>
<path d="M21710 12401 c-73 -11 -192 -56 -259 -99 -209 -132 -354 -423 -406
-815 -49 -362 -19 -829 70 -1093 45 -135 80 -203 153 -294 73 -92 165 -157
282 -201 82 -31 90 -32 250 -33 148 -1 172 1 235 22 109 36 193 89 275 171 64
64 86 96 137 196 72 141 123 308 150 495 26 180 26 652 0 830 -65 436 -228
691 -505 787 -78 27 -111 33 -210 37 -64 3 -142 1 -172 -3z m247 -178 c151
-74 241 -282 290 -676 20 -161 23 -661 4 -837 -41 -392 -132 -598 -299 -673
-68 -30 -183 -28 -249 4 -222 107 -323 455 -323 1115 0 519 61 827 196 982 99
116 249 149 381 85z"/>
<path d="M27530 12401 c-73 -11 -192 -56 -259 -99 -209 -132 -354 -423 -406
-815 -49 -362 -19 -829 70 -1093 45 -135 80 -203 153 -294 73 -92 165 -157
282 -201 82 -31 90 -32 250 -33 148 -1 172 1 235 22 109 36 193 89 275 171 64
64 86 96 137 196 72 141 123 308 150 495 26 180 26 652 0 830 -65 436 -228
691 -505 787 -78 27 -111 33 -210 37 -64 3 -142 1 -172 -3z m247 -178 c151
-74 241 -282 290 -676 20 -161 23 -661 4 -837 -41 -392 -132 -598 -299 -673
-68 -30 -183 -28 -249 4 -222 107 -323 455 -323 1115 0 519 61 827 196 982 99
116 249 149 381 85z"/>
<path d="M33360 12401 c-73 -11 -192 -56 -259 -99 -209 -132 -354 -423 -406
-815 -49 -362 -19 -829 70 -1093 45 -135 80 -203 153 -294 73 -92 165 -157
282 -201 82 -31 90 -32 250 -33 148 -1 172 1 235 22 109 36 193 89 275 171 64
64 86 96 137 196 72 141 123 308 150 495 26 180 26 652 0 830 -65 436 -228
691 -505 787 -78 27 -111 33 -210 37 -64 3 -142 1 -172 -3z m247 -178 c151
-74 241 -282 290 -676 20 -161 23 -661 4 -837 -41 -392 -132 -598 -299 -673
-68 -30 -183 -28 -249 4 -222 107 -323 455 -323 1115 0 519 61 827 196 982 99
116 249 149 381 85z"/>
<path d="M4230 8011 c-73 -11 -192 -56 -259 -99 -209 -132 -354 -423 -406
-815 -49 -362 -19 -829 70 -1093 45 -135 80 -203 153 -294 73 -92 165 -157
282 -201 82 -31 90 -32 250 -33 148 -1 172 1 235 22 109 36 193 89 275 171 64
64 86 96 137 196 72 141 123 308 150 495 26 180 26 652 0 830 -65 436 -228
691 -505 787 -78 27 -111 33 -210 37 -64 3 -142 1 -172 -3z m247 -178 c151
-74 241 -282 290 -676 20 -161 23 -661 4 -837 -41 -392 -132 -598 -299 -673
-68 -30 -183 -28 -249 4 -222 107 -323 455 -323 1115 0 519 61 827 196 982 99
116 249 149 381 85z"/>
<path d="M10050 8011 c-73 -11 -192 -56 -259 -99 -209 -132 -354 -423 -406
-815 -49 -362 -19 -829 70 -1093 45 -135 80 -203 153 -294 73 -92 165 -157
282 -201 82 -31 90 -32 250 -33 148 -1 172 1 235 22 109 36 193 89 275 171 64
64 86 96 137 196 72 141 123 308 150 495 26 180 26 652 0 830 -65 436 -228
691 -505 787 -78 27 -111 33 -210 37 -64 3 -142 1 -172 -3z m247 -178 c151
-74 241 -282 290 -676 20 -161 23 -661 4 -837 -41 -392 -132 -598 -299 -673
-68 -30 -183 -28 -249 4 -222 107 -323 455 -323 1115 0 519 61 827 196 982 99
116 249 149 381 85z"/>
<path d="M15880 8011 c-73 -11 -192 -56 -259 -99 -209 -132 -354 -423 -406
-815 -49 -362 -19 -829 70 -1093 45 -135 80 -203 153 -294 73 -92 165 -157
282 -201 82 -31 90 -32 250 -33 148 -1 172 1 235 22 109 36 193 89 275 171 64
64 86 96 137 196 72 141 123 308 150 495 26 180 26 652 0 830 -65 436 -228
691 -505 787 -78 27 -111 33 -210 37 -64 3 -142 1 -172 -3z m247 -178 c151
-74 241 -282 290 -676 20 -161 23 -661 4 -837 -41 -392 -132 -598 -299 -673
-68 -30 -183 -28 -249 4 -222 107 -323 455 -323 1115 0 519 61 827 196 982 99
116 249 149 381 85z"/>
<path d="M21540 7769 c-228 -137 -419 -250 -423 -252 -5 -1 10 -34 33 -73 l41
-72 127 80 c194 122 279 156 340 137 70 -23 67 11 70 -819 3 -789 -2 -941 -37
-1007 -41 -79 -119 -108 -333 -125 l-148 -12 0 -63 0 -63 680 0 680 0 0 63 0
64 -117 7 c-227 13 -327 50 -367 135 l-21 46 0 1103 0 1102 -55 -1 c-54 0 -65
-7 -470 -250z"/>
<path d="M27530 8011 c-73 -11 -192 -56 -259 -99 -209 -132 -354 -423 -406
-815 -49 -362 -19 -829 70 -1093 45 -135 80 -203 153 -294 73 -92 165 -157
282 -201 82 -31 90 -32 250 -33 148 -1 172 1 235 22 109 36 193 89 275 171 64
64 86 96 137 196 72 141 123 308 150 495 26 180 26 652 0 830 -65 436 -228
691 -505 787 -78 27 -111 33 -210 37 -64 3 -142 1 -172 -3z m247 -178 c151
-74 241 -282 290 -676 20 -161 23 -661 4 -837 -41 -392 -132 -598 -299 -673
-68 -30 -183 -28 -249 4 -222 107 -323 455 -323 1115 0 519 61 827 196 982 99
116 249 149 381 85z"/>
<path d="M33360 8011 c-73 -11 -192 -56 -259 -99 -209 -132 -354 -423 -406
-815 -49 -362 -19 -829 70 -1093 45 -135 80 -203 153 -294 73 -92 165 -157
282 -201 82 -31 90 -32 250 -33 148 -1 172 1 235 22 109 36 193 89 275 171 64
64 86 96 137 196 72 141 123 308 150 495 26 180 26 652 0 830 -65 436 -228
691 -505 787 -78 27 -111 33 -210 37 -64 3 -142 1 -172 -3z m247 -178 c151
-74 241 -282 290 -676 20 -161 23 -661 4 -837 -41 -392 -132 -598 -299 -673
-68 -30 -183 -28 -249 4 -222 107 -323 455 -323 1115 0 519 61 827 196 982 99
116 249 149 381 85z"/>
<path d="M4060 3369 c-228 -137 -419 -250 -423 -252 -5 -1 10 -34 33 -73 l41
-72 127 80 c194 122 279 156 340 137 70 -23 67 11 70 -819 3 -789 -2 -941 -37
-1007 -41 -79 -119 -108 -333 -125 l-148 -12 0 -63 0 -63 680 0 680 0 0 63 0
64 -117 7 c-227 13 -327 50 -367 135 l-21 46 0 1103 0 1102 -55 -1 c-54 0 -65
-7 -470 -250z"/>
<path d="M9880 3369 c-228 -137 -419 -250 -423 -252 -5 -1 10 -34 33 -73 l41
-72 127 80 c194 122 279 156 340 137 70 -23 67 11 70 -819 3 -789 -2 -941 -37
-1007 -41 -79 -119 -108 -333 -125 l-148 -12 0 -63 0 -63 680 0 680 0 0 63 0
64 -117 7 c-227 13 -327 50 -367 135 l-21 46 0 1103 0 1102 -55 -1 c-54 0 -65
-7 -470 -250z"/>
<path d="M15880 3611 c-73 -11 -192 -56 -259 -99 -209 -132 -354 -423 -406
-815 -49 -362 -19 -829 70 -1093 45 -135 80 -203 153 -294 73 -92 165 -157
282 -201 82 -31 90 -32 250 -33 148 -1 172 1 235 22 109 36 193 89 275 171 64
64 86 96 137 196 72 141 123 308 150 495 26 180 26 652 0 830 -65 436 -228
691 -505 787 -78 27 -111 33 -210 37 -64 3 -142 1 -172 -3z m247 -178 c151
-74 241 -282 290 -676 20 -161 23 -661 4 -837 -41 -392 -132 -598 -299 -673
-68 -30 -183 -28 -249 4 -222 107 -323 455 -323 1115 0 519 61 827 196 982 99
116 249 149 381 85z"/>
<path d="M21540 3369 c-228 -137 -419 -250 -423 -252 -5 -1 10 -34 33 -73 l41
-72 127 80 c194 122 279 156 340 137 70 -23 67 11 70 -819 3 -789 -2 -941 -37
-1007 -41 -79 -119 -108 -333 -125 l-148 -12 0 -63 0 -63 680 0 680 0 0 63 0
64 -117 7 c-227 13 -327 50 -367 135 l-21 46 0 1103 0 1102 -55 -1 c-54 0 -65
-7 -470 -250z"/>
<path d="M27530 3611 c-73 -11 -192 -56 -259 -99 -209 -132 -354 -423 -406
-815 -49 -362 -19 -829 70 -1093 45 -135 80 -203 153 -294 73 -92 165 -157
282 -201 82 -31 90 -32 250 -33 148 -1 172 1 235 22 109 36 193 89 275 171 64
64 86 96 137 196 72 141 123 308 150 495 26 180 26 652 0 830 -65 436 -228
691 -505 787 -78 27 -111 33 -210 37 -64 3 -142 1 -172 -3z m247 -178 c151
-74 241 -282 290 -676 20 -161 23 -661 4 -837 -41 -392 -132 -598 -299 -673
-68 -30 -183 -28 -249 4 -222 107 -323 455 -323 1115 0 519 61 827 196 982 99
116 249 149 381 85z"/>
<path d="M33360 3611 c-73 -11 -192 -56 -259 -99 -209 -132 -354 -423 -406
-815 -49 -362 -19 -829 70 -1093 45 -135 80 -203 153 -294 73 -92 165 -157
282 -201 82 -31 90 -32 250 -33 148 -1 172 1 235 22 109 36 193 89 275 171 64
64 86 96 137 196 72 141 123 308 150 495 26 180 26 652 0 830 -65 436 -228
691 -505 787 -78 27 -111 33 -210 37 -64 3 -142 1 -172 -3z m247 -178 c151
-74 241 -282 290 -676 20 -161 23 -661 4 -837 -41 -392 -132 -598 -299 -673
-68 -30 -183 -28 -249 4 -222 107 -323 455 -323 1115 0 519 61 827 196 982 99
116 249 149 381 85z"/>
</g>
</svg>
