<?xml version="1.0" standalone="no"?>
<!DOCTYPE svg PUBLIC "-//W3C//DTD SVG 20010904//EN"
 "http://www.w3.org/TR/2001/REC-SVG-20010904/DTD/svg10.dtd">
<svg version="1.0" xmlns="http://www.w3.org/2000/svg"
 width="3785.000000pt" height="1823.000000pt" viewBox="0 0 3785.000000 1823.000000"
 preserveAspectRatio="xMidYMid meet">

<g transform="translate(0.000000,1823.000000) scale(0.100000,-0.100000)"
fill="#000000" stroke="none">
<path d="M11520 17851 c-230 -39 -377 -232 -436 -571 -19 -115 -22 -435 -5
-555 47 -321 166 -498 371 -551 87 -22 243 -15 319 15 176 70 289 247 338 526
21 121 28 393 13 526 -36 331 -141 513 -339 588 -60 23 -191 34 -261 22z m134
-106 c54 -11 126 -86 158 -166 62 -154 82 -337 75 -663 -6 -239 -13 -305 -47
-426 -58 -212 -238 -295 -378 -174 -68 58 -106 151 -139 339 -13 77 -17 160
-17 365 -1 327 15 443 81 586 30 66 101 131 152 140 20 3 41 7 46 9 6 2 15 2
22 0 6 -2 27 -7 47 -10z"/>
<path d="M15410 17851 c-230 -39 -377 -232 -436 -571 -19 -115 -22 -435 -5
-555 47 -321 166 -498 371 -551 87 -22 243 -15 319 15 176 70 289 247 338 526
21 121 28 393 13 526 -36 331 -141 513 -339 588 -60 23 -191 34 -261 22z m134
-106 c54 -11 126 -86 158 -166 62 -154 82 -337 75 -663 -6 -239 -13 -305 -47
-426 -58 -212 -238 -295 -378 -174 -68 58 -106 151 -139 339 -13 77 -17 160
-17 365 -1 327 15 443 81 586 30 66 101 131 152 140 20 3 41 7 46 9 6 2 15 2
22 0 6 -2 27 -7 47 -10z"/>
<path d="M19290 17851 c-230 -39 -377 -232 -436 -571 -19 -115 -22 -435 -5
-555 47 -321 166 -498 371 -551 87 -22 243 -15 319 15 176 70 289 247 338 526
21 121 28 393 13 526 -36 331 -141 513 -339 588 -60 23 -191 34 -261 22z m134
-106 c54 -11 126 -86 158 -166 62 -154 82 -337 75 -663 -6 -239 -13 -305 -47
-426 -58 -212 -238 -295 -378 -174 -68 58 -106 151 -139 339 -13 77 -17 160
-17 365 -1 327 15 443 81 586 30 66 101 131 152 140 20 3 41 7 46 9 6 2 15 2
22 0 6 -2 27 -7 47 -10z"/>
<path d="M23180 17851 c-230 -39 -377 -232 -436 -571 -19 -115 -22 -435 -5
-555 47 -321 166 -498 371 -551 87 -22 243 -15 319 15 176 70 289 247 338 526
21 121 28 393 13 526 -36 331 -141 513 -339 588 -60 23 -191 34 -261 22z m134
-106 c54 -11 126 -86 158 -166 62 -154 82 -337 75 -663 -6 -239 -13 -305 -47
-426 -58 -212 -238 -295 -378 -174 -68 58 -106 151 -139 339 -13 77 -17 160
-17 365 -1 327 15 443 81 586 30 66 101 131 152 140 20 3 41 7 46 9 6 2 15 2
22 0 6 -2 27 -7 47 -10z"/>
<path d="M27060 17851 c-230 -39 -377 -232 -436 -571 -19 -115 -22 -435 -5
-555 47 -321 166 -498 371 -551 87 -22 243 -15 319 15 176 70 289 247 338 526
21 121 28 393 13 526 -36 331 -141 513 -339 588 -60 23 -191 34 -261 22z m134
-106 c54 -11 126 -86 158 -166 62 -154 82 -337 75 -663 -6 -239 -13 -305 -47
-426 -58 -212 -238 -295 -378 -174 -68 58 -106 151 -139 339 -13 77 -17 160
-17 365 -1 327 15 443 81 586 30 66 101 131 152 140 20 3 41 7 46 9 6 2 15 2
22 0 6 -2 27 -7 47 -10z"/>
<path d="M30833 17689 l-282 -169 26 -45 c13 -25 27 -45 30 -45 3 0 40 22 82
49 94 60 146 86 188 96 27 5 37 2 58 -19 l25 -26 -2 -573 -3 -573 -25 -37
c-32 -47 -78 -65 -182 -72 -129 -10 -128 -9 -128 -55 l0 -40 450 0 450 0 0 40
c0 44 2 44 -139 55 -99 7 -153 34 -178 89 -17 38 -18 83 -18 768 l0 728 -35
-1 c-27 -1 -103 -42 -317 -170z"/>
<path d="M10689 17207 c-274 -388 -506 -833 -699 -1337 -343 -894 -562 -1893
-645 -2930 -37 -467 -38 -538 -42 -2847 l-4 -2293 130 0 131 0 0 2008 c0 2023
7 2610 35 3022 85 1237 328 2408 685 3300 154 384 305 678 503 983 l90 139
-44 38 c-24 22 -46 39 -49 39 -3 0 -44 -55 -91 -122z"/>
<path d="M31803 17294 c-24 -20 -43 -40 -43 -44 0 -5 33 -60 74 -122 411 -633
715 -1416 929 -2398 162 -739 249 -1428 287 -2263 6 -142 10 -1074 10 -2448
l0 -2219 130 0 130 0 0 2243 c0 2338 -2 2470 -45 2967 -130 1523 -569 2996
-1183 3965 -61 97 -241 356 -246 355 0 0 -20 -16 -43 -36z"/>
<path d="M11520 14921 c-230 -39 -377 -232 -436 -571 -19 -115 -22 -435 -5
-555 47 -321 166 -498 371 -551 87 -22 243 -15 319 15 176 70 289 247 338 526
21 121 28 393 13 526 -36 331 -141 513 -339 588 -60 23 -191 34 -261 22z m134
-106 c54 -11 126 -86 158 -166 62 -154 82 -337 75 -663 -6 -239 -13 -305 -47
-426 -58 -212 -238 -295 -378 -174 -68 58 -106 151 -139 339 -13 77 -17 160
-17 365 -1 327 15 443 81 586 30 66 101 131 152 140 20 3 41 7 46 9 6 2 15 2
22 0 6 -2 27 -7 47 -10z"/>
<path d="M15410 14921 c-230 -39 -377 -232 -436 -571 -19 -115 -22 -435 -5
-555 47 -321 166 -498 371 -551 87 -22 243 -15 319 15 176 70 289 247 338 526
21 121 28 393 13 526 -36 331 -141 513 -339 588 -60 23 -191 34 -261 22z m134
-106 c54 -11 126 -86 158 -166 62 -154 82 -337 75 -663 -6 -239 -13 -305 -47
-426 -58 -212 -238 -295 -378 -174 -68 58 -106 151 -139 339 -13 77 -17 160
-17 365 -1 327 15 443 81 586 30 66 101 131 152 140 20 3 41 7 46 9 6 2 15 2
22 0 6 -2 27 -7 47 -10z"/>
<path d="M19173 14759 l-282 -169 26 -45 c13 -25 27 -45 30 -45 3 0 40 22 82
49 94 60 146 86 188 96 27 5 37 2 58 -19 l25 -26 -2 -573 -3 -573 -25 -37
c-32 -47 -78 -65 -182 -72 -129 -10 -128 -9 -128 -55 l0 -40 450 0 450 0 0 40
c0 44 2 44 -139 55 -99 7 -153 34 -178 89 -17 38 -18 83 -18 768 l0 728 -35
-1 c-27 -1 -103 -42 -317 -170z"/>
<path d="M23180 14921 c-230 -39 -377 -232 -436 -571 -19 -115 -22 -435 -5
-555 47 -321 166 -498 371 -551 87 -22 243 -15 319 15 176 70 289 247 338 526
21 121 28 393 13 526 -36 331 -141 513 -339 588 -60 23 -191 34 -261 22z m134
-106 c54 -11 126 -86 158 -166 62 -154 82 -337 75 -663 -6 -239 -13 -305 -47
-426 -58 -212 -238 -295 -378 -174 -68 58 -106 151 -139 339 -13 77 -17 160
-17 365 -1 327 15 443 81 586 30 66 101 131 152 140 20 3 41 7 46 9 6 2 15 2
22 0 6 -2 27 -7 47 -10z"/>
<path d="M27060 14921 c-230 -39 -377 -232 -436 -571 -19 -115 -22 -435 -5
-555 47 -321 166 -498 371 -551 87 -22 243 -15 319 15 176 70 289 247 338 526
21 121 28 393 13 526 -36 331 -141 513 -339 588 -60 23 -191 34 -261 22z m134
-106 c54 -11 126 -86 158 -166 62 -154 82 -337 75 -663 -6 -239 -13 -305 -47
-426 -58 -212 -238 -295 -378 -174 -68 58 -106 151 -139 339 -13 77 -17 160
-17 365 -1 327 15 443 81 586 30 66 101 131 152 140 20 3 41 7 46 9 6 2 15 2
22 0 6 -2 27 -7 47 -10z"/>
<path d="M30833 14759 l-282 -169 26 -45 c13 -25 27 -45 30 -45 3 0 40 22 82
49 94 60 146 86 188 96 27 5 37 2 58 -19 l25 -26 -2 -573 -3 -573 -25 -37
c-32 -47 -78 -65 -182 -72 -129 -10 -128 -9 -128 -55 l0 -40 450 0 450 0 0 40
c0 44 2 44 -139 55 -99 7 -153 34 -178 89 -17 38 -18 83 -18 768 l0 728 -35
-1 c-27 -1 -103 -42 -317 -170z"/>
<path d="M11520 11991 c-230 -39 -377 -232 -436 -571 -19 -115 -22 -435 -5
-555 47 -321 166 -498 371 -551 87 -22 243 -15 319 15 176 70 289 247 338 526
21 121 28 393 13 526 -36 331 -141 513 -339 588 -60 23 -191 34 -261 22z m134
-106 c54 -11 126 -86 158 -166 62 -154 82 -337 75 -663 -6 -239 -13 -305 -47
-426 -58 -212 -238 -295 -378 -174 -68 58 -106 151 -139 339 -13 77 -17 160
-17 365 -1 327 15 443 81 586 30 66 101 131 152 140 20 3 41 7 46 9 6 2 15 2
22 0 6 -2 27 -7 47 -10z"/>
<path d="M15293 11829 l-282 -169 26 -45 c13 -25 27 -45 30 -45 3 0 40 22 82
49 94 60 146 86 188 96 27 5 37 2 58 -19 l25 -26 -2 -573 -3 -573 -25 -37
c-32 -47 -78 -65 -182 -72 -129 -10 -128 -9 -128 -55 l0 -40 450 0 450 0 0 40
c0 44 2 44 -139 55 -99 7 -153 34 -178 89 -17 38 -18 83 -18 768 l0 728 -35
-1 c-27 -1 -103 -42 -317 -170z"/>
<path d="M19290 11991 c-230 -39 -377 -232 -436 -571 -19 -115 -22 -435 -5
-555 47 -321 166 -498 371 -551 87 -22 243 -15 319 15 176 70 289 247 338 526
21 121 28 393 13 526 -36 331 -141 513 -339 588 -60 23 -191 34 -261 22z m134
-106 c54 -11 126 -86 158 -166 62 -154 82 -337 75 -663 -6 -239 -13 -305 -47
-426 -58 -212 -238 -295 -378 -174 -68 58 -106 151 -139 339 -13 77 -17 160
-17 365 -1 327 15 443 81 586 30 66 101 131 152 140 20 3 41 7 46 9 6 2 15 2
22 0 6 -2 27 -7 47 -10z"/>
<path d="M23180 11991 c-230 -39 -377 -232 -436 -571 -19 -115 -22 -435 -5
-555 47 -321 166 -498 371 -551 87 -22 243 -15 319 15 176 70 289 247 338 526
21 121 28 393 13 526 -36 331 -141 513 -339 588 -60 23 -191 34 -261 22z m134
-106 c54 -11 126 -86 158 -166 62 -154 82 -337 75 -663 -6 -239 -13 -305 -47
-426 -58 -212 -238 -295 -378 -174 -68 58 -106 151 -139 339 -13 77 -17 160
-17 365 -1 327 15 443 81 586 30 66 101 131 152 140 20 3 41 7 46 9 6 2 15 2
22 0 6 -2 27 -7 47 -10z"/>
<path d="M27060 11991 c-230 -39 -377 -232 -436 -571 -19 -115 -22 -435 -5
-555 47 -321 166 -498 371 -551 87 -22 243 -15 319 15 176 70 289 247 338 526
21 121 28 393 13 526 -36 331 -141 513 -339 588 -60 23 -191 34 -261 22z m134
-106 c54 -11 126 -86 158 -166 62 -154 82 -337 75 -663 -6 -239 -13 -305 -47
-426 -58 -212 -238 -295 -378 -174 -68 58 -106 151 -139 339 -13 77 -17 160
-17 365 -1 327 15 443 81 586 30 66 101 131 152 140 20 3 41 7 46 9 6 2 15 2
22 0 6 -2 27 -7 47 -10z"/>
<path d="M30950 11991 c-230 -39 -377 -232 -436 -571 -19 -115 -22 -435 -5
-555 47 -321 166 -498 371 -551 87 -22 243 -15 319 15 176 70 289 247 338 526
21 121 28 393 13 526 -36 331 -141 513 -339 588 -60 23 -191 34 -261 22z m134
-106 c54 -11 126 -86 158 -166 62 -154 82 -337 75 -663 -6 -239 -13 -305 -47
-426 -58 -212 -238 -295 -378 -174 -68 58 -106 151 -139 339 -13 77 -17 160
-17 365 -1 327 15 443 81 586 30 66 101 131 152 140 20 3 41 7 46 9 6 2 15 2
22 0 6 -2 27 -7 47 -10z"/>
<path d="M4927 10643 c-3 -4 -118 -309 -257 -678 -138 -368 -269 -706 -290
-751 -43 -93 -97 -158 -146 -176 -28 -10 -34 -17 -34 -40 l0 -28 260 0 260 0
0 28 c0 24 -5 29 -43 39 -81 22 -115 90 -97 197 5 32 26 109 47 172 l37 114
286 -2 285 -3 38 -135 c23 -83 39 -161 40 -202 2 -62 0 -69 -28 -98 -17 -18
-49 -36 -72 -43 -38 -10 -43 -15 -43 -39 l0 -28 280 0 280 0 0 29 c0 25 -5 31
-30 36 -42 9 -94 66 -121 132 -12 31 -120 376 -239 767 l-217 711 -96 3 c-52
1 -98 -1 -100 -5z m169 -638 l112 -380 -251 -3 c-137 -1 -252 -1 -254 2 -2 2
58 179 134 394 76 215 140 386 142 379 3 -7 55 -183 117 -392z"/>
<path d="M6640 9930 l0 -80 750 0 750 0 0 80 0 80 -750 0 -750 0 0 -80z"/>
<path d="M6640 9425 l0 -85 750 0 750 0 0 85 0 85 -750 0 -750 0 0 -85z"/>
<path d="M11520 9061 c-230 -39 -377 -232 -436 -571 -19 -115 -22 -435 -5
-555 47 -321 166 -498 371 -551 87 -22 243 -15 319 15 176 70 289 247 338 526
21 121 28 393 13 526 -36 331 -141 513 -339 588 -60 23 -191 34 -261 22z m134
-106 c54 -11 126 -86 158 -166 62 -154 82 -337 75 -663 -6 -239 -13 -305 -47
-426 -58 -212 -238 -295 -378 -174 -68 58 -106 151 -139 339 -13 77 -17 160
-17 365 -1 327 15 443 81 586 30 66 101 131 152 140 20 3 41 7 46 9 6 2 15 2
22 0 6 -2 27 -7 47 -10z"/>
<path d="M15410 9061 c-230 -39 -377 -232 -436 -571 -19 -115 -22 -435 -5
-555 47 -321 166 -498 371 -551 87 -22 243 -15 319 15 176 70 289 247 338 526
21 121 28 393 13 526 -36 331 -141 513 -339 588 -60 23 -191 34 -261 22z m134
-106 c54 -11 126 -86 158 -166 62 -154 82 -337 75 -663 -6 -239 -13 -305 -47
-426 -58 -212 -238 -295 -378 -174 -68 58 -106 151 -139 339 -13 77 -17 160
-17 365 -1 327 15 443 81 586 30 66 101 131 152 140 20 3 41 7 46 9 6 2 15 2
22 0 6 -2 27 -7 47 -10z"/>
<path d="M19290 9061 c-230 -39 -377 -232 -436 -571 -19 -115 -22 -435 -5
-555 47 -321 166 -498 371 -551 87 -22 243 -15 319 15 176 70 289 247 338 526
21 121 28 393 13 526 -36 331 -141 513 -339 588 -60 23 -191 34 -261 22z m134
-106 c54 -11 126 -86 158 -166 62 -154 82 -337 75 -663 -6 -239 -13 -305 -47
-426 -58 -212 -238 -295 -378 -174 -68 58 -106 151 -139 339 -13 77 -17 160
-17 365 -1 327 15 443 81 586 30 66 101 131 152 140 20 3 41 7 46 9 6 2 15 2
22 0 6 -2 27 -7 47 -10z"/>
<path d="M23180 9061 c-230 -39 -377 -232 -436 -571 -19 -115 -22 -435 -5
-555 47 -321 166 -498 371 -551 87 -22 243 -15 319 15 176 70 289 247 338 526
21 121 28 393 13 526 -36 331 -141 513 -339 588 -60 23 -191 34 -261 22z m134
-106 c54 -11 126 -86 158 -166 62 -154 82 -337 75 -663 -6 -239 -13 -305 -47
-426 -58 -212 -238 -295 -378 -174 -68 58 -106 151 -139 339 -13 77 -17 160
-17 365 -1 327 15 443 81 586 30 66 101 131 152 140 20 3 41 7 46 9 6 2 15 2
22 0 6 -2 27 -7 47 -10z"/>
<path d="M26943 8899 l-282 -169 26 -45 c13 -25 27 -45 30 -45 3 0 40 22 82
49 94 60 146 86 188 96 27 5 37 2 58 -19 l25 -26 -2 -573 -3 -573 -25 -37
c-32 -47 -78 -65 -182 -72 -129 -10 -128 -9 -128 -55 l0 -40 450 0 450 0 0 40
c0 44 2 44 -139 55 -99 7 -153 34 -178 89 -17 38 -18 83 -18 768 l0 728 -35
-1 c-27 -1 -103 -42 -317 -170z"/>
<path d="M30950 9061 c-230 -39 -377 -232 -436 -571 -19 -115 -22 -435 -5
-555 47 -321 166 -498 371 -551 87 -22 243 -15 319 15 176 70 289 247 338 526
21 121 28 393 13 526 -36 331 -141 513 -339 588 -60 23 -191 34 -261 22z m134
-106 c54 -11 126 -86 158 -166 62 -154 82 -337 75 -663 -6 -239 -13 -305 -47
-426 -58 -212 -238 -295 -378 -174 -68 58 -106 151 -139 339 -13 77 -17 160
-17 365 -1 327 15 443 81 586 30 66 101 131 152 140 20 3 41 7 46 9 6 2 15 2
22 0 6 -2 27 -7 47 -10z"/>
<path d="M9304 7393 c12 -737 48 -1225 131 -1778 187 -1249 587 -2435 1088
-3230 85 -134 248 -365 257 -365 4 0 27 17 50 38 l43 38 -73 108 c-648 967
-1081 2514 -1205 4311 -14 211 -34 864 -35 1143 l0 132 -132 0 -131 0 7 -397z"/>
<path d="M33060 7448 c0 -921 -84 -1784 -254 -2631 -222 -1098 -544 -1955
-979 -2607 l-77 -115 43 -37 c23 -20 46 -36 52 -34 27 8 271 374 391 586 178
317 380 778 516 1180 381 1129 568 2321 568 3638 l0 362 -130 0 -130 0 0 -342z"/>
<path d="M11520 6121 c-230 -39 -377 -232 -436 -571 -19 -115 -22 -435 -5
-555 47 -321 166 -498 371 -551 87 -22 243 -15 319 15 176 70 289 247 338 526
21 121 28 393 13 526 -36 331 -141 513 -339 588 -60 23 -191 34 -261 22z m134
-106 c54 -11 126 -86 158 -166 62 -154 82 -337 75 -663 -6 -239 -13 -305 -47
-426 -58 -212 -238 -295 -378 -174 -68 58 -106 151 -139 339 -13 77 -17 160
-17 365 -1 327 15 443 81 586 30 66 101 131 152 140 20 3 41 7 46 9 6 2 15 2
22 0 6 -2 27 -7 47 -10z"/>
<path d="M15410 6121 c-230 -39 -377 -232 -436 -571 -19 -115 -22 -435 -5
-555 47 -321 166 -498 371 -551 87 -22 243 -15 319 15 176 70 289 247 338 526
21 121 28 393 13 526 -36 331 -141 513 -339 588 -60 23 -191 34 -261 22z m134
-106 c54 -11 126 -86 158 -166 62 -154 82 -337 75 -663 -6 -239 -13 -305 -47
-426 -58 -212 -238 -295 -378 -174 -68 58 -106 151 -139 339 -13 77 -17 160
-17 365 -1 327 15 443 81 586 30 66 101 131 152 140 20 3 41 7 46 9 6 2 15 2
22 0 6 -2 27 -7 47 -10z"/>
<path d="M19290 6121 c-230 -39 -377 -232 -436 -571 -19 -115 -22 -435 -5
-555 47 -321 166 -498 371 -551 87 -22 243 -15 319 15 176 70 289 247 338 526
21 121 28 393 13 526 -36 331 -141 513 -339 588 -60 23 -191 34 -261 22z m134
-106 c54 -11 126 -86 158 -166 62 -154 82 -337 75 -663 -6 -239 -13 -305 -47
-426 -58 -212 -238 -295 -378 -174 -68 58 -106 151 -139 339 -13 77 -17 160
-17 365 -1 327 15 443 81 586 30 66 101 131 152 140 20 3 41 7 46 9 6 2 15 2
22 0 6 -2 27 -7 47 -10z"/>
<path d="M23063 5959 l-282 -169 26 -45 c13 -25 27 -45 30 -45 3 0 40 22 82
49 94 60 146 86 188 96 27 5 37 2 58 -19 l25 -26 -2 -573 -3 -573 -25 -37
c-32 -47 -78 -65 -182 -72 -129 -10 -128 -9 -128 -55 l0 -40 450 0 450 0 0 40
c0 44 2 44 -139 55 -99 7 -153 34 -178 89 -17 38 -18 83 -18 768 l0 728 -35
-1 c-27 -1 -103 -42 -317 -170z"/>
<path d="M27060 6121 c-230 -39 -377 -232 -436 -571 -19 -115 -22 -435 -5
-555 47 -321 166 -498 371 -551 87 -22 243 -15 319 15 176 70 289 247 338 526
21 121 28 393 13 526 -36 331 -141 513 -339 588 -60 23 -191 34 -261 22z m134
-106 c54 -11 126 -86 158 -166 62 -154 82 -337 75 -663 -6 -239 -13 -305 -47
-426 -58 -212 -238 -295 -378 -174 -68 58 -106 151 -139 339 -13 77 -17 160
-17 365 -1 327 15 443 81 586 30 66 101 131 152 140 20 3 41 7 46 9 6 2 15 2
22 0 6 -2 27 -7 47 -10z"/>
<path d="M30833 5959 l-282 -169 26 -45 c13 -25 27 -45 30 -45 3 0 40 22 82
49 94 60 146 86 188 96 27 5 37 2 58 -19 l25 -26 -2 -573 -3 -573 -25 -37
c-32 -47 -78 -65 -182 -72 -129 -10 -128 -9 -128 -55 l0 -40 450 0 450 0 0 40
c0 44 2 44 -139 55 -99 7 -153 34 -178 89 -17 38 -18 83 -18 768 l0 728 -35
-1 c-27 -1 -103 -42 -317 -170z"/>
<path d="M11403 3029 l-282 -169 26 -45 c13 -25 27 -45 30 -45 3 0 40 22 82
49 94 60 146 86 188 96 27 5 37 2 58 -19 l25 -26 -2 -573 -3 -573 -25 -37
c-32 -47 -78 -65 -182 -72 -129 -10 -128 -9 -128 -55 l0 -40 450 0 450 0 0 40
c0 44 2 44 -139 55 -99 7 -153 34 -178 89 -17 38 -18 83 -18 768 l0 728 -35
-1 c-27 -1 -103 -42 -317 -170z"/>
<path d="M15293 3029 l-282 -169 26 -45 c13 -25 27 -45 30 -45 3 0 40 22 82
49 94 60 146 86 188 96 27 5 37 2 58 -19 l25 -26 -2 -573 -3 -573 -25 -37
c-32 -47 -78 -65 -182 -72 -129 -10 -128 -9 -128 -55 l0 -40 450 0 450 0 0 40
c0 44 2 44 -139 55 -99 7 -153 34 -178 89 -17 38 -18 83 -18 768 l0 728 -35
-1 c-27 -1 -103 -42 -317 -170z"/>
<path d="M19290 3191 c-230 -39 -377 -232 -436 -571 -19 -115 -22 -435 -5
-555 47 -321 166 -498 371 -551 87 -22 243 -15 319 15 176 70 289 247 338 526
21 121 28 393 13 526 -36 331 -141 513 -339 588 -60 23 -191 34 -261 22z m134
-106 c54 -11 126 -86 158 -166 62 -154 82 -337 75 -663 -6 -239 -13 -305 -47
-426 -58 -212 -238 -295 -378 -174 -68 58 -106 151 -139 339 -13 77 -17 160
-17 365 -1 327 15 443 81 586 30 66 101 131 152 140 20 3 41 7 46 9 6 2 15 2
22 0 6 -2 27 -7 47 -10z"/>
<path d="M23180 3191 c-230 -39 -377 -232 -436 -571 -19 -115 -22 -435 -5
-555 47 -321 166 -498 371 -551 87 -22 243 -15 319 15 176 70 289 247 338 526
21 121 28 393 13 526 -36 331 -141 513 -339 588 -60 23 -191 34 -261 22z m134
-106 c54 -11 126 -86 158 -166 62 -154 82 -337 75 -663 -6 -239 -13 -305 -47
-426 -58 -212 -238 -295 -378 -174 -68 58 -106 151 -139 339 -13 77 -17 160
-17 365 -1 327 15 443 81 586 30 66 101 131 152 140 20 3 41 7 46 9 6 2 15 2
22 0 6 -2 27 -7 47 -10z"/>
<path d="M26943 3029 l-282 -169 26 -45 c13 -25 27 -45 30 -45 3 0 40 22 82
49 94 60 146 86 188 96 27 5 37 2 58 -19 l25 -26 -2 -573 -3 -573 -25 -37
c-32 -47 -78 -65 -182 -72 -129 -10 -128 -9 -128 -55 l0 -40 450 0 450 0 0 40
c0 44 2 44 -139 55 -99 7 -153 34 -178 89 -17 38 -18 83 -18 768 l0 728 -35
-1 c-27 -1 -103 -42 -317 -170z"/>
<path d="M30950 3191 c-230 -39 -377 -232 -436 -571 -19 -115 -22 -435 -5
-555 47 -321 166 -498 371 -551 87 -22 243 -15 319 15 176 70 289 247 338 526
21 121 28 393 13 526 -36 331 -141 513 -339 588 -60 23 -191 34 -261 22z m134
-106 c54 -11 126 -86 158 -166 62 -154 82 -337 75 -663 -6 -239 -13 -305 -47
-426 -58 -212 -238 -295 -378 -174 -68 58 -106 151 -139 339 -13 77 -17 160
-17 365 -1 327 15 443 81 586 30 66 101 131 152 140 20 3 41 7 46 9 6 2 15 2
22 0 6 -2 27 -7 47 -10z"/>
</g>
</svg>
