<?xml version="1.0" standalone="no"?>
<!DOCTYPE svg PUBLIC "-//W3C//DTD SVG 20010904//EN"
 "http://www.w3.org/TR/2001/REC-SVG-20010904/DTD/svg10.dtd">
<svg version="1.0" xmlns="http://www.w3.org/2000/svg"
 width="755.000000pt" height="420.000000pt" viewBox="0 0 755.000000 420.000000"
 preserveAspectRatio="xMidYMid meet">

<g transform="translate(0.000000,420.000000) scale(0.100000,-0.100000)"
fill="#000000" stroke="none">
<path d="M1950 4010 c-67 -71 -68 -273 -2 -342 21 -23 35 -28 72 -28 90 0 129
61 130 202 0 144 -34 198 -126 198 -38 0 -51 -5 -74 -30z m114 -9 c42 -47 45
-264 5 -316 -26 -32 -63 -33 -84 -1 -40 60 -39 273 1 317 22 24 56 24 78 0z"/>
<path d="M2908 4003 c-32 -19 -58 -42 -58 -50 0 -12 7 -10 35 7 19 12 39 19
45 15 6 -4 10 -63 10 -150 0 -132 -2 -145 -19 -155 -11 -5 -29 -10 -40 -10
-12 0 -21 -4 -21 -10 0 -6 42 -10 105 -10 103 0 138 12 71 24 -19 4 -37 14
-40 22 -3 9 -6 92 -6 185 0 129 -3 169 -12 168 -7 0 -39 -17 -70 -36z"/>
<path d="M3810 4010 c-67 -71 -68 -273 -2 -342 21 -23 35 -28 72 -28 90 0 129
61 130 202 0 144 -34 198 -126 198 -38 0 -51 -5 -74 -30z m114 -9 c42 -47 45
-264 5 -316 -26 -32 -63 -33 -84 -1 -40 60 -39 273 1 317 22 24 56 24 78 0z"/>
<path d="M4740 4010 c-67 -71 -68 -273 -2 -342 21 -23 35 -28 72 -28 90 0 129
61 130 202 0 144 -34 198 -126 198 -38 0 -51 -5 -74 -30z m114 -9 c42 -47 45
-264 5 -316 -26 -32 -63 -33 -84 -1 -40 60 -39 273 1 317 22 24 56 24 78 0z"/>
<path d="M5698 4003 c-32 -19 -58 -42 -58 -50 0 -12 7 -10 35 7 19 12 39 19
45 15 6 -4 10 -63 10 -150 0 -132 -2 -145 -19 -155 -11 -5 -29 -10 -40 -10
-12 0 -21 -4 -21 -10 0 -6 42 -10 105 -10 103 0 138 12 71 24 -19 4 -37 14
-40 22 -3 9 -6 92 -6 185 0 129 -3 169 -12 168 -7 0 -39 -17 -70 -36z"/>
<path d="M6600 4010 c-67 -71 -68 -273 -2 -342 21 -23 35 -28 72 -28 90 0 129
61 130 202 0 144 -34 198 -126 198 -38 0 -51 -5 -74 -30z m114 -9 c42 -47 45
-264 5 -316 -26 -32 -63 -33 -84 -1 -40 60 -39 273 1 317 22 24 56 24 78 0z"/>
<path d="M1786 3873 c-104 -143 -211 -426 -265 -698 -44 -221 -46 -273 -46
-1100 0 -773 1 -793 23 -934 53 -336 150 -619 279 -814 67 -101 77 -71 14 39
-114 198 -191 457 -238 804 -16 121 -18 214 -18 910 0 823 2 870 50 1135 44
236 123 468 210 613 25 41 45 78 45 83 0 21 -22 5 -54 -38z"/>
<path d="M6857 3913 c-3 -5 14 -39 38 -78 111 -184 185 -420 242 -775 14 -90
17 -218 21 -880 4 -811 0 -931 -39 -1160 -48 -279 -132 -527 -232 -683 -42
-65 -43 -67 -22 -67 20 0 96 117 145 223 81 175 150 411 187 647 16 104 18
193 18 950 0 649 -3 855 -13 925 -52 341 -148 631 -277 833 -45 69 -58 81 -68
65z"/>
<path d="M1978 3303 c-32 -19 -58 -42 -58 -50 0 -12 7 -10 35 7 19 12 39 19
45 15 6 -4 10 -63 10 -150 0 -132 -2 -145 -19 -155 -11 -5 -29 -10 -40 -10
-12 0 -21 -4 -21 -10 0 -6 42 -10 105 -10 103 0 138 12 71 24 -19 4 -37 14
-40 22 -3 9 -6 92 -6 185 0 129 -3 169 -12 168 -7 0 -39 -17 -70 -36z"/>
<path d="M2880 3310 c-67 -71 -68 -273 -2 -342 21 -23 35 -28 72 -28 90 0 129
61 130 202 0 144 -34 198 -126 198 -38 0 -51 -5 -74 -30z m114 -9 c42 -47 45
-264 5 -316 -26 -32 -63 -33 -84 -1 -40 60 -39 273 1 317 22 24 56 24 78 0z"/>
<path d="M3838 3303 c-32 -19 -58 -42 -58 -50 0 -12 7 -10 35 7 19 12 39 19
45 15 6 -4 10 -63 10 -150 0 -132 -2 -145 -19 -155 -11 -5 -29 -10 -40 -10
-12 0 -21 -4 -21 -10 0 -6 42 -10 105 -10 103 0 138 12 71 24 -19 4 -37 14
-40 22 -3 9 -6 92 -6 185 0 129 -3 169 -12 168 -7 0 -39 -17 -70 -36z"/>
<path d="M4740 3310 c-67 -71 -68 -273 -2 -342 21 -23 35 -28 72 -28 90 0 129
61 130 202 0 144 -34 198 -126 198 -38 0 -51 -5 -74 -30z m114 -9 c42 -47 45
-264 5 -316 -26 -32 -63 -33 -84 -1 -40 60 -39 273 1 317 22 24 56 24 78 0z"/>
<path d="M5698 3303 c-32 -19 -58 -42 -58 -50 0 -12 7 -10 35 7 19 12 39 19
45 15 6 -4 10 -63 10 -150 0 -132 -2 -145 -19 -155 -11 -5 -29 -10 -40 -10
-12 0 -21 -4 -21 -10 0 -6 42 -10 105 -10 103 0 138 12 71 24 -19 4 -37 14
-40 22 -3 9 -6 92 -6 185 0 129 -3 169 -12 168 -7 0 -39 -17 -70 -36z"/>
<path d="M6600 3310 c-67 -71 -68 -273 -2 -342 21 -23 35 -28 72 -28 90 0 129
61 130 202 0 144 -34 198 -126 198 -38 0 -51 -5 -74 -30z m114 -9 c42 -47 45
-264 5 -316 -26 -32 -63 -33 -84 -1 -40 60 -39 273 1 317 22 24 56 24 78 0z"/>
<path d="M1950 2610 c-67 -71 -68 -273 -2 -342 21 -23 35 -28 72 -28 90 0 129
61 130 202 0 144 -34 198 -126 198 -38 0 -51 -5 -74 -30z m114 -9 c42 -47 45
-264 5 -316 -26 -32 -63 -33 -84 -1 -40 60 -39 273 1 317 22 24 56 24 78 0z"/>
<path d="M2908 2603 c-32 -19 -58 -42 -58 -50 0 -12 7 -10 35 7 19 12 39 19
45 15 6 -4 10 -63 10 -150 0 -132 -2 -145 -19 -155 -11 -5 -29 -10 -40 -10
-12 0 -21 -4 -21 -10 0 -6 42 -10 105 -10 103 0 138 12 71 24 -19 4 -37 14
-40 22 -3 9 -6 92 -6 185 0 129 -3 169 -12 168 -7 0 -39 -17 -70 -36z"/>
<path d="M3810 2610 c-67 -71 -68 -273 -2 -342 21 -23 35 -28 72 -28 90 0 129
61 130 202 0 144 -34 198 -126 198 -38 0 -51 -5 -74 -30z m114 -9 c42 -47 45
-264 5 -316 -26 -32 -63 -33 -84 -1 -40 60 -39 273 1 317 22 24 56 24 78 0z"/>
<path d="M4768 2603 c-32 -19 -58 -42 -58 -50 0 -12 7 -10 35 7 19 12 39 19
45 15 6 -4 10 -63 10 -150 0 -132 -2 -145 -19 -155 -11 -5 -29 -10 -40 -10
-12 0 -21 -4 -21 -10 0 -6 42 -10 105 -10 103 0 138 12 71 24 -19 4 -37 14
-40 22 -3 9 -6 92 -6 185 0 129 -3 169 -12 168 -7 0 -39 -17 -70 -36z"/>
<path d="M5670 2610 c-67 -71 -68 -273 -2 -342 21 -23 35 -28 72 -28 90 0 129
61 130 202 0 144 -34 198 -126 198 -38 0 -51 -5 -74 -30z m114 -9 c42 -47 45
-264 5 -316 -26 -32 -63 -33 -84 -1 -40 60 -39 273 1 317 22 24 56 24 78 0z"/>
<path d="M6600 2610 c-67 -71 -68 -273 -2 -342 21 -23 35 -28 72 -28 90 0 129
61 130 202 0 144 -34 198 -126 198 -38 0 -51 -5 -74 -30z m114 -9 c42 -47 45
-264 5 -316 -26 -32 -63 -33 -84 -1 -40 60 -39 273 1 317 22 24 56 24 78 0z"/>
<path d="M390 2154 c-52 -91 -107 -180 -122 -196 -16 -17 -28 -32 -28 -34 0
-2 28 -4 62 -4 59 0 60 1 45 18 -21 23 -21 33 0 77 l17 35 68 0 68 0 0 -49 c0
-39 -4 -52 -22 -64 -22 -15 -20 -16 40 -16 55 -1 82 11 50 21 -9 3 -34 239
-37 361 -1 11 -9 17 -24 17 -19 0 -38 -28 -117 -166z m102 -1 l4 -73 -57 0
-57 0 51 93 c34 59 53 85 54 72 1 -11 4 -53 5 -92z"/>
<path d="M830 2150 c0 -19 7 -20 180 -20 173 0 180 1 180 20 0 19 -7 20 -180
20 -173 0 -180 -1 -180 -20z"/>
<path d="M830 2030 c0 -19 7 -20 180 -20 173 0 180 1 180 20 0 19 -7 20 -180
20 -173 0 -180 -1 -180 -20z"/>
<path d="M1950 1910 c-67 -71 -68 -273 -2 -342 21 -23 35 -28 72 -28 90 0 129
61 130 202 0 144 -34 198 -126 198 -38 0 -51 -5 -74 -30z m114 -9 c42 -47 45
-264 5 -316 -26 -32 -63 -33 -84 -1 -40 60 -39 273 1 317 22 24 56 24 78 0z"/>
<path d="M2880 1910 c-67 -71 -68 -273 -2 -342 21 -23 35 -28 72 -28 90 0 129
61 130 202 0 144 -34 198 -126 198 -38 0 -51 -5 -74 -30z m114 -9 c42 -47 45
-264 5 -316 -26 -32 -63 -33 -84 -1 -40 60 -39 273 1 317 22 24 56 24 78 0z"/>
<path d="M3838 1903 c-32 -19 -58 -42 -58 -50 0 -12 7 -10 35 7 19 12 39 19
45 15 6 -4 10 -63 10 -150 0 -132 -2 -145 -19 -155 -11 -5 -29 -10 -40 -10
-12 0 -21 -4 -21 -10 0 -6 42 -10 105 -10 103 0 138 12 71 24 -19 4 -37 14
-40 22 -3 9 -6 92 -6 185 0 129 -3 169 -12 168 -7 0 -39 -17 -70 -36z"/>
<path d="M4740 1910 c-67 -71 -68 -273 -2 -342 21 -23 35 -28 72 -28 90 0 129
61 130 202 0 144 -34 198 -126 198 -38 0 -51 -5 -74 -30z m114 -9 c42 -47 45
-264 5 -316 -26 -32 -63 -33 -84 -1 -40 60 -39 273 1 317 22 24 56 24 78 0z"/>
<path d="M5698 1903 c-32 -19 -58 -42 -58 -50 0 -12 7 -10 35 7 19 12 39 19
45 15 6 -4 10 -63 10 -150 0 -132 -2 -145 -19 -155 -11 -5 -29 -10 -40 -10
-12 0 -21 -4 -21 -10 0 -6 42 -10 105 -10 103 0 138 12 71 24 -19 4 -37 14
-40 22 -3 9 -6 92 -6 185 0 129 -3 169 -12 168 -7 0 -39 -17 -70 -36z"/>
<path d="M6628 1903 c-32 -19 -58 -42 -58 -50 0 -12 7 -10 35 7 19 12 39 19
45 15 6 -4 10 -63 10 -150 0 -132 -2 -145 -19 -155 -11 -5 -29 -10 -40 -10
-12 0 -21 -4 -21 -10 0 -6 42 -10 105 -10 103 0 138 12 71 24 -19 4 -37 14
-40 22 -3 9 -6 92 -6 185 0 129 -3 169 -12 168 -7 0 -39 -17 -70 -36z"/>
<path d="M1978 1203 c-32 -19 -58 -42 -58 -50 0 -12 7 -10 35 7 19 12 39 19
45 15 6 -4 10 -63 10 -150 0 -132 -2 -145 -19 -155 -11 -5 -29 -10 -40 -10
-12 0 -21 -4 -21 -10 0 -6 42 -10 105 -10 103 0 138 12 71 24 -19 4 -37 14
-40 22 -3 9 -6 92 -6 185 0 129 -3 169 -12 168 -7 0 -39 -17 -70 -36z"/>
<path d="M2908 1203 c-32 -19 -58 -42 -58 -50 0 -12 7 -10 35 7 19 12 39 19
45 15 6 -4 10 -63 10 -150 0 -132 -2 -145 -19 -155 -11 -5 -29 -10 -40 -10
-12 0 -21 -4 -21 -10 0 -6 42 -10 105 -10 103 0 138 12 71 24 -19 4 -37 14
-40 22 -3 9 -6 92 -6 185 0 129 -3 169 -12 168 -7 0 -39 -17 -70 -36z"/>
<path d="M3810 1210 c-67 -71 -68 -273 -2 -342 21 -23 35 -28 72 -28 90 0 129
61 130 202 0 144 -34 198 -126 198 -38 0 -51 -5 -74 -30z m114 -9 c42 -47 45
-264 5 -316 -26 -32 -63 -33 -84 -1 -40 60 -39 273 1 317 22 24 56 24 78 0z"/>
<path d="M4768 1203 c-32 -19 -58 -42 -58 -50 0 -12 7 -10 35 7 19 12 39 19
45 15 6 -4 10 -63 10 -150 0 -132 -2 -145 -19 -155 -11 -5 -29 -10 -40 -10
-12 0 -21 -4 -21 -10 0 -6 42 -10 105 -10 103 0 138 12 71 24 -19 4 -37 14
-40 22 -3 9 -6 92 -6 185 0 129 -3 169 -12 168 -7 0 -39 -17 -70 -36z"/>
<path d="M5670 1210 c-67 -71 -68 -273 -2 -342 21 -23 35 -28 72 -28 90 0 129
61 130 202 0 144 -34 198 -126 198 -38 0 -51 -5 -74 -30z m114 -9 c42 -47 45
-264 5 -316 -26 -32 -63 -33 -84 -1 -40 60 -39 273 1 317 22 24 56 24 78 0z"/>
<path d="M6600 1210 c-67 -71 -68 -273 -2 -342 21 -23 35 -28 72 -28 90 0 129
61 130 202 0 144 -34 198 -126 198 -38 0 -51 -5 -74 -30z m114 -9 c42 -47 45
-264 5 -316 -26 -32 -63 -33 -84 -1 -40 60 -39 273 1 317 22 24 56 24 78 0z"/>
<path d="M1950 510 c-67 -71 -68 -273 -2 -342 21 -23 35 -28 72 -28 90 0 129
61 130 202 0 144 -34 198 -126 198 -38 0 -51 -5 -74 -30z m114 -9 c42 -47 45
-264 5 -316 -26 -32 -63 -33 -84 -1 -40 60 -39 273 1 317 22 24 56 24 78 0z"/>
<path d="M2880 510 c-67 -71 -68 -273 -2 -342 21 -23 35 -28 72 -28 90 0 129
61 130 202 0 144 -34 198 -126 198 -38 0 -51 -5 -74 -30z m114 -9 c42 -47 45
-264 5 -316 -26 -32 -63 -33 -84 -1 -40 60 -39 273 1 317 22 24 56 24 78 0z"/>
<path d="M3810 510 c-67 -71 -68 -273 -2 -342 21 -23 35 -28 72 -28 90 0 129
61 130 202 0 144 -34 198 -126 198 -38 0 -51 -5 -74 -30z m114 -9 c42 -47 45
-264 5 -316 -26 -32 -63 -33 -84 -1 -40 60 -39 273 1 317 22 24 56 24 78 0z"/>
<path d="M4768 503 c-32 -19 -58 -42 -58 -50 0 -12 7 -10 35 7 19 12 39 19 45
15 6 -4 10 -63 10 -150 0 -132 -2 -145 -19 -155 -11 -5 -29 -10 -40 -10 -12 0
-21 -4 -21 -10 0 -6 42 -10 105 -10 103 0 138 12 71 24 -19 4 -37 14 -40 22
-3 9 -6 92 -6 185 0 129 -3 169 -12 168 -7 0 -39 -17 -70 -36z"/>
<path d="M5670 510 c-67 -71 -68 -273 -2 -342 21 -23 35 -28 72 -28 90 0 129
61 130 202 0 144 -34 198 -126 198 -38 0 -51 -5 -74 -30z m114 -9 c42 -47 45
-264 5 -316 -26 -32 -63 -33 -84 -1 -40 60 -39 273 1 317 22 24 56 24 78 0z"/>
<path d="M6600 510 c-67 -71 -68 -273 -2 -342 21 -23 35 -28 72 -28 90 0 129
61 130 202 0 144 -34 198 -126 198 -38 0 -51 -5 -74 -30z m114 -9 c42 -47 45
-264 5 -316 -26 -32 -63 -33 -84 -1 -40 60 -39 273 1 317 22 24 56 24 78 0z"/>
</g>
</svg>
