<?xml version="1.0" standalone="no"?>
<!DOCTYPE svg PUBLIC "-//W3C//DTD SVG 20010904//EN"
 "http://www.w3.org/TR/2001/REC-SVG-20010904/DTD/svg10.dtd">
<svg version="1.0" xmlns="http://www.w3.org/2000/svg"
 width="755.000000pt" height="509.000000pt" viewBox="0 0 755.000000 509.000000"
 preserveAspectRatio="xMidYMid meet">

<g transform="translate(0.000000,509.000000) scale(0.100000,-0.100000)"
fill="#000000" stroke="none">
<path d="M808 4757 c-481 -731 -677 -1966 -492 -3087 89 -533 273 -1052 487
-1372 40 -59 77 -107 83 -108 6 0 17 6 23 14 10 12 -1 35 -53 120 -203 328
-361 827 -440 1391 -43 308 -51 440 -51 815 0 375 8 508 51 813 79 562 235
1049 445 1389 58 94 61 100 43 113 -11 8 -21 14 -24 15 -3 0 -35 -46 -72 -103z"/>
<path d="M6636 4845 c-17 -13 -15 -19 47 -117 418 -666 600 -1910 441 -3021
-81 -570 -239 -1065 -443 -1391 -49 -77 -59 -101 -50 -112 6 -8 17 -14 24 -14
16 0 139 188 208 320 202 384 357 966 413 1545 24 251 22 729 -5 990 -69 687
-257 1287 -535 1707 -39 59 -73 107 -76 107 -3 0 -13 -6 -24 -14z"/>
<path d="M1175 4776 c-53 -23 -102 -88 -127 -168 -27 -91 -30 -279 -5 -371 31
-117 101 -177 205 -177 65 0 107 17 149 60 55 56 75 126 81 273 8 223 -27 325
-130 378 -43 22 -128 25 -173 5z m146 -67 c41 -47 54 -123 54 -309 0 -160 -1
-167 -28 -222 -23 -46 -35 -59 -63 -68 -55 -18 -88 0 -121 68 -25 52 -28 67
-31 209 -5 170 7 256 41 309 39 61 102 66 148 13z"/>
<path d="M2850 4720 c-63 -38 -116 -73 -118 -78 -1 -5 3 -14 11 -20 10 -9 28
-4 75 21 50 26 63 30 74 19 10 -10 13 -71 13 -263 0 -246 0 -251 -22 -269 -12
-9 -45 -20 -72 -24 -35 -5 -51 -11 -51 -21 0 -13 30 -15 195 -15 159 0 195 3
195 14 0 15 -29 25 -75 26 -16 0 -39 7 -50 16 -19 14 -20 28 -23 339 -3 299
-4 325 -20 324 -9 0 -69 -32 -132 -69z"/>
<path d="M4530 4720 c-63 -38 -116 -73 -118 -78 -1 -5 3 -14 11 -20 10 -9 28
-4 75 21 50 26 63 30 74 19 10 -10 13 -71 13 -263 0 -246 0 -251 -22 -269 -12
-9 -45 -20 -72 -24 -35 -5 -51 -11 -51 -21 0 -13 30 -15 195 -15 159 0 195 3
195 14 0 15 -29 25 -75 26 -16 0 -39 7 -50 16 -19 14 -20 28 -23 339 -3 299
-4 325 -20 324 -9 0 -69 -32 -132 -69z"/>
<path d="M6215 4776 c-53 -23 -102 -88 -127 -168 -27 -91 -30 -279 -5 -371 31
-117 101 -177 205 -177 65 0 107 17 149 60 55 56 75 126 81 273 8 223 -27 325
-130 378 -43 22 -128 25 -173 5z m146 -67 c41 -47 54 -123 54 -309 0 -160 -1
-167 -28 -222 -23 -46 -35 -59 -63 -68 -55 -18 -88 0 -121 68 -25 52 -28 67
-31 209 -5 170 7 256 41 309 39 61 102 66 148 13z"/>
<path d="M1170 3450 c-63 -38 -116 -73 -118 -78 -1 -5 3 -14 11 -20 10 -9 28
-4 75 21 50 26 63 30 74 19 10 -10 13 -71 13 -263 0 -246 0 -251 -22 -269 -12
-9 -45 -20 -72 -24 -35 -5 -51 -11 -51 -21 0 -13 30 -15 195 -15 159 0 195 3
195 14 0 15 -29 25 -75 26 -16 0 -39 7 -50 16 -19 14 -20 28 -23 339 -3 299
-4 325 -20 324 -9 0 -69 -32 -132 -69z"/>
<path d="M2855 3506 c-53 -23 -102 -88 -127 -168 -27 -91 -30 -279 -5 -371 31
-117 101 -177 205 -177 65 0 107 17 149 60 55 56 75 126 81 273 8 223 -27 325
-130 378 -43 22 -128 25 -173 5z m146 -67 c41 -47 54 -123 54 -309 0 -160 -1
-167 -28 -222 -23 -46 -35 -59 -63 -68 -55 -18 -88 0 -121 68 -25 52 -28 67
-31 209 -5 170 7 256 41 309 39 61 102 66 148 13z"/>
<path d="M4530 3450 c-63 -38 -116 -73 -118 -78 -1 -5 3 -14 11 -20 10 -9 28
-4 75 21 50 26 63 30 74 19 10 -10 13 -71 13 -263 0 -246 0 -251 -22 -269 -12
-9 -45 -20 -72 -24 -35 -5 -51 -11 -51 -21 0 -13 30 -15 195 -15 159 0 195 3
195 14 0 15 -29 25 -75 26 -16 0 -39 7 -50 16 -19 14 -20 28 -23 339 -3 299
-4 325 -20 324 -9 0 -69 -32 -132 -69z"/>
<path d="M6210 3450 c-63 -38 -116 -73 -118 -78 -1 -5 3 -14 11 -20 10 -9 28
-4 75 21 50 26 63 30 74 19 10 -10 13 -71 13 -263 0 -246 0 -251 -22 -269 -12
-9 -45 -20 -72 -24 -35 -5 -51 -11 -51 -21 0 -13 30 -15 195 -15 159 0 195 3
195 14 0 15 -29 25 -75 26 -16 0 -39 7 -50 16 -19 14 -20 28 -23 339 -3 299
-4 325 -20 324 -9 0 -69 -32 -132 -69z"/>
<path d="M1170 2190 c-63 -38 -116 -73 -118 -78 -1 -5 3 -14 11 -20 10 -9 28
-4 75 21 50 26 63 30 74 19 10 -10 13 -71 13 -263 0 -246 0 -251 -22 -269 -12
-9 -45 -20 -72 -24 -35 -5 -51 -11 -51 -21 0 -13 30 -15 195 -15 159 0 195 3
195 14 0 15 -29 25 -75 26 -16 0 -39 7 -50 16 -19 14 -20 28 -23 339 -3 299
-4 325 -20 324 -9 0 -69 -32 -132 -69z"/>
<path d="M2850 2190 c-63 -38 -116 -73 -118 -78 -1 -5 3 -14 11 -20 10 -9 28
-4 75 21 50 26 63 30 74 19 10 -10 13 -71 13 -263 0 -246 0 -251 -22 -269 -12
-9 -45 -20 -72 -24 -35 -5 -51 -11 -51 -21 0 -13 30 -15 195 -15 159 0 195 3
195 14 0 15 -29 25 -75 26 -16 0 -39 7 -50 16 -19 14 -20 28 -23 339 -3 299
-4 325 -20 324 -9 0 -69 -32 -132 -69z"/>
<path d="M4535 2246 c-53 -23 -102 -88 -127 -168 -27 -91 -30 -279 -5 -371 31
-117 101 -177 205 -177 65 0 107 17 149 60 55 56 75 126 81 273 8 223 -27 325
-130 378 -43 22 -128 25 -173 5z m146 -67 c41 -47 54 -123 54 -309 0 -160 -1
-167 -28 -222 -23 -46 -35 -59 -63 -68 -55 -18 -88 0 -121 68 -25 52 -28 67
-31 209 -5 170 7 256 41 309 39 61 102 66 148 13z"/>
<path d="M6210 2190 c-63 -38 -116 -73 -118 -78 -1 -5 3 -14 11 -20 10 -9 28
-4 75 21 50 26 63 30 74 19 10 -10 13 -71 13 -263 0 -246 0 -251 -22 -269 -12
-9 -45 -20 -72 -24 -35 -5 -51 -11 -51 -21 0 -13 30 -15 195 -15 159 0 195 3
195 14 0 15 -29 25 -75 26 -16 0 -39 7 -50 16 -19 14 -20 28 -23 339 -3 299
-4 325 -20 324 -9 0 -69 -32 -132 -69z"/>
<path d="M1175 976 c-53 -23 -102 -88 -127 -168 -27 -91 -30 -279 -5 -371 31
-117 101 -177 205 -177 65 0 107 17 149 60 55 56 75 126 81 273 8 223 -27 325
-130 378 -43 22 -128 25 -173 5z m146 -67 c41 -47 54 -123 54 -309 0 -160 -1
-167 -28 -222 -23 -46 -35 -59 -63 -68 -55 -18 -88 0 -121 68 -25 52 -28 67
-31 209 -5 170 7 256 41 309 39 61 102 66 148 13z"/>
<path d="M2850 920 c-63 -38 -116 -73 -118 -78 -1 -5 3 -14 11 -20 10 -9 28
-4 75 21 50 26 63 30 74 19 10 -10 13 -71 13 -263 0 -246 0 -251 -22 -269 -12
-9 -45 -20 -72 -24 -35 -5 -51 -11 -51 -21 0 -13 30 -15 195 -15 159 0 195 3
195 14 0 15 -29 25 -75 26 -16 0 -39 7 -50 16 -19 14 -20 28 -23 339 -3 299
-4 325 -20 324 -9 0 -69 -32 -132 -69z"/>
<path d="M4530 920 c-63 -38 -116 -73 -118 -78 -1 -5 3 -14 11 -20 10 -9 28
-4 75 21 50 26 63 30 74 19 10 -10 13 -71 13 -263 0 -246 0 -251 -22 -269 -12
-9 -45 -20 -72 -24 -35 -5 -51 -11 -51 -21 0 -13 30 -15 195 -15 159 0 195 3
195 14 0 15 -29 25 -75 26 -16 0 -39 7 -50 16 -19 14 -20 28 -23 339 -3 299
-4 325 -20 324 -9 0 -69 -32 -132 -69z"/>
<path d="M6215 976 c-53 -23 -102 -88 -127 -168 -27 -91 -30 -279 -5 -371 31
-117 101 -177 205 -177 65 0 107 17 149 60 55 56 75 126 81 273 8 223 -27 325
-130 378 -43 22 -128 25 -173 5z m146 -67 c41 -47 54 -123 54 -309 0 -160 -1
-167 -28 -222 -23 -46 -35 -59 -63 -68 -55 -18 -88 0 -121 68 -25 52 -28 67
-31 209 -5 170 7 256 41 309 39 61 102 66 148 13z"/>
</g>
</svg>
